<svg width="75" height="75" viewBox="0 0 75 75" fill="none" xmlns="http://www.w3.org/2000/svg">
<mask id="mask0_157_1134" style="mask-type:alpha" maskUnits="userSpaceOnUse" x="0" y="0" width="75" height="75">
<rect width="75" height="75" fill="#D9D9D9"/>
</mask>
<g mask="url(#mask0_157_1134)">
<path d="M38.375 9.375C45.3542 9.375 51.2656 11.7969 56.1094 16.6406C60.9531 21.4844 63.375 27.3958 63.375 34.375C63.375 41.3542 60.9531 47.2656 56.1094 52.1094C51.2656 56.9531 45.3542 59.375 38.375 59.375C31.3958 59.375 25.4844 56.9531 20.6406 52.1094C15.7969 47.2656 13.375 41.3542 13.375 34.375C13.375 27.3958 15.7969 21.4844 20.6406 16.6406C25.4844 11.7969 31.3958 9.375 38.375 9.375ZM38.375 53.125C43.5833 53.125 48.0104 51.3021 51.6562 47.6562C55.3021 44.0104 57.125 39.5833 57.125 34.375C57.125 29.1667 55.3021 24.7396 51.6562 21.0938C48.0104 17.4479 43.5833 15.625 38.375 15.625C33.1667 15.625 28.7396 17.4479 25.0938 21.0938C21.4479 24.7396 19.625 29.1667 19.625 34.375C19.625 39.5833 21.4479 44.0104 25.0938 47.6562C28.7396 51.3021 33.1667 53.125 38.375 53.125ZM38.375 45.3125C40.875 45.3125 43.1146 44.5964 45.0938 43.1641C47.0729 41.7318 48.4792 39.8438 49.3125 37.5H27.4375C28.2708 39.8438 29.6771 41.7318 31.6563 43.1641C33.6354 44.5964 35.875 45.3125 38.375 45.3125ZM27.4375 28.125C27.4375 29.0104 27.737 29.7526 28.3359 30.3516C28.9349 30.9505 29.6771 31.25 30.5625 31.25C31.4479 31.25 32.1901 30.9505 32.7891 30.3516C33.388 29.7526 33.6875 29.0104 33.6875 28.125C33.6875 27.2396 33.388 26.4974 32.7891 25.8984C32.1901 25.2995 31.4479 25 30.5625 25C29.6771 25 28.9349 25.2995 28.3359 25.8984C27.737 26.4974 27.4375 27.2396 27.4375 28.125ZM43.0625 28.125C43.0625 29.0104 43.362 29.7526 43.9609 30.3516C44.5599 30.9505 45.3021 31.25 46.1875 31.25C47.0729 31.25 47.8151 30.9505 48.4141 30.3516C49.013 29.7526 49.3125 29.0104 49.3125 28.125C49.3125 27.2396 49.013 26.4974 48.4141 25.8984C47.8151 25.2995 47.0729 25 46.1875 25C45.3021 25 44.5599 25.2995 43.9609 25.8984C43.362 26.4974 43.0625 27.2396 43.0625 28.125ZM4 15.625V9.375C4 6.77083 4.91146 4.55729 6.73438 2.73438C8.55729 0.911458 10.7708 0 13.375 0H19.625V6.25H13.375C12.4896 6.25 11.7474 6.54948 11.1484 7.14844C10.5495 7.7474 10.25 8.48958 10.25 9.375V15.625H4ZM13.375 68.75C10.7708 68.75 8.55729 67.8385 6.73438 66.0156C4.91146 64.1927 4 61.9792 4 59.375V53.125H10.25V59.375C10.25 60.2604 10.5495 61.0026 11.1484 61.6016C11.7474 62.2005 12.4896 62.5 13.375 62.5H19.625V68.75H13.375ZM57.125 68.75V62.5H63.375C64.2604 62.5 65.0026 62.2005 65.6016 61.6016C66.2005 61.0026 66.5 60.2604 66.5 59.375V53.125H72.75V59.375C72.75 61.9792 71.8385 64.1927 70.0156 66.0156C68.1927 67.8385 65.9792 68.75 63.375 68.75H57.125ZM66.5 15.625V9.375C66.5 8.48958 66.2005 7.7474 65.6016 7.14844C65.0026 6.54948 64.2604 6.25 63.375 6.25H57.125V0H63.375C65.9792 0 68.1927 0.911458 70.0156 2.73438C71.8385 4.55729 72.75 6.77083 72.75 9.375V15.625H66.5Z" fill="url(#paint0_linear_157_1134)"/>
</g>
<defs>
<linearGradient id="paint0_linear_157_1134" x1="38.375" y1="0" x2="38.375" y2="68.75" gradientUnits="userSpaceOnUse">
<stop stop-color="#8898F8"/>
<stop offset="1" stop-color="#A581F8"/>
</linearGradient>
</defs>
</svg>
