<svg width="75" height="75" viewBox="0 0 75 75" fill="none" xmlns="http://www.w3.org/2000/svg">
<mask id="mask0_157_1138" style="mask-type:alpha" maskUnits="userSpaceOnUse" x="0" y="0" width="75" height="75">
<rect width="75" height="75" fill="#D9D9D9"/>
</mask>
<g mask="url(#mask0_157_1138)">
<path d="M37.1094 62.5C37.3177 62.5 37.526 62.4479 37.7344 62.3438C37.9427 62.2396 38.099 62.1354 38.2031 62.0312L63.8281 36.4063C64.4531 35.7813 64.9089 35.0781 65.1953 34.2969C65.4818 33.5156 65.625 32.7344 65.625 31.9531C65.625 31.1198 65.4818 30.3255 65.1953 29.5703C64.9089 28.8151 64.4531 28.151 63.8281 27.5781L50.5469 14.2969C49.974 13.6719 49.3099 13.2161 48.5547 12.9297C47.7995 12.6432 47.0052 12.5 46.1719 12.5C45.3906 12.5 44.6094 12.6432 43.8281 12.9297C43.0469 13.2161 42.3438 13.6719 41.7188 14.2969L40.8594 15.1562L46.6406 21.0156C47.4219 21.7448 47.9948 22.5781 48.3594 23.5156C48.724 24.4531 48.9063 25.4427 48.9063 26.4844C48.9063 28.6719 48.1641 30.5078 46.6797 31.9922C45.1953 33.4766 43.3594 34.2188 41.1719 34.2188C40.1302 34.2188 39.1276 34.0365 38.1641 33.6719C37.2005 33.3073 36.3542 32.7604 35.625 32.0312L29.7656 26.25L16.0938 39.9219C15.9375 40.0781 15.8203 40.2474 15.7422 40.4297C15.6641 40.612 15.625 40.8073 15.625 41.0156C15.625 41.4323 15.7812 41.8099 16.0938 42.1484C16.4062 42.487 16.7708 42.6562 17.1875 42.6562C17.3958 42.6562 17.6042 42.6042 17.8125 42.5C18.0208 42.3958 18.1771 42.2917 18.2812 42.1875L28.9062 31.5625L33.2812 35.9375L22.7344 46.5625C22.5781 46.7188 22.4609 46.888 22.3828 47.0703C22.3047 47.2526 22.2656 47.4479 22.2656 47.6562C22.2656 48.0729 22.4219 48.4375 22.7344 48.75C23.0469 49.0625 23.4115 49.2188 23.8281 49.2188C24.0365 49.2188 24.2448 49.1667 24.4531 49.0625C24.6615 48.9583 24.8177 48.8542 24.9219 48.75L35.5469 38.2031L39.9219 42.5781L29.375 53.2031C29.2188 53.3073 29.1016 53.4635 29.0234 53.6719C28.9453 53.8802 28.9062 54.0885 28.9062 54.2969C28.9062 54.7135 29.0625 55.0781 29.375 55.3906C29.6875 55.7031 30.0521 55.8594 30.4688 55.8594C30.6771 55.8594 30.8724 55.8203 31.0547 55.7422C31.237 55.6641 31.4062 55.5469 31.5625 55.3906L42.1875 44.8438L46.5625 49.2188L35.9375 59.8438C35.7812 60 35.6641 60.1693 35.5859 60.3516C35.5078 60.5339 35.4688 60.7292 35.4688 60.9375C35.4688 61.3542 35.638 61.7188 35.9766 62.0312C36.3151 62.3438 36.6927 62.5 37.1094 62.5ZM37.0312 68.75C35.1042 68.75 33.3984 68.112 31.9141 66.8359C30.4297 65.5599 29.5573 63.9583 29.2969 62.0312C27.526 61.7708 26.0417 61.0417 24.8438 59.8438C23.6458 58.6458 22.9167 57.1615 22.6562 55.3906C20.8854 55.1302 19.4141 54.388 18.2422 53.1641C17.0703 51.9401 16.3542 50.4688 16.0938 48.75C14.1146 48.4896 12.5 47.6302 11.25 46.1719C10 44.7135 9.375 42.9948 9.375 41.0156C9.375 39.974 9.57031 38.9714 9.96094 38.0078C10.3516 37.0443 10.9115 36.1979 11.6406 35.4688L29.7656 17.4219L40 27.6562C40.1042 27.8125 40.2604 27.9297 40.4688 28.0078C40.6771 28.0859 40.8854 28.125 41.0938 28.125C41.5625 28.125 41.9531 27.9818 42.2656 27.6953C42.5781 27.4089 42.7344 27.0312 42.7344 26.5625C42.7344 26.3542 42.6953 26.1458 42.6172 25.9375C42.5391 25.7292 42.4219 25.5729 42.2656 25.4688L31.0938 14.2969C30.5208 13.6719 29.8568 13.2161 29.1016 12.9297C28.3464 12.6432 27.5521 12.5 26.7188 12.5C25.9375 12.5 25.1562 12.6432 24.375 12.9297C23.5938 13.2161 22.8906 13.6719 22.2656 14.2969L11.25 25.3906C10.7813 25.8594 10.3906 26.4062 10.0781 27.0312C9.76563 27.6562 9.55729 28.2812 9.45313 28.9062C9.34896 29.5312 9.34896 30.1693 9.45313 30.8203C9.55729 31.4714 9.76563 32.0833 10.0781 32.6562L5.54688 37.1875C4.66146 35.9896 4.01042 34.6745 3.59375 33.2422C3.17708 31.8099 3.02083 30.3646 3.125 28.9062C3.22917 27.4479 3.59375 26.0286 4.21875 24.6484C4.84375 23.2682 5.70313 22.0313 6.79688 20.9375L17.8125 9.92188C19.0625 8.72396 20.4557 7.8125 21.9922 7.1875C23.5286 6.5625 25.1042 6.25 26.7188 6.25C28.3333 6.25 29.9089 6.5625 31.4453 7.1875C32.9818 7.8125 34.349 8.72396 35.5469 9.92188L36.4062 10.7812L37.2656 9.92188C38.5156 8.72396 39.9089 7.8125 41.4453 7.1875C42.9818 6.5625 44.5573 6.25 46.1719 6.25C47.7865 6.25 49.362 6.5625 50.8984 7.1875C52.4349 7.8125 53.8021 8.72396 55 9.92188L68.2031 23.125C69.401 24.3229 70.3125 25.7031 70.9375 27.2656C71.5625 28.8281 71.875 30.4167 71.875 32.0312C71.875 33.6458 71.5625 35.2214 70.9375 36.7578C70.3125 38.2943 69.401 39.6615 68.2031 40.8594L42.5781 66.4062C41.849 67.1354 41.0026 67.7083 40.0391 68.125C39.0755 68.5417 38.0729 68.75 37.0312 68.75Z" fill="url(#paint0_linear_157_1138)"/>
</g>
<defs>
<linearGradient id="paint0_linear_157_1138" x1="37.4844" y1="6.25" x2="37.4844" y2="68.75" gradientUnits="userSpaceOnUse">
<stop stop-color="#8898F8"/>
<stop offset="1" stop-color="#A581F8"/>
</linearGradient>
</defs>
</svg>
