<svg width="13" height="13" viewBox="0 0 13 13" fill="none" xmlns="http://www.w3.org/2000/svg">
<path d="M12.1875 6.49995C12.1879 6.63788 12.1525 6.77356 12.0849 6.89378C12.0172 7.014 11.9197 7.11467 11.8016 7.186L4.48503 11.6619C4.36168 11.7374 4.22039 11.7786 4.07577 11.7813C3.93115 11.784 3.78844 11.748 3.66237 11.6771C3.53751 11.6073 3.43349 11.5055 3.36102 11.3821C3.28855 11.2588 3.25024 11.1184 3.25003 10.9753V2.0246C3.25024 1.88154 3.28855 1.74112 3.36102 1.61777C3.43349 1.49443 3.53751 1.39262 3.66237 1.3228C3.78844 1.25188 3.93115 1.21591 4.07577 1.21858C4.22039 1.22126 4.36168 1.2625 4.48503 1.33803L11.8016 5.81389C11.9197 5.88523 12.0172 5.9859 12.0849 6.10612C12.1525 6.22634 12.1879 6.36201 12.1875 6.49995Z" fill="white"/>
</svg>
