<svg width="21" height="21" viewBox="0 0 21 21" fill="none" xmlns="http://www.w3.org/2000/svg">
<path d="M19.3373 10.579C19.3379 10.7971 19.2819 11.0117 19.175 11.2018C19.0681 11.3919 18.9137 11.5511 18.727 11.6639L7.1569 18.7419C6.96183 18.8613 6.73841 18.9265 6.50972 18.9308C6.28102 18.935 6.05534 18.8781 5.85598 18.766C5.65852 18.6556 5.49404 18.4946 5.37943 18.2995C5.26483 18.1045 5.20425 17.8824 5.20392 17.6562V3.50187C5.20425 3.27564 5.26483 3.05359 5.37943 2.85853C5.49404 2.66348 5.65852 2.50248 5.85598 2.39207C6.05534 2.27993 6.28102 2.22304 6.50972 2.22727C6.73841 2.23151 6.96183 2.29672 7.1569 2.41617L18.727 9.49412C18.9137 9.60692 19.0681 9.76612 19.175 9.95623C19.2819 10.1463 19.3379 10.3609 19.3373 10.579Z" fill="white"/>
</svg>
