<svg width="32" height="32" viewBox="0 0 32 32" fill="none" xmlns="http://www.w3.org/2000/svg">
<path d="M29.3333 22V26C29.3333 27.84 27.84 29.3334 26 29.3334H16.48C15.2933 29.3334 14.7066 27.9067 15.5333 27.0667L23.36 19.0667C23.6133 18.8134 23.96 18.6667 24.3066 18.6667H26C27.84 18.6667 29.3333 20.16 29.3333 22Z" fill="url(#paint0_linear_154_346)"/>
<path d="M24.4934 15.0533L20.8801 18.6667L17.6001 21.9333C16.7601 22.7733 15.3201 22.1867 15.3201 21C15.3201 16.72 15.3201 9.68001 15.3201 9.68001C15.3201 9.32001 15.4667 8.98667 15.7067 8.73334L16.9334 7.50667C18.2401 6.20001 20.3467 6.20001 21.6534 7.50667L24.4801 10.3333C25.8001 11.64 25.8001 13.7467 24.4934 15.0533Z" fill="url(#paint1_linear_154_346)"/>
<path d="M10.0001 2.66669H6.00008C4.00008 2.66669 2.66675 4.00002 2.66675 6.00002V24C2.66675 24.36 2.70675 24.72 2.77341 25.0667C2.81341 25.24 2.85341 25.4134 2.90675 25.5867C2.97341 25.7867 3.04008 25.9867 3.12008 26.1734C3.13341 26.1867 3.13341 26.2 3.13341 26.2C3.14675 26.2 3.14675 26.2 3.13341 26.2134C3.32008 26.5867 3.53341 26.9467 3.78675 27.28C3.93341 27.4534 4.08008 27.6134 4.22675 27.7734C4.37341 27.9334 4.53341 28.0667 4.70675 28.2L4.72008 28.2134C5.05341 28.4667 5.41341 28.68 5.78675 28.8667C5.80008 28.8534 5.80008 28.8534 5.80008 28.8667C6.00008 28.96 6.20008 29.0267 6.41341 29.0934C6.58675 29.1467 6.76008 29.1867 6.93341 29.2267C7.28008 29.2934 7.64008 29.3334 8.00008 29.3334C8.54675 29.3334 9.10675 29.2534 9.62675 29.08C9.77341 29.0267 9.92008 28.9734 10.0667 28.9067C10.5334 28.72 10.9867 28.4534 11.3867 28.1067C11.5067 28.0134 11.6401 27.8934 11.7601 27.7734L11.8134 27.72C12.7467 26.76 13.3334 25.44 13.3334 24V6.00002C13.3334 4.00002 12.0001 2.66669 10.0001 2.66669ZM8.00008 26C6.89341 26 6.00008 25.1067 6.00008 24C6.00008 22.8934 6.89341 22 8.00008 22C9.10675 22 10.0001 22.8934 10.0001 24C10.0001 25.1067 9.10675 26 8.00008 26Z" fill="url(#paint2_linear_154_346)"/>
<defs>
<linearGradient id="paint0_linear_154_346" x1="22.2403" y1="18.6667" x2="22.2403" y2="29.3334" gradientUnits="userSpaceOnUse">
<stop stop-color="#8898F8"/>
<stop offset="1" stop-color="#A581F8"/>
</linearGradient>
<linearGradient id="paint1_linear_154_346" x1="20.3959" y1="6.52667" x2="20.3959" y2="22.3286" gradientUnits="userSpaceOnUse">
<stop stop-color="#8898F8"/>
<stop offset="1" stop-color="#A581F8"/>
</linearGradient>
<linearGradient id="paint2_linear_154_346" x1="8.00008" y1="2.66669" x2="8.00008" y2="29.3334" gradientUnits="userSpaceOnUse">
<stop stop-color="#8898F8"/>
<stop offset="1" stop-color="#A581F8"/>
</linearGradient>
</defs>
</svg>
