<svg width="32" height="32" viewBox="0 0 32 32" fill="none" xmlns="http://www.w3.org/2000/svg">
<path d="M27.8801 14.8266V8.9733C27.8801 7.87997 27.0535 6.63997 26.0268 6.22664L18.6001 3.18664C16.9335 2.50664 15.0535 2.50664 13.3868 3.18664L5.96012 6.22664C4.94678 6.63997 4.12012 7.87997 4.12012 8.9733V14.8266C4.12012 21.3466 8.85345 27.4533 15.3201 29.24C15.7601 29.36 16.2401 29.36 16.6801 29.24C23.1468 27.4533 27.8801 21.3466 27.8801 14.8266ZM17.0001 17.16V20.6666C17.0001 21.2133 16.5468 21.6666 16.0001 21.6666C15.4535 21.6666 15.0001 21.2133 15.0001 20.6666V17.16C13.6535 16.7333 12.6668 15.48 12.6668 14C12.6668 12.16 14.1601 10.6666 16.0001 10.6666C17.8401 10.6666 19.3335 12.16 19.3335 14C19.3335 15.4933 18.3468 16.7333 17.0001 17.16Z" fill="url(#paint0_linear_154_352)"/>
<defs>
<linearGradient id="paint0_linear_154_352" x1="16.0001" y1="2.67664" x2="16.0001" y2="29.33" gradientUnits="userSpaceOnUse">
<stop stop-color="#8998F8"/>
<stop offset="1" stop-color="#A581F8"/>
</linearGradient>
</defs>
</svg>
