<svg width="32" height="32" viewBox="0 0 32 32" fill="none" xmlns="http://www.w3.org/2000/svg">
<path d="M21.3333 2.62665H10.6666C5.33329 2.62665 2.66663 5.29331 2.66663 10.6266V17.2933C2.66663 23.96 5.33329 25.2933 10.6666 25.2933H11.3333C11.7066 25.2933 12.1866 25.5333 12.4 25.8266L14.4 28.4933C15.28 29.6666 16.72 29.6666 17.6 28.4933L19.6 25.8266C19.8533 25.4933 20.2533 25.2933 20.6666 25.2933H21.3333C26.6666 25.2933 29.3333 22.6266 29.3333 17.2933V10.6266C29.3333 5.29331 26.6666 2.62665 21.3333 2.62665ZM11.3733 16.2266C11.76 16.6133 11.76 17.2533 11.3733 17.64C11.1733 17.84 10.92 17.9333 10.6666 17.9333C10.4133 17.9333 10.16 17.84 9.95996 17.64L7.29329 14.9733C6.90663 14.5866 6.90663 13.9466 7.29329 13.56L9.95996 10.8933C10.3466 10.5066 10.9866 10.5066 11.3733 10.8933C11.76 11.28 11.76 11.92 11.3733 12.3066L9.41329 14.2666L11.3733 16.2266ZM18.2533 11.5466L15.5866 17.7733C15.4266 18.1466 15.0533 18.3733 14.6666 18.3733C14.5333 18.3733 14.4 18.3466 14.2666 18.2933C13.76 18.08 13.52 17.4933 13.7466 16.9733L16.4133 10.7466C16.6266 10.24 17.2133 9.99998 17.7333 10.2266C18.24 10.4533 18.4666 11.04 18.2533 11.5466ZM24.7066 14.9733L22.04 17.64C21.84 17.84 21.5866 17.9333 21.3333 17.9333C21.08 17.9333 20.8266 17.84 20.6266 17.64C20.24 17.2533 20.24 16.6133 20.6266 16.2266L22.5866 14.2666L20.6266 12.3066C20.24 11.92 20.24 11.28 20.6266 10.8933C21.0133 10.5066 21.6533 10.5066 22.04 10.8933L24.7066 13.56C25.0933 13.9466 25.0933 14.5866 24.7066 14.9733Z" fill="url(#paint0_linear_154_326)"/>
<defs>
<linearGradient id="paint0_linear_154_326" x1="16" y1="2.62665" x2="16" y2="29.3733" gradientUnits="userSpaceOnUse">
<stop stop-color="#8998F8"/>
<stop offset="1" stop-color="#A581F8"/>
</linearGradient>
</defs>
</svg>
