<svg width="32" height="32" viewBox="0 0 32 32" fill="none" xmlns="http://www.w3.org/2000/svg">
<path d="M16 15.3734C12.32 15.3734 9.33337 18.36 9.33337 22.04C9.33337 23.0267 9.54671 23.96 9.94671 24.7867C10.0534 25.0267 10.1734 25.2534 10.3067 25.4667C11.4534 27.4 13.5734 28.7067 16 28.7067C18.4267 28.7067 20.5467 27.4 21.6934 25.4667C21.8267 25.2534 21.9467 25.0267 22.0534 24.7867C22.4534 23.96 22.6667 23.0267 22.6667 22.04C22.6667 18.36 19.68 15.3734 16 15.3734ZM18.76 21.4667L15.92 24.0934C15.7334 24.2667 15.48 24.36 15.24 24.36C14.9867 24.36 14.7334 24.2667 14.5334 24.0667L13.2134 22.7467C12.8267 22.36 12.8267 21.72 13.2134 21.3334C13.6 20.9467 14.24 20.9467 14.6267 21.3334L15.2667 21.9734L17.4 20C17.8134 19.6267 18.44 19.6534 18.8134 20.0534C19.1867 20.4534 19.16 21.08 18.76 21.4667Z" fill="url(#paint0_linear_154_312)"/>
<path d="M26.9338 22.76C26.4538 23.1867 25.9338 23.5467 25.3738 23.84C24.8938 24.08 24.4138 23.6133 24.4938 23.08C24.5471 22.6933 24.5738 22.2933 24.5738 21.88C24.5738 17.1067 20.6805 13.2133 15.9071 13.2133C11.1338 13.2133 7.24046 17.1067 7.24046 21.88C7.24046 22.4933 7.30713 23.08 7.42713 23.6533C7.52046 24.12 7.16046 24.5867 6.69379 24.4667C1.42713 23.1867 1.40046 15.08 7.29379 14.6667H7.36046C3.08046 2.75999 21.1338 -2.00001 23.2005 10.5067C28.9738 11.24 31.3071 18.9333 26.9338 22.76Z" fill="url(#paint1_linear_154_312)"/>
<defs>
<linearGradient id="paint0_linear_154_312" x1="16" y1="15.3734" x2="16" y2="28.7067" gradientUnits="userSpaceOnUse">
<stop stop-color="#8898F8"/>
<stop offset="1" stop-color="#A581F8"/>
</linearGradient>
<linearGradient id="paint1_linear_154_312" x1="16.004" y1="3.13342" x2="16.004" y2="24.4858" gradientUnits="userSpaceOnUse">
<stop stop-color="#8898F8"/>
<stop offset="1" stop-color="#A581F8"/>
</linearGradient>
</defs>
</svg>
