<svg width="1172" height="223" viewBox="0 0 1172 223" fill="none" xmlns="http://www.w3.org/2000/svg">
<g clip-path="url(#clip0_2345_315)">
<g filter="url(#filter0_d_2345_315)">
<path d="M1051.65 35.2607C1041.91 35.2607 1034.02 27.3673 1034.02 17.6303V17.6303C1034.02 7.89337 1026.12 0 1016.39 0H20C8.95434 0 0 8.95431 0 20V187.276C0 198.321 8.95431 207.276 20 207.276H48.9753H139.49C143.832 207.276 147.352 210.796 147.352 215.138V215.138C147.352 219.48 150.872 223 155.214 223H1085.12C1092.88 223 1099.18 216.707 1099.18 208.943V208.943C1099.18 201.18 1105.47 194.887 1113.23 194.887H1152C1163.05 194.887 1172 185.932 1172 174.887V55.2607C1172 44.215 1163.05 35.2607 1152 35.2607H1051.65Z" fill="url(#paint0_linear_2345_315)"/>
</g>
<path d="M365.804 939.758C236.117 839.246 119.831 615.175 242.351 489.053C355.946 372.118 415.061 501.652 546.567 427.132C678.072 352.611 613.183 137.011 763.258 84.3722C850.365 53.8194 956.645 103.02 1012.86 215.495C1069.07 327.971 1075.21 503.722 962.05 726.27C855.155 936.493 724.928 1004.46 612.008 1012.58C499.088 1020.69 403.474 968.954 365.804 939.758Z" stroke="white" stroke-opacity="0.1" stroke-width="2" stroke-miterlimit="10"/>
<path d="M946.531 726.149C848.754 919.119 729.397 982.385 625.467 990.473C522.214 998.33 434.462 951.666 398.937 924.767C278.301 832.8 169.868 626.246 279.583 507.247C380.888 397.37 435.686 510.852 556.257 441.324C559.684 439.332 562.971 437.241 566.128 435.058C651.67 375.954 640.633 247.921 698.108 173.919C713.711 153.831 734.282 137.62 763.073 127.929C845.887 100.055 944.003 146.467 995.362 250.809C1046.87 355.727 1051.06 519.428 946.531 726.149Z" stroke="white" stroke-opacity="0.1" stroke-width="2" stroke-miterlimit="10"/>
<path d="M931.013 726.029C842.353 901.745 733.866 960.308 638.926 968.368C545.34 975.967 465.374 934.496 432.073 909.775C320.226 826.75 219.9 637.352 316.817 525.441C405.83 422.655 456.524 520.456 565.949 455.515C569.103 453.643 572.122 451.662 575.033 449.611C653.719 394.318 647.446 278.737 702.105 212.616C717.03 194.562 736.337 179.999 762.889 171.486C841.424 146.307 931.363 189.915 977.87 286.123C1024.66 383.484 1026.91 535.133 931.013 726.029Z" stroke="white" stroke-opacity="0.1" stroke-width="2" stroke-miterlimit="10"/>
<path d="M915.494 725.909C835.951 884.371 738.355 938.487 652.383 946.264C568.484 953.854 496.33 917.262 465.206 894.785C362.308 820.474 269.927 648.506 354.049 543.635C430.773 447.986 477.246 529.826 575.638 469.706C578.516 467.948 581.271 466.083 583.937 464.165C655.766 412.682 654.282 309.558 706.1 251.314C720.353 235.294 738.397 222.393 762.704 215.043C836.978 192.584 918.72 233.362 960.377 321.436C1002.46 411.241 1002.75 550.84 915.494 725.909Z" stroke="white" stroke-opacity="0.1" stroke-width="2" stroke-miterlimit="10"/>
<path d="M899.975 725.789C829.826 867.153 742.831 916.484 665.841 924.16C591.617 931.56 527.292 900.022 498.338 879.794C404.414 814.172 319.956 659.724 391.281 561.829C455.725 473.378 497.958 539.166 585.328 483.899C587.93 482.253 590.42 480.504 592.84 478.72C657.813 431.047 661.148 340.386 710.095 290.012C723.684 276.027 740.465 264.806 762.518 258.601C832.553 238.895 906.271 276.71 942.881 356.75C980.457 438.896 978.909 566.721 899.975 725.789Z" stroke="white" stroke-opacity="0.1" stroke-width="2" stroke-miterlimit="10"/>
<path d="M884.456 725.669C823.47 849.803 747.31 894.472 679.299 902.056C614.751 909.254 558.262 882.774 531.472 864.803C446.551 807.834 370.001 671.029 428.514 580.023C480.704 498.85 518.658 548.465 595.019 498.09C597.345 496.555 599.571 494.924 601.745 493.273C659.862 449.411 668.054 371.228 714.092 328.709C727.027 316.762 742.544 307.241 762.333 302.158C828.154 285.252 893.662 320.145 925.389 392.064C958.289 466.64 954.814 582.458 884.456 725.669Z" stroke="white" stroke-opacity="0.1" stroke-width="2" stroke-miterlimit="10"/>
</g>
<defs>
<filter id="filter0_d_2345_315" x="-4" y="0" width="1180" height="231" filterUnits="userSpaceOnUse" color-interpolation-filters="sRGB">
<feFlood flood-opacity="0" result="BackgroundImageFix"/>
<feColorMatrix in="SourceAlpha" type="matrix" values="0 0 0 0 0 0 0 0 0 0 0 0 0 0 0 0 0 0 127 0" result="hardAlpha"/>
<feOffset dy="4"/>
<feGaussianBlur stdDeviation="2"/>
<feComposite in2="hardAlpha" operator="out"/>
<feColorMatrix type="matrix" values="0 0 0 0 0 0 0 0 0 0 0 0 0 0 0 0 0 0 0.25 0"/>
<feBlend mode="normal" in2="BackgroundImageFix" result="effect1_dropShadow_2345_315"/>
<feBlend mode="normal" in="SourceGraphic" in2="effect1_dropShadow_2345_315" result="shape"/>
</filter>
<linearGradient id="paint0_linear_2345_315" x1="1172" y1="111.5" x2="0" y2="111.5" gradientUnits="userSpaceOnUse">
<stop stop-color="#A881F8"/>
<stop offset="1" stop-color="#869BF8"/>
</linearGradient>
<clipPath id="clip0_2345_315">
<rect width="1172" height="223" fill="white"/>
</clipPath>
</defs>
</svg>
