<svg width="168" height="49" viewBox="0 0 168 49" fill="none" xmlns="http://www.w3.org/2000/svg">
<g clip-path="url(#clip0_3_1399)">
<mask id="mask0_3_1399" style="mask-type:luminance" maskUnits="userSpaceOnUse" x="0" y="0" width="168" height="49">
<path d="M0 0H167.249V48.0841H0V0Z" fill="white"/>
</mask>
<g mask="url(#mask0_3_1399)">
<path fill-rule="evenodd" clip-rule="evenodd" d="M39.0523 0.671241H55.0233C55.8257 0.671241 56.4575 1.31523 56.4575 2.07083V2.68648C56.4575 3.47043 55.7971 4.08607 55.0233 4.08607H41.1745V10.495H47.9988C51.0093 10.495 53.3603 11.139 55.0527 12.3986C55.941 13.0701 56.629 13.9098 57.0589 14.9179C57.4896 15.8967 57.7183 16.9889 57.7183 18.2202C57.7183 20.8228 56.8006 22.8106 54.9661 24.1818C54.077 24.8533 53.0163 25.3573 51.7546 25.6647C50.55 25.9729 49.1739 26.1412 47.6548 26.1412H39.0809C38.2784 26.1412 37.6476 25.4973 37.6476 24.7416V2.07083C37.619 1.31523 38.2498 0.671241 39.0523 0.671241ZM25.1749 26.2812C23.9769 26.2845 22.7829 26.1432 21.6194 25.8605C20.4434 25.5814 19.5829 25.2165 18.5231 24.6858C18.1505 24.4892 17.6912 24.5742 17.3757 24.8533L16.6305 25.6089C16.5733 25.6647 16.4866 25.7488 16.4008 25.7772C16.2501 25.8618 16.0851 25.9186 15.9138 25.9446C15.6556 25.9729 15.4259 26.0846 15.283 26.2812C15.283 26.2812 6.9387 35.9367 6.19258 36.8048C5.13275 38.0361 3.78523 38.2602 2.60928 37.8678C2.06316 37.6753 1.56455 37.37 1.1465 36.9722C0.74528 36.5806 0.401249 36.0766 0.229667 35.5451C-0.173291 34.3971 0.0286212 33.0542 1.29036 32.0187L12.0428 23.1179C12.243 22.9505 12.3583 22.6981 12.3869 22.474C12.4155 22.3065 12.4735 22.1666 12.5584 22.0266C12.6156 21.9425 12.6737 21.8867 12.7309 21.8034L13.4476 21.1027C13.7916 20.7678 13.8202 20.2913 13.5619 19.9272C12.9891 18.9484 12.587 17.9687 12.2716 16.8765C11.9807 15.7516 11.8363 14.5945 11.8418 13.4333C11.8418 12.2587 11.9856 11.1107 12.2725 9.99184C12.5584 8.87216 13.0177 7.83664 13.5905 6.85692C14.1642 5.87721 14.8817 5.00998 15.6842 4.22603C16.4866 3.44209 17.4043 2.79811 18.4078 2.23913C19.4278 1.6804 20.5175 1.25689 21.6488 0.979495C22.8118 0.695141 24.0057 0.553831 25.2035 0.558759C26.9237 0.558759 28.558 0.839536 30.078 1.37104C30.8519 1.65096 31.5685 1.98669 32.2566 2.40656C32.9322 2.81928 33.5576 3.30762 34.1206 3.86197C34.2565 3.99005 34.3646 4.14416 34.4386 4.31494C34.5125 4.48572 34.5506 4.6696 34.5506 4.85542C34.5506 5.04124 34.5125 5.22512 34.4386 5.3959C34.3646 5.56668 34.2565 5.72079 34.1206 5.84887L33.7766 6.24127C33.261 6.82859 32.3432 6.91273 31.741 6.38123L31.6838 6.32542C30.8519 5.54148 29.9056 4.95331 28.8449 4.5901C27.7556 4.1977 26.5511 4.00193 25.1749 4.00193C23.3118 4.00193 21.648 4.4218 20.1575 5.23322C19.4319 5.63715 18.7578 6.12577 18.1496 6.68863C17.5597 7.26364 17.0489 7.91322 16.6305 8.62058C16.2117 9.33309 15.8842 10.0946 15.6556 10.8874C15.4545 11.6705 15.3402 12.5102 15.3402 13.4058C15.3402 15.1695 15.77 16.7648 16.6305 18.1919C17.049 18.8992 17.5597 19.5488 18.1496 20.1239C18.7451 20.7015 19.4213 21.1914 20.1575 21.5784C21.648 22.4182 23.3118 22.8106 25.1749 22.8106C26.5225 22.8106 27.727 22.6139 28.8163 22.2224C29.8827 21.8332 30.8582 21.2335 31.6838 20.4596C31.9637 20.2046 32.3329 20.0678 32.713 20.0782C33.0931 20.0886 33.4541 20.2455 33.7194 20.5154C33.748 20.5429 33.748 20.5712 33.7766 20.5712L34.1778 21.0186C34.6657 21.5784 34.6371 22.4182 34.092 22.9222C33.5278 23.4748 32.9029 23.963 32.2289 24.3776C31.5399 24.7975 30.8233 25.1332 30.0494 25.4131C29.2747 25.693 28.5008 25.8888 27.6689 26.0288C26.8487 26.1986 26.0129 26.2832 25.1749 26.2812ZM20.1289 11.1673C20.2146 10.999 20.3004 10.8307 20.3862 10.6908C20.4729 10.5517 20.5873 10.4117 20.6731 10.2434C20.7295 10.169 20.7699 10.0839 20.7919 9.99343C20.8139 9.90294 20.817 9.80894 20.8009 9.71723C20.7848 9.62552 20.7499 9.53805 20.6985 9.4602C20.647 9.38235 20.5799 9.31577 20.5015 9.26456C20.4249 9.20911 20.3379 9.16939 20.2456 9.14777C20.1534 9.12614 20.0576 9.12304 19.9641 9.13864C19.8706 9.15425 19.7812 9.18824 19.7011 9.23862C19.6211 9.28901 19.552 9.35476 19.498 9.432C19.3827 9.59944 19.2397 9.79521 19.1254 9.99184C19.0101 10.1876 18.8957 10.3834 18.8099 10.5792C18.6366 10.9432 18.8099 11.3348 19.1531 11.5031C19.5257 11.6705 19.9564 11.5031 20.128 11.1673H20.1289ZM22.3074 18.0794C21.4755 17.5763 20.7875 16.9048 20.329 16.0925C19.8625 15.2826 19.6156 14.3667 19.6124 13.4341C19.6124 13.2942 19.6124 13.1259 19.641 12.9859C19.6488 12.8932 19.6378 12.7999 19.6087 12.7114C19.5796 12.6229 19.533 12.5411 19.4716 12.4707C19.4101 12.4004 19.3352 12.3429 19.251 12.3016C19.1669 12.2603 19.0752 12.2361 18.9815 12.2303C18.5803 12.2028 18.2363 12.4828 18.2077 12.8743C18.1782 13.0701 18.1782 13.2384 18.1782 13.4067C18.1782 14.6088 18.4936 15.7568 19.0968 16.764C19.6891 17.7905 20.5381 18.6486 21.5622 19.2558C21.7252 19.3503 21.9194 19.3769 22.1021 19.3297C22.2849 19.2825 22.4413 19.1655 22.5371 19.0042C22.7658 18.6959 22.6515 18.2752 22.3074 18.0794ZM97.6025 0.6721C99.1797 0.6721 100.584 0.867871 101.818 1.23194C103.136 1.62348 104.255 2.18332 105.201 2.96726C106.176 3.77868 106.922 4.73092 107.437 5.84973C107.925 6.94193 108.154 8.17323 108.154 9.54448C108.154 10.9157 107.925 12.147 107.437 13.2392C106.95 14.3589 106.204 15.3103 105.201 16.1217C104.255 16.9056 103.108 17.4655 101.818 17.857C100.556 18.2211 99.1511 18.4169 97.6025 18.4169H96.9144C96.7714 17.4655 96.8572 16.29 97.2013 14.9737H97.6597C98.8928 14.9737 99.9249 14.8346 100.843 14.5822C101.675 14.3306 102.391 13.9948 102.965 13.5192C103.499 13.0825 103.922 12.5263 104.197 11.8963C104.484 11.224 104.628 10.4401 104.628 9.54448C104.628 7.81002 104.083 6.46538 102.965 5.56981C102.391 5.09412 101.675 4.75839 100.843 4.50681C99.9535 4.25437 98.8928 4.11441 97.6597 4.11441H91.8398V14.9746H95.5383C95.1371 16.2059 94.936 17.3813 94.936 18.4169H91.8103V24.7708C91.8103 25.5539 91.1508 26.1704 90.377 26.1704H89.7175C88.9151 26.1704 88.2842 25.5264 88.2842 24.7708V2.09831C88.2842 1.31437 88.9437 0.698718 89.7175 0.698718H97.6025V0.6721ZM72.5428 26.2812C71.3448 26.2845 70.1508 26.1432 68.9873 25.8605C67.856 25.5834 66.7663 25.1601 65.7463 24.6017C64.7597 24.0526 63.8451 23.3849 63.0235 22.6139C62.2202 21.8308 61.5035 20.9627 60.9299 19.983C60.3562 19.0042 59.8978 17.9687 59.6109 16.849C59.3201 15.7241 59.1756 14.567 59.1811 13.4058C59.1811 12.2303 59.3241 11.0832 59.6109 9.9635C59.8978 8.84383 60.3562 7.8083 60.9299 6.82945C61.5035 5.84887 62.2211 4.98164 63.0226 4.1977C63.826 3.41461 64.7437 2.77063 65.7472 2.21079C66.7669 1.65211 67.8562 1.22861 68.9873 0.95116C70.1506 0.667314 71.3448 0.526581 72.5428 0.532141C73.7751 0.532141 74.9511 0.6721 76.0975 0.952877C77.2449 1.23194 78.3056 1.65181 79.3385 2.21165C80.3254 2.76047 81.2402 3.42781 82.0622 4.19856C82.8646 4.9825 83.5813 5.84973 84.155 6.82945C85.3309 8.78887 85.9037 10.9716 85.9037 13.3792C85.9037 15.786 85.3309 17.9695 84.155 19.9281C83.5813 20.9078 82.8646 21.7759 82.0622 22.559C81.2589 23.3429 80.3412 23.9869 79.3377 24.5467C78.3179 25.1051 77.2286 25.5283 76.0975 25.8055C74.9511 26.1421 73.7751 26.2812 72.5428 26.2812ZM72.5428 22.838C74.406 22.838 76.0698 22.4182 77.5603 21.6067C78.2856 21.2027 78.9594 20.7141 79.5673 20.1513C80.1505 19.5807 80.661 18.9414 81.0873 18.2477C81.5171 17.5204 81.8325 16.7648 82.0622 15.9809C82.2624 15.1978 82.3776 14.3297 82.3776 13.4341C82.3776 12.5386 82.2624 11.6705 82.0622 10.8874C81.8611 10.1035 81.5171 9.34785 81.0873 8.62058C80.6683 7.92194 80.1571 7.28176 79.5673 6.71696C78.9703 6.14122 78.2947 5.65131 77.5603 5.26156C76.823 4.84854 76.0319 4.53768 75.2093 4.33766C74.3357 4.13232 73.4407 4.02915 72.5428 4.03026C70.6788 4.03026 69.0159 4.45014 67.5254 5.26156C66.7998 5.66546 66.1257 6.15408 65.5175 6.71696C64.9343 7.28731 64.4239 7.92633 63.9975 8.61972C63.579 9.33228 63.2518 10.0938 63.0235 10.8865C62.813 11.7196 62.707 12.5753 62.7081 13.4341C62.7081 15.2253 63.1379 16.8206 63.9984 18.2477C64.4172 18.9463 64.928 19.5865 65.5175 20.1513C66.1145 20.7271 66.7901 21.217 67.5245 21.6067C69.015 22.4182 70.7083 22.838 72.5428 22.838ZM47.7397 22.7539C48.9148 22.7539 49.9477 22.6423 50.7788 22.4465C51.5535 22.2507 52.2121 21.9708 52.7 21.5793C53.1593 21.2427 53.5033 20.7953 53.7321 20.2913C53.9903 19.7315 54.1047 19.0875 54.1047 18.3044C54.1047 17.5488 53.9903 16.8765 53.7321 16.345C53.5033 15.8409 53.187 15.4211 52.7286 15.1137C52.2416 14.7496 51.6107 14.4697 50.8074 14.2739C49.9477 14.0781 48.9148 13.9656 47.7111 13.9656H41.1165V22.7539H47.7397Z" fill="url(#paint0_linear_3_1399)"/>
<path fill-rule="evenodd" clip-rule="evenodd" d="M134.792 0.532137C134.075 1.76343 118.448 30.8707 129.773 22.9222C129.917 22.838 130.032 22.7539 130.118 22.6706L130.089 22.3907C129.974 21.3551 129.917 20.3754 129.974 19.4799C130.024 18.6568 130.159 17.8409 130.376 17.0447C130.605 16.2891 130.921 15.6452 131.293 15.1128C131.978 14.1208 132.919 13.3286 134.017 12.8185C135.164 12.2861 136.397 12.0904 137.515 12.2028C138.015 12.255 138.506 12.3677 138.978 12.5386C139.42 12.7002 139.836 12.9265 140.21 13.21C140.59 13.4921 140.911 13.8436 141.157 14.2456C141.386 14.638 141.558 15.0578 141.645 15.5335C141.845 16.5965 141.616 17.912 140.813 19.4232C140.125 20.7395 138.978 22.2224 137.286 23.8177C137.228 23.8736 137.143 23.9019 137.085 23.8736L136.483 23.6503C136.455 23.6503 136.455 23.622 136.426 23.622C136.34 23.5662 136.34 23.4537 136.426 23.3704C136.759 22.9853 137.085 22.5931 137.401 22.194C137.716 21.8025 137.975 21.4384 138.203 21.0752C138.72 20.2913 139.121 19.6198 139.379 18.9758C139.627 18.4146 139.791 17.8209 139.866 17.213C139.895 16.7365 139.866 16.3449 139.723 15.9809C139.598 15.6398 139.379 15.3397 139.092 15.1137C139.049 15.0927 139.011 15.0642 138.978 15.0295C138.92 15.0012 138.891 14.9737 138.834 14.9454C138.462 14.7221 138.089 14.5822 137.688 14.498C137.282 14.4144 136.868 14.3861 136.455 14.4139C135.971 14.4655 135.497 14.5882 135.05 14.7779C134.575 14.9839 134.139 15.2678 133.76 15.6177C133.328 16.0039 132.952 16.4464 132.641 16.9331C132.305 17.4582 132.036 18.022 131.838 18.6118C131.523 19.5357 131.35 20.5995 131.35 21.775C131.35 22.8655 131.494 24.0702 131.81 25.3856C131.838 25.3856 132.125 25.3015 132.182 25.3015L132.412 25.2457C132.469 25.2457 132.526 25.2173 132.584 25.2173L132.727 24.6017C132.785 24.3784 132.813 24.1809 132.87 23.986C132.928 23.7619 132.956 23.5653 133.013 23.3704C133.042 23.1738 133.1 22.978 133.129 22.7822C133.157 22.6423 133.186 22.5306 133.186 22.4181C133.214 22.3065 133.243 22.1666 133.243 22.0549C133.272 21.9433 133.272 21.8308 133.3 21.7184C133.329 21.6067 133.329 21.4951 133.329 21.411L133.157 21.3268L132.985 21.2427C132.928 21.2152 132.87 21.1594 132.842 21.131C132.785 21.1027 132.756 21.0469 132.698 21.0194C132.641 20.9627 132.555 20.9078 132.498 20.8228C132.441 20.767 132.383 20.6828 132.325 20.627C132.268 20.5429 132.24 20.4871 132.182 20.4038C132.154 20.3196 132.097 20.2355 132.067 20.1797C132.039 20.0955 132.01 20.0397 132.01 19.9556C131.981 19.8997 131.981 19.8156 131.981 19.7598V19.5082C131.981 19.4241 131.981 19.3674 132.01 19.3116V19.2274C132.01 19.1999 132.01 19.1716 132.038 19.1441C132.038 19.1158 132.067 19.0875 132.067 19.0875C132.067 19.06 132.097 19.0317 132.097 19.0042C132.097 18.9758 132.125 18.9475 132.125 18.9475C132.154 18.92 132.154 18.8917 132.182 18.8917L132.24 18.8359C132.268 18.8359 132.268 18.8075 132.297 18.8075H132.325C132.354 18.7801 132.383 18.7801 132.412 18.7801C132.441 18.7801 132.469 18.7517 132.498 18.7517C132.526 18.7517 132.555 18.7517 132.584 18.7243H132.785C132.813 18.7243 132.842 18.7243 132.842 18.7517C132.87 18.7517 132.899 18.7801 132.899 18.7801C132.997 18.8155 133.085 18.8728 133.157 18.9475C133.243 19.0042 133.3 19.0875 133.387 19.1716C133.444 19.2558 133.53 19.3399 133.587 19.4515C133.644 19.5632 133.701 19.6473 133.731 19.7873C133.76 19.8714 133.788 19.983 133.817 20.0672C133.845 20.1788 133.874 20.2638 133.874 20.3754C133.903 20.4871 133.903 20.5712 133.903 20.6828V21.1869C133.96 21.1869 133.988 21.2152 134.046 21.2152C134.104 21.2152 134.132 21.2427 134.189 21.2427C134.247 21.2427 134.275 21.2427 134.332 21.271H135.164C135.193 21.1869 135.25 21.0752 135.279 20.9911C135.307 20.9069 135.365 20.8228 135.394 20.7395C135.422 20.6553 135.48 20.5712 135.508 20.5154C135.565 20.4312 135.594 20.3471 135.623 20.2921C135.681 20.2071 135.738 20.0947 135.795 20.0114C135.852 19.9272 135.91 19.8431 135.995 19.7598C136.053 19.6756 136.111 19.6198 136.196 19.5357C136.254 19.4515 136.34 19.3957 136.397 19.3399C136.483 19.2841 136.54 19.2283 136.626 19.1716C136.713 19.1158 136.77 19.06 136.856 19.0317C136.913 19.0042 137 18.9758 137.057 18.9475C137.143 18.92 137.2 18.8917 137.257 18.8917H137.515C137.544 18.8917 137.601 18.92 137.63 18.9484C137.659 18.9758 137.716 18.9758 137.745 19.0042C137.796 19.0259 137.837 19.0657 137.859 19.1158C137.888 19.1441 137.916 19.1999 137.975 19.2558C138.003 19.2841 138.032 19.3116 138.032 19.3674C138.06 19.3957 138.06 19.4515 138.089 19.479C138.089 19.5073 138.118 19.564 138.118 19.5915V19.9272C138.118 19.9556 138.118 20.0114 138.089 20.0388C138.089 20.0672 138.06 20.123 138.06 20.1513C138.032 20.2071 138.003 20.2913 137.975 20.3471C137.945 20.4038 137.916 20.4871 137.859 20.5437C137.831 20.5995 137.774 20.6828 137.745 20.7395C137.688 20.7953 137.659 20.8511 137.601 20.9353L137.429 21.1027L137.257 21.271C137.2 21.3268 137.143 21.3551 137.085 21.411C137.029 21.4643 136.96 21.5027 136.884 21.5226C136.827 21.5509 136.741 21.6067 136.656 21.6342C136.569 21.6625 136.483 21.7184 136.426 21.7467L136.168 21.8308C136.085 21.8627 135.998 21.8815 135.91 21.8866L135.795 21.915H135.767C135.738 21.915 135.681 21.9425 135.651 21.9425L135.565 22.1666L135.48 22.4181C135.422 22.5581 135.365 22.7264 135.307 22.8938C135.25 23.0621 135.193 23.203 135.136 23.3704L135.021 23.7053L134.906 24.0702C134.906 24.0977 134.877 24.126 134.877 24.126C134.82 24.2101 134.706 24.2376 134.619 24.1535L134.332 23.9302C134.275 23.9019 134.247 23.8186 134.275 23.7336L134.419 23.3146C134.476 23.1463 134.505 23.0055 134.562 22.8664C134.619 22.6981 134.676 22.5306 134.734 22.3907C134.792 22.2507 134.849 22.0824 134.906 21.9425H134.734C134.648 21.9425 134.591 21.9425 134.505 21.915C134.419 21.915 134.362 21.8866 134.275 21.8866C134.189 21.8866 134.132 21.8592 134.046 21.8592C133.96 21.8308 133.903 21.8308 133.817 21.8025C133.817 21.9141 133.788 22.0266 133.788 22.1666C133.76 22.3065 133.76 22.4181 133.731 22.5581C133.701 22.6981 133.701 22.8106 133.673 22.9505L133.587 23.3704C133.558 23.482 133.53 23.6503 133.501 23.8177C133.473 23.986 133.444 24.126 133.415 24.266C133.391 24.4275 133.352 24.5866 133.3 24.7416L133.186 25.2457C133.357 25.2173 133.53 25.189 133.701 25.134C133.845 25.1057 134.046 25.0774 134.218 25.049C134.419 25.0216 134.591 24.9932 134.763 24.9658C134.935 24.9374 135.107 24.9091 135.336 24.8816C135.508 24.8533 135.709 24.8258 135.938 24.7975L136.54 24.7133H136.569L137.601 24.5733C137.659 24.5733 137.745 24.6017 137.773 24.6575L138.089 25.1615C138.118 25.189 138.118 25.2173 138.118 25.2457C138.118 25.329 138.032 25.4414 137.945 25.4414L137 25.5814L136.426 25.6655C136.254 25.693 136.082 25.7214 135.881 25.7488C135.709 25.7772 135.537 25.8055 135.336 25.833C135.136 25.8613 134.935 25.8888 134.792 25.9171C134.608 25.9437 134.426 25.981 134.247 26.0288C134.075 26.0571 133.903 26.0854 133.731 26.1404C133.071 26.2812 132.498 26.4212 131.924 26.5611C131.35 26.7011 130.806 26.8685 130.29 27.0368C130.204 27.0643 130.147 27.0368 130.089 26.9801L129.716 26.4486C129.716 26.4212 129.687 26.4212 129.687 26.3928C129.659 26.3087 129.745 26.1971 129.831 26.1696L130.204 26.0571H130.233L130.634 25.9455C130.462 25.2731 130.318 24.6575 130.204 24.0418C130.06 24.126 129.917 24.2376 129.745 24.3492C120.398 29.6952 125.272 17.0447 126.591 13.1826C124.182 16.3733 117.502 26.4486 113.631 26.4486C111.509 26.4486 110.477 25.4414 110.477 23.4537C110.477 19.4241 114.72 12.287 116.67 8.45228C117.359 6.99688 117.703 5.79306 117.703 4.84168C117.703 2.93892 116.47 1.98668 114.032 1.98668C111.394 1.98668 109.014 2.68648 106.95 3.86196C106.755 3.61568 106.544 3.38195 106.319 3.16217C108.813 1.7351 111.624 0.839532 114.663 0.839532C117.903 0.839532 119.509 2.1275 119.509 4.70172C119.509 5.96135 119.05 7.52838 118.133 9.432C116.47 12.5661 112.197 20.4312 112.197 23.6778C112.197 24.6017 112.541 25.0774 113.229 25.0774C119.136 25.0774 128.541 7.2768 131.838 1.37103C132.555 0.25136 135.422 -0.559202 134.792 0.532137ZM139.293 29.3594C139.293 28.8838 138.949 28.5764 138.404 28.4081C137.916 28.2681 137.257 28.2123 136.569 28.2123C135.852 28.2123 135.078 28.2964 134.448 28.3797C133.788 28.4639 133.243 28.5764 132.956 28.6038C131.981 28.7996 131.035 29.0246 130.118 29.332C129.2 29.6119 128.283 29.976 127.394 30.3675C126.495 30.7665 125.615 31.2055 124.756 31.6829C123.864 32.1583 122.994 32.6717 122.147 33.2216C120.994 33.9392 119.892 34.7342 118.849 35.6009C117.903 36.4124 117.129 37.2238 116.498 38.0644C115.906 38.8198 115.433 39.6592 115.093 40.5545C114.789 41.3698 114.633 42.2326 114.634 43.1021C114.634 43.4661 114.663 43.8293 114.72 44.1659C114.778 44.5008 114.892 44.8374 115.035 45.1173C115.179 45.4247 115.351 45.7046 115.552 45.9571C115.753 46.2086 115.982 46.4602 116.269 46.6843C116.527 46.9076 116.814 47.1051 117.129 47.2725C117.416 47.4399 117.731 47.5799 118.075 47.6924C118.419 47.804 118.763 47.8882 119.107 47.944C119.48 47.9998 119.853 48.0281 120.254 48.0281C121.257 48.0281 122.262 47.8598 123.237 47.5524C124.267 47.2192 125.242 46.7381 126.132 46.1245C127.149 45.4299 128.091 44.6328 128.942 43.746C129.86 42.7938 130.748 41.7025 131.637 40.4145C131.637 40.4145 131.637 40.387 131.666 40.387C132.154 39.7156 132.584 38.9874 133.013 38.2035C133.444 37.3921 133.874 36.5248 134.247 35.6018C134.648 34.6487 135.021 33.6698 135.365 32.5785C135.722 31.4494 136.047 30.3106 136.34 29.1637C136.512 29.1353 136.684 29.1353 136.827 29.1353H137.315C137.487 29.1353 137.659 29.1353 137.802 29.1637C137.945 29.1637 138.089 29.192 138.203 29.2195C138.319 29.2478 138.433 29.2753 138.519 29.3036C138.605 29.332 138.663 29.3594 138.72 29.3878H138.748C138.92 29.4994 138.978 29.5277 139.007 29.5552C139.025 29.5742 139.047 29.5891 139.072 29.5989C139.097 29.6086 139.123 29.6131 139.15 29.6119C139.207 29.6394 139.293 29.5552 139.293 29.3594ZM132.956 29.4711C132.98 29.5531 132.99 29.6384 132.985 29.7235C132.985 30.2559 132.526 30.7024 131.981 30.7024C131.551 30.7024 131.179 30.4233 131.035 30.0309L130.978 30.0592L130.892 30.0876C130.577 30.1992 130.261 30.3108 129.917 30.4516L128.885 30.8707C128.512 31.0106 128.168 31.1789 127.766 31.3747C127.394 31.543 127.021 31.7387 126.62 31.9345C125.128 32.6901 123.781 33.4183 122.634 34.1455C121.598 34.7985 120.619 35.5382 119.71 36.3565C118.477 37.5329 117.53 38.68 116.928 39.8272C116.326 40.9752 116.01 42.1223 116.01 43.242C116.01 43.5494 116.04 43.8577 116.097 44.1376C116.154 44.4175 116.211 44.6974 116.326 44.949C116.441 45.2015 116.555 45.4247 116.699 45.6488C116.842 45.8721 117.015 46.0687 117.243 46.2645C117.444 46.4602 117.674 46.6285 117.903 46.7685C118.133 46.9084 118.391 47.0201 118.648 47.1325C118.906 47.2158 119.193 47.3 119.48 47.3558C119.767 47.4125 120.082 47.4399 120.398 47.4399C120.913 47.4399 121.43 47.3841 121.917 47.2725C122.439 47.1654 122.948 47.006 123.437 46.7968C123.956 46.5798 124.456 46.3174 124.928 46.0129C125.451 45.6858 125.95 45.3211 126.419 44.9215C126.82 44.5849 127.193 44.2492 127.566 43.8568C127.939 43.4936 128.311 43.0737 128.655 42.6547C128.999 42.234 129.343 41.7866 129.659 41.3109C129.974 40.8352 130.29 40.3587 130.605 39.8272C131.035 39.0999 131.437 38.3443 131.838 37.532C132.211 36.7206 132.555 35.8809 132.87 34.9853C133.186 34.0897 133.473 33.1658 133.731 32.1861C133.988 31.2072 134.218 30.1992 134.419 29.1353C134.304 29.1637 134.189 29.1637 134.075 29.192C133.96 29.2195 133.845 29.2478 133.731 29.2478C133.644 29.2753 133.53 29.3036 133.415 29.3036C133.309 29.328 133.204 29.3561 133.1 29.3878H133.071L132.956 29.4711ZM98.8642 12.7343L98.6927 13.1551L98.606 13.35L98.5202 13.5741L98.463 13.7699L98.4344 13.7982C98.3772 13.994 98.2906 14.1898 98.2334 14.3855L98.2048 14.4422L98.119 14.7771V14.8337L98.0618 15.0295V15.0578L97.9751 15.3927V15.421L97.9465 15.6177L97.9179 15.8134L97.8893 15.9809V16.065L97.8607 16.205L97.8321 16.4008L97.775 16.5124V16.6249L97.7463 16.8206V18.0519C97.7463 18.1086 97.7464 18.1636 97.775 18.2202V18.3044L97.8035 18.4443V18.5002C97.8035 18.556 97.8321 18.6118 97.8321 18.6676L97.8607 18.7517C97.8607 18.8084 97.8893 18.8359 97.8893 18.8917L97.9179 18.9758C97.9179 19.0317 97.9465 19.06 97.9751 19.0875L98.0037 19.1441C98.0332 19.1999 98.0618 19.2558 98.0618 19.3116L98.0904 19.3674C98.119 19.4241 98.119 19.4515 98.1476 19.479L98.1762 19.5073C98.2048 19.564 98.2334 19.5915 98.262 19.6473L98.2906 19.704C98.312 19.7463 98.3414 19.7842 98.3772 19.8156C98.4058 19.8714 98.4344 19.8997 98.4916 19.9556L98.5202 19.983L98.6346 20.0947H98.6632C98.6926 20.1238 98.7498 20.1513 98.7784 20.2071L98.807 20.2355C98.8642 20.2629 98.8928 20.2913 98.95 20.3196L98.9786 20.3471C99.0367 20.3754 99.0653 20.4038 99.1225 20.4312H99.1511C99.1955 20.4572 99.2437 20.4761 99.2941 20.4871L99.3521 20.5154C99.4093 20.5429 99.4665 20.5429 99.5237 20.5712C99.5809 20.5995 99.6381 20.5995 99.6961 20.627H99.7247C99.7819 20.627 99.8391 20.6554 99.9249 20.6554H99.9535C100.012 20.6554 100.069 20.6553 100.155 20.6828H100.671C100.757 20.6828 100.814 20.6828 100.9 20.6554H100.957C101.044 20.6554 101.129 20.627 101.215 20.627C101.732 20.5429 102.104 20.4871 102.334 20.4871C102.591 20.4871 102.735 20.5712 102.735 20.7395C102.735 21.131 102.276 21.4668 101.359 21.6909C101.244 21.7184 101.129 21.7467 100.986 21.775L100.9 21.8025C100.788 21.835 100.672 21.8541 100.556 21.8592C100.441 21.8866 100.327 21.8867 100.212 21.915H100.155C100.04 21.915 99.9535 21.9425 99.8391 21.9425C99.7247 21.9425 99.6381 21.9425 99.5237 21.9708H99.1797C99.0939 21.9708 99.0072 21.9708 98.9214 21.9425H98.8642C98.7784 21.9425 98.6927 21.915 98.6346 21.915H98.606C98.5265 21.9129 98.4484 21.8935 98.3772 21.8583L98.3192 21.8308C98.262 21.8025 98.1762 21.8025 98.119 21.775H98.0904C98.0037 21.7467 97.9465 21.7184 97.8607 21.6909L97.8035 21.6625L97.6311 21.5784L97.6025 21.5509C97.5392 21.5238 97.4812 21.486 97.4309 21.4393L97.3729 21.411C97.3157 21.3826 97.2871 21.3551 97.2299 21.2993L97.2013 21.271C97.1405 21.2396 97.0907 21.1909 97.0583 21.131L97.0002 21.0752L96.8858 20.9636L96.8572 20.9353C96.8108 20.896 96.772 20.8485 96.7429 20.7953L96.6848 20.7395C96.6562 20.6828 96.6276 20.6553 96.599 20.5995L96.5704 20.5429C96.5424 20.4809 96.5037 20.4242 96.456 20.3754L96.4274 20.3196C96.3988 20.263 96.3694 20.2355 96.3694 20.1797L96.3408 20.123C96.307 20.0601 96.2783 19.9946 96.255 19.9272L96.2264 19.8431C96.1978 19.7873 96.1978 19.7598 96.1692 19.704L96.1406 19.6198C96.112 19.564 96.112 19.4799 96.0834 19.4241L96.0539 19.3399C96.0539 19.2841 96.0253 19.2283 96.0253 19.1999L95.9967 19.1158C95.9967 19.06 95.9681 18.9758 95.9681 18.8926V17.268C95.9681 17.1838 95.9967 17.128 95.9967 17.0439L96.0253 16.9039L96.0539 16.764L96.0834 16.624C96.112 16.5399 96.112 16.4557 96.1406 16.3441L96.1692 16.2325L96.1978 16.0358L96.2264 15.9242C96.255 15.8401 96.2836 15.7284 96.2836 15.6443L96.3122 15.5327L96.3694 15.3086L96.3988 15.1969C96.4274 15.1128 96.456 15.0003 96.4846 14.917L96.5132 14.8054L96.599 14.5813L96.6276 14.4697C96.6562 14.3572 96.7134 14.2447 96.7429 14.1606L96.7715 14.1047C96.8 14.0215 96.8286 13.909 96.8858 13.8248L96.9144 13.7415C96.9716 13.6299 97.0002 13.5174 97.0583 13.4058L97.0869 13.3491C97.1155 13.265 97.1727 13.1534 97.2013 13.0692L97.2299 12.9851C97.2871 12.8734 97.3157 12.7893 97.3729 12.6777C98.5774 10.1867 100.47 7.58333 102.907 5.42899L103.022 5.51228C103.222 5.68057 103.423 5.87635 103.595 6.07212C101.572 7.94587 99.961 10.2138 98.8642 12.7335V12.7343ZM133.357 20.9069V20.3196C133.357 20.2355 133.357 20.1513 133.329 20.0672C133.323 19.9808 133.304 19.8959 133.272 19.8156C133.243 19.7314 133.243 19.6473 133.214 19.5923C133.186 19.5357 133.186 19.5073 133.157 19.4799C133.129 19.4515 133.129 19.4241 133.1 19.3957C133.071 19.3674 133.071 19.3399 133.042 19.3116L133.013 19.2841H132.87C132.87 19.2841 132.842 19.2841 132.842 19.3116H132.813L132.785 19.3399L132.756 19.3674C132.756 19.3674 132.727 19.3957 132.727 19.4241C132.727 19.4515 132.698 19.4515 132.698 19.4799C132.698 19.4799 132.669 19.5073 132.669 19.5357C132.669 19.564 132.669 19.564 132.641 19.5915L132.612 19.6473V19.983C132.612 20.0397 132.612 20.0672 132.641 20.123C132.641 20.1797 132.669 20.2071 132.698 20.263C132.698 20.2913 132.727 20.3196 132.756 20.3746C132.785 20.4038 132.785 20.4312 132.813 20.4596C132.842 20.4871 132.87 20.5154 132.87 20.5437L132.956 20.627L133.042 20.7112C133.071 20.7395 133.1 20.767 133.157 20.767C133.186 20.7953 133.214 20.7953 133.272 20.8228C133.272 20.8511 133.3 20.8795 133.357 20.9069ZM136.254 20.8795C136.282 20.8795 136.311 20.8511 136.34 20.8228C136.369 20.7953 136.397 20.7953 136.426 20.767C136.455 20.767 136.483 20.7395 136.512 20.7112C136.569 20.6828 136.626 20.627 136.684 20.5995C136.748 20.5615 136.806 20.5144 136.856 20.4596C136.913 20.4029 136.97 20.3754 137.028 20.3196C137.085 20.263 137.143 20.208 137.171 20.1513C137.228 20.0955 137.257 20.0397 137.315 19.983C137.344 19.9272 137.401 19.8714 137.429 19.8156L137.515 19.6473C137.547 19.5965 137.566 19.5392 137.572 19.4799C137.572 19.4515 137.601 19.4241 137.601 19.3682V19.3399C137.558 19.3468 137.518 19.3662 137.487 19.3957C137.429 19.4241 137.401 19.4515 137.344 19.4799C137.344 19.4799 137.315 19.4799 137.315 19.5073C137.257 19.5357 137.228 19.564 137.171 19.5915C137.111 19.6229 137.061 19.6717 137.028 19.7314L136.827 19.9272C136.77 19.9839 136.713 20.0672 136.626 20.1513C136.569 20.2355 136.512 20.2913 136.455 20.3746L136.282 20.627L136.254 20.6828C136.225 20.7395 136.168 20.8228 136.139 20.8795C136.196 20.9069 136.225 20.9069 136.254 20.8795ZM143.737 12.4544L142.677 13.49C142.591 13.5741 142.476 13.5741 142.418 13.49L141.96 12.9859C141.903 12.9301 141.903 12.8185 141.989 12.7343L143.049 11.6988C143.135 11.6147 143.25 11.6147 143.307 11.6988L143.766 12.2028C143.823 12.2587 143.823 12.3703 143.737 12.4544ZM134.304 9.73939C134.304 9.68358 134.247 9.62777 134.189 9.62777L133.817 9.48781C133.731 9.45947 133.616 9.51614 133.558 9.59943C133.545 9.61482 133.537 9.63468 133.537 9.65524C133.537 9.67581 133.545 9.69567 133.558 9.71106L133.788 10.7474C133.788 10.8033 133.845 10.8591 133.903 10.8591L134.275 10.999C134.362 11.0274 134.476 10.9715 134.533 10.8874C134.547 10.872 134.555 10.8522 134.555 10.8316C134.555 10.811 134.547 10.7912 134.533 10.7758L134.304 9.73939ZM135.967 27.1768C136.053 27.1484 136.139 27.0651 136.111 26.9801C136.111 26.9527 136.082 26.9243 136.082 26.8968L135.709 26.3645C135.684 26.3372 135.653 26.3157 135.618 26.3014C135.583 26.287 135.546 26.2801 135.508 26.2812C135.221 26.337 134.963 26.3928 134.706 26.4212C134.419 26.477 134.104 26.5328 133.76 26.5886L133.3 26.6727L132.842 26.7569C132.697 26.7794 132.554 26.8075 132.412 26.841C132.268 26.8685 132.154 26.8968 131.981 26.9243C131.466 27.0359 131.006 27.1484 130.548 27.2884C130.118 27.4 129.659 27.5408 129.2 27.6525C129.114 27.6799 129.057 27.7924 129.085 27.8757C129.085 27.904 129.114 27.904 129.114 27.9324L129.516 28.4647C129.573 28.5197 129.659 28.548 129.716 28.5197C130.147 28.4081 130.605 28.2681 131.093 28.1281C131.594 27.987 132.101 27.8656 132.612 27.7641C132.727 27.7366 132.87 27.7083 133.042 27.6799C133.187 27.6575 133.33 27.6298 133.473 27.5966C133.644 27.5683 133.788 27.54 133.931 27.5125L134.39 27.4283L134.792 27.3442L135.279 27.2601L135.967 27.1768ZM139.838 8.31232C139.866 8.22818 139.838 8.17236 139.78 8.14403L139.293 7.80916C139.252 7.78307 139.201 7.77421 139.153 7.78448C139.105 7.79475 139.063 7.82334 139.035 7.86411C139.007 7.89245 139.007 7.92078 139.007 7.94826L138.347 10.495C138.319 10.5791 138.347 10.635 138.404 10.6633L138.891 10.999C138.978 11.0548 139.092 11.0274 139.15 10.9432C139.207 10.8591 139.752 8.62058 139.838 8.31232ZM167.249 19.7598C167.249 19.564 166.791 19.7873 166.704 19.8714C166.618 19.9556 166.59 19.983 165.758 21.0194C164.754 22.2782 163.866 23.2304 163.091 23.9019C161.916 24.9374 160.855 25.4414 159.938 25.4414C155.035 25.4414 161.83 15.421 161.83 15.4494C161.83 14.5255 160.683 13.7699 159.909 14.638C158.762 16.6249 155.063 23.5662 153.171 23.5662C150.303 23.5662 154.748 16.6249 154.748 16.5132C154.748 16.2608 154.49 16.1208 154.003 16.1208C152.253 16.1208 150.533 19.983 150.504 22.6148C149.128 23.6503 147.293 24.7133 145.601 24.7133C143.222 24.7133 143.68 22.1949 144.11 20.7112C148.497 19.8997 152.998 13.4067 148.698 12.9026C143.336 12.287 138.376 25.7488 145.028 25.7488C147.006 25.7488 149.013 24.6858 150.59 23.5378C150.763 24.4617 151.25 25.0774 152.139 25.0774C154.117 25.0774 156.267 21.6067 157.271 20.1513C156.554 22.3623 155.522 26.5611 159.307 26.5611C160.683 26.5611 162.174 25.8613 163.751 24.4334C164.984 23.3429 166.045 22.0549 166.962 20.5712C167.163 20.2638 167.249 19.9839 167.249 19.7598ZM164.325 9.09541C162.203 12.147 155.322 14.2181 154.777 9.17955C154.662 8.17236 155.55 7.69667 155.866 8.81635C156.956 12.9859 161.486 11.1673 163.722 8.95631C164.123 8.59224 164.841 8.36728 164.325 9.09541ZM148.784 15.1695C148.784 16.849 145.974 19.1441 144.483 19.7598C144.798 18.6401 147.063 14.5822 148.182 14.5822C148.583 14.5822 148.784 14.7779 148.784 15.1695ZM100.843 21.8025L100.499 21.8592C100.613 21.8592 100.728 21.8308 100.843 21.8025Z" fill="black"/>
</g>
</g>
<defs>
<linearGradient id="paint0_linear_3_1399" x1="54.0787" y1="26.173" x2="54.0787" y2="3.86197" gradientUnits="userSpaceOnUse">
<stop stop-color="#9172B1"/>
<stop offset="1" stop-color="#8292CA"/>
</linearGradient>
<clipPath id="clip0_3_1399">
<rect width="167.249" height="48.0841" fill="white"/>
</clipPath>
</defs>
</svg>
