<svg width="201" height="58" viewBox="0 0 201 58" fill="none" xmlns="http://www.w3.org/2000/svg">
<g clip-path="url(#clip0_105_1600)">
<mask id="mask0_105_1600" style="mask-type:luminance" maskUnits="userSpaceOnUse" x="0" y="0" width="201" height="58">
<path d="M0 0H201V58H0V0Z" fill="white"/>
</mask>
<g mask="url(#mask0_105_1600)">
<path fill-rule="evenodd" clip-rule="evenodd" d="M46.9335 0.809678H66.1271C67.0923 0.809678 67.8498 1.58613 67.8498 2.49729V3.24007C67.8498 4.1849 67.0572 4.92861 66.1271 4.92861H49.482V12.6595H57.6832C61.3022 12.6595 64.1275 13.4359 66.1603 14.9551C67.2288 15.7653 68.0565 16.7784 68.5723 17.9936C69.09 19.1751 69.3649 20.4913 69.3649 21.9778C69.3649 25.1173 68.2623 27.514 66.0569 29.1679C64.9884 29.9781 63.7142 30.5861 62.1981 30.9575C60.7504 31.3289 59.0968 31.531 57.2698 31.531H46.9676C46.5128 31.5312 46.0763 31.3539 45.7535 31.0377C45.4308 30.7215 45.2479 30.2921 45.2449 29.8434V2.49729C45.2108 1.58613 45.9693 0.809678 46.9335 0.809678ZM30.2543 31.6994C28.7724 31.6994 27.3597 31.531 25.9811 31.1942C24.5685 30.8565 23.535 30.4177 22.2598 29.776C21.8113 29.5393 21.2605 29.6413 20.8812 29.9781L19.9853 30.8902C19.9161 30.9575 19.8127 31.0585 19.7103 31.0922C19.5378 31.1942 19.3311 31.2606 19.1234 31.2952C18.8134 31.3289 18.5385 31.4636 18.365 31.7003C18.365 31.7003 8.33771 43.3471 7.44269 44.3948C6.16747 45.8794 4.5481 46.1498 3.13446 45.6764C2.47773 45.4439 1.8788 45.0758 1.37761 44.5969C0.894068 44.1235 0.481639 43.5164 0.27495 42.8756C-0.208587 41.4911 0.0331815 39.8699 1.55016 38.621L14.472 27.8863C14.7128 27.6833 14.8512 27.3802 14.8854 27.1099C14.9195 26.9069 14.9887 26.7385 15.0921 26.5692C15.1613 26.4681 15.2295 26.4008 15.2988 26.2997L16.1606 25.4559C16.3538 25.2761 16.4742 25.0332 16.4995 24.7723C16.5247 24.5115 16.4532 24.2504 16.2981 24.0377C15.6088 22.8562 15.1262 21.6747 14.7479 20.3575C14.398 19.0005 14.224 17.6052 14.2302 16.2049C14.2302 14.7877 14.4028 13.4032 14.7479 12.0533C15.0921 10.7024 15.6439 9.45261 16.3322 8.27203C17.0215 7.08958 17.8833 6.04371 18.8485 5.09794C19.8127 4.1531 20.9154 3.37665 22.1214 2.70123C23.3459 2.0278 24.6552 1.51697 26.0153 1.182C27.4129 0.839441 28.8483 0.669441 30.2884 0.675904C32.3553 0.675904 34.3208 1.01268 36.1468 1.65442C37.0769 1.99213 37.9388 2.39719 38.7655 2.90329C39.5782 3.40174 40.3299 3.99093 41.0059 4.65919C41.6942 5.33461 41.6942 6.38049 41.0059 7.0559L40.5916 7.52926C39.9715 8.23742 38.8689 8.33939 38.1454 7.69765L38.0762 7.63029C37.0769 6.68545 35.9401 5.97636 34.6649 5.53668C33.3556 5.06426 31.9078 4.82852 30.2543 4.82852C28.0139 4.82852 26.0162 5.33368 24.2243 6.31313C23.3516 6.80099 22.5415 7.39051 21.8113 8.06903C21.1017 8.76307 20.4878 9.54625 19.9853 10.3984C19.4816 11.2586 19.088 12.177 18.8134 13.1328C18.5726 14.0776 18.4342 15.0908 18.4342 16.1713C18.4342 18.2985 18.9518 20.2219 19.9853 21.9441C20.502 22.8225 21.123 23.599 21.8113 24.2735C22.5006 24.9489 23.3283 25.557 24.2233 26.0294C26.0153 27.0425 28.0139 27.5149 30.2533 27.5149C31.8737 27.5149 33.3205 27.2783 34.6308 26.8058C35.9138 26.3354 37.0861 25.6119 38.0762 24.6795C38.4116 24.3722 38.8558 24.2072 39.3132 24.2198C39.7707 24.2324 40.2049 24.4216 40.5224 24.7468C40.5574 24.7805 40.5574 24.8142 40.5916 24.8142L41.0751 25.354C41.6601 26.0294 41.625 27.0425 40.9708 27.6496C40.3166 28.2914 39.5581 28.8995 38.7314 29.4056C37.9037 29.9116 37.0428 30.3167 36.1127 30.6544C35.1816 30.9921 34.2515 31.2288 33.2522 31.3972C32.2665 31.602 31.2616 31.7039 30.2543 31.7012V31.6994ZM24.1902 13.4705C24.2945 13.2685 24.3968 13.0655 24.5002 12.8971C24.6045 12.7287 24.742 12.5594 24.8453 12.3564C24.9133 12.2664 24.9621 12.1638 24.9886 12.0547C25.015 11.9456 25.0187 11.8323 24.9994 11.7218C24.98 11.6112 24.9381 11.5057 24.8761 11.4117C24.814 11.3176 24.7332 11.237 24.6386 11.1748C24.5466 11.1081 24.442 11.0604 24.3309 11.0344C24.2198 11.0085 24.1045 11.0049 23.992 11.0238C23.8794 11.0428 23.7719 11.0839 23.6758 11.1447C23.5797 11.2055 23.497 11.2848 23.4326 11.3778C23.2942 11.5799 23.1216 11.8166 22.9842 12.0523C22.8467 12.289 22.7092 12.5257 22.6049 12.7614C22.3982 13.2011 22.6049 13.6735 23.0183 13.8756C23.229 13.9693 23.4681 13.9795 23.6863 13.9041C23.9044 13.8287 24.0848 13.6735 24.1902 13.4705ZM26.8088 21.8094C25.8095 21.2014 24.9828 20.3912 24.431 19.4127C23.8699 18.434 23.5735 17.3293 23.5701 16.2049C23.5701 16.0365 23.5701 15.8335 23.6042 15.6652C23.6141 15.5537 23.6013 15.4414 23.5666 15.3349C23.5319 15.2284 23.476 15.1297 23.4021 15.0448C23.3283 14.9598 23.2381 14.8903 23.1367 14.8402C23.0353 14.7901 22.9248 14.7605 22.8116 14.7531C22.6987 14.7428 22.5848 14.7549 22.4766 14.7885C22.3685 14.8221 22.2682 14.8767 22.1816 14.9489C22.095 15.0212 22.0239 15.1098 21.9724 15.2094C21.9209 15.3091 21.89 15.4179 21.8815 15.5295C21.8474 15.7662 21.8474 15.9692 21.8474 16.1713C21.8474 17.6231 22.2266 19.0076 22.95 20.2219C23.6599 21.4581 24.6802 22.4932 25.9129 23.2276C26.0099 23.284 26.1174 23.3209 26.2289 23.3362C26.3405 23.3514 26.4541 23.3447 26.563 23.3165C26.6719 23.2882 26.7741 23.2389 26.8637 23.1715C26.9532 23.1041 27.0284 23.0198 27.0847 22.9236C27.3597 22.5522 27.2222 22.0461 26.8098 21.8094H26.8088ZM117.299 0.809678C119.194 0.809678 120.883 1.04636 122.364 1.4851C123.95 1.95752 125.293 2.63294 126.431 3.57778C127.602 4.55723 128.498 5.70507 129.118 7.05497C129.704 8.37213 129.98 9.85768 129.98 11.5116C129.98 13.1655 129.704 14.6511 129.118 15.9683C128.533 17.3182 127.637 18.466 126.431 19.4455C125.293 20.3903 123.915 21.0657 122.364 21.5381C120.848 21.9778 119.16 22.2135 117.299 22.2135H116.472C116.299 21.0657 116.403 19.6475 116.816 18.0609H117.368C118.85 18.0609 120.09 17.8925 121.193 17.5885C122.192 17.2845 123.054 16.8794 123.743 16.306C124.387 15.7778 124.894 15.1065 125.224 14.3471C125.569 13.5369 125.742 12.5921 125.742 11.5116C125.742 9.41894 125.086 7.79774 123.743 6.71726C123.054 6.14381 122.192 5.73874 121.193 5.43565C120.124 5.13068 118.85 4.96229 117.368 4.96229H110.373V18.0609H114.817C114.335 19.5465 114.094 20.9647 114.094 22.2145H110.338V29.877C110.338 30.8219 109.546 31.5656 108.615 31.5656H107.822C107.367 31.5658 106.931 31.3884 106.608 31.072C106.285 30.7556 106.102 30.326 106.1 29.877V2.5319C106.1 1.58613 106.892 0.843356 107.822 0.843356H117.299V0.809678ZM87.1819 31.6994C85.7 31.6994 84.2873 31.531 82.9087 31.1942C81.5486 30.8592 80.2393 30.3484 79.0148 29.675C77.8275 29.012 76.7279 28.2067 75.741 27.2773C74.7767 26.3325 73.9149 25.2857 73.2256 24.1042C72.5364 22.9226 71.9846 21.6738 71.6404 20.3229C71.2907 18.9659 71.1171 17.5705 71.1237 16.1703C71.1237 14.7521 71.2962 13.3685 71.6404 12.0177C71.9846 10.6678 72.5364 9.41894 73.2256 8.23649C73.9149 7.05497 74.7758 6.0091 75.741 5.06332C76.7062 4.11848 77.8079 3.34203 79.0148 2.66661C80.2393 1.99319 81.5486 1.48236 82.9087 1.14739C84.3064 0.804818 85.7417 0.634818 87.1819 0.641291C88.6638 0.641291 90.0764 0.809678 91.4541 1.14645C92.8326 1.4851 94.1078 1.99119 95.348 2.66661C96.5353 3.32916 97.6349 4.13419 98.6218 5.06332C99.587 6.00816 100.448 7.0559 101.137 8.23649C102.55 10.6005 103.239 13.2329 103.239 16.1366C103.239 19.0404 102.55 21.6738 101.137 24.0368C100.448 25.2183 99.587 26.2651 98.6218 27.21C97.6576 28.1548 96.554 28.9313 95.348 29.6076C94.1235 30.2808 92.8142 30.7913 91.4541 31.1259C90.0764 31.531 88.6628 31.6994 87.1819 31.6994ZM87.1819 27.5477C89.4213 27.5477 91.4199 27.0416 93.2119 26.0621C94.0842 25.5745 94.894 24.9853 95.6239 24.3072C96.3253 23.618 96.9385 22.8468 97.4499 22.0105C97.9676 21.1331 98.3459 20.2219 98.6218 19.2761C98.8636 18.3313 99.001 17.2845 99.001 16.204C99.001 15.1245 98.8636 14.0776 98.6218 13.1319C98.381 12.187 97.9676 11.2749 97.4499 10.3975C96.9332 9.51997 96.3131 8.77719 95.6239 8.10178C94.9346 7.42636 94.142 6.8529 93.2119 6.34681C92.3265 5.84903 91.3757 5.47411 90.3865 5.23265C89.3368 4.98478 88.2612 4.86012 87.1819 4.86126C84.9415 4.86126 82.9438 5.36642 81.1519 6.34681C80.2792 6.83437 79.4691 7.42358 78.7389 8.10178C78.0376 8.79069 77.4244 9.56164 76.9128 10.3975C76.4091 11.2576 76.0155 12.1761 75.741 13.1319C75.5002 14.0767 75.3617 15.1245 75.3617 16.204C75.3617 18.365 75.8785 20.2893 76.9128 22.0105C77.4296 22.889 78.0506 23.6317 78.7389 24.3072C79.4282 24.9816 80.2208 25.556 81.1509 26.0621C82.9428 27.0416 84.9775 27.5477 87.1819 27.5477ZM57.3741 27.4466C58.7868 27.4466 60.0279 27.311 61.0272 27.0753C61.9573 26.8386 62.7499 26.5009 63.3359 26.0285C63.8773 25.6242 64.3043 25.0895 64.576 24.4755C64.887 23.8001 65.0245 23.0237 65.0245 22.0788C65.0245 21.1667 64.887 20.3575 64.576 19.7158C64.301 19.1077 63.9218 18.6016 63.37 18.2303C62.7841 17.7906 62.0265 17.4538 61.0613 17.2171C60.0279 16.9805 58.7868 16.8457 57.34 16.8457H49.4138V27.4466H57.3741Z" fill="white"/>
<path fill-rule="evenodd" clip-rule="evenodd" d="M161.993 0.641518C161.131 2.12707 142.351 37.2376 155.962 27.6489C156.134 27.5479 156.272 27.4469 156.375 27.3458L156.341 27.0081C156.204 25.7593 156.134 24.5768 156.204 23.4973C156.263 22.5046 156.425 21.5204 156.685 20.5598C156.961 19.6477 157.34 18.8713 157.788 18.2305C158.684 16.947 159.822 16.0358 161.062 15.4615C162.44 14.8206 163.922 14.584 165.266 14.7196C165.866 14.7825 166.457 14.9186 167.023 15.1247C167.556 15.3201 168.055 15.5932 168.505 15.9348C168.953 16.2716 169.332 16.6776 169.642 17.1837C169.918 17.6561 170.125 18.1631 170.228 18.7366C170.469 20.0191 170.194 21.6066 169.229 23.429C168.402 25.0155 167.023 26.8061 164.991 28.7294C164.921 28.7968 164.818 28.8314 164.749 28.7968L164.025 28.5274C163.991 28.5274 163.991 28.4937 163.956 28.4937C163.853 28.4263 163.853 28.2907 163.956 28.1896C164.37 27.7172 164.749 27.2448 165.128 26.7715C165.507 26.299 165.817 25.8603 166.093 25.4215C166.713 24.4767 167.196 23.6656 167.506 22.8892C167.85 22.0791 168.023 21.37 168.092 20.7619C168.126 20.1885 168.092 19.716 167.919 19.2773C167.747 18.8376 167.506 18.5008 167.161 18.2295C167.109 18.2046 167.063 18.1707 167.023 18.1295C166.954 18.0948 166.92 18.0612 166.851 18.0275C166.427 17.7701 165.96 17.5874 165.472 17.4877C164.986 17.387 164.487 17.353 163.991 17.3867C163.405 17.454 162.854 17.5887 162.303 17.8254C161.732 18.0742 161.207 18.4165 160.752 18.8376C160.233 19.3043 159.781 19.8384 159.408 20.4251C159.029 21.0332 158.684 21.7067 158.443 22.4505C158.064 23.5637 157.857 24.8472 157.857 26.2654C157.857 27.5816 158.03 29.0344 158.409 30.62C158.443 30.62 158.787 30.519 158.856 30.519L159.132 30.4516C159.201 30.4516 159.27 30.418 159.339 30.418L159.512 29.6752C159.58 29.4048 159.615 29.1682 159.683 28.9324C159.752 28.6621 159.786 28.4263 159.856 28.1896C159.89 27.953 159.959 27.7172 159.994 27.4805C160.028 27.3122 160.062 27.1765 160.062 27.0409C160.097 26.9071 160.132 26.7378 160.132 26.6031C160.166 26.4674 160.166 26.3327 160.201 26.198C160.235 26.0624 160.235 25.9267 160.235 25.8266L160.028 25.7246L159.822 25.6236C159.758 25.5875 159.699 25.542 159.649 25.4889C159.58 25.4552 159.546 25.3879 159.476 25.3533C159.408 25.2859 159.305 25.2185 159.236 25.1175C159.166 25.0502 159.098 24.9491 159.029 24.8808C158.96 24.7798 158.926 24.7125 158.856 24.6105C158.822 24.5095 158.753 24.4084 158.719 24.3411C158.684 24.24 158.65 24.1727 158.65 24.0707C158.616 24.0034 158.616 23.9023 158.616 23.834V23.5309C158.616 23.429 158.616 23.3625 158.65 23.2943V23.1932C158.65 23.1595 158.65 23.1259 158.684 23.0922C158.684 23.0576 158.719 23.0239 158.719 23.0239C158.719 22.9902 158.753 22.9565 158.753 22.9229C158.753 22.8892 158.787 22.8555 158.787 22.8555C158.822 22.8218 158.822 22.7882 158.856 22.7882L158.926 22.7208C158.96 22.7208 158.96 22.6862 158.995 22.6862H159.029C159.063 22.6525 159.098 22.6525 159.132 22.6525C159.166 22.6525 159.201 22.6188 159.236 22.6188C159.27 22.6188 159.305 22.6188 159.339 22.5852H159.58C159.615 22.5852 159.649 22.5852 159.649 22.6188C159.683 22.6188 159.718 22.6525 159.718 22.6525C159.836 22.6956 159.942 22.7651 160.028 22.8555C160.132 22.9229 160.201 23.0239 160.304 23.1259C160.372 23.2269 160.476 23.3279 160.545 23.4626C160.614 23.5983 160.682 23.6993 160.718 23.8686C160.752 23.9697 160.786 24.1044 160.821 24.2054C160.855 24.3411 160.889 24.4421 160.889 24.5768C160.924 24.7125 160.924 24.8135 160.924 24.9482V25.5572C160.993 25.5572 161.028 25.5909 161.097 25.5909C161.165 25.5909 161.2 25.6245 161.268 25.6245C161.328 25.6193 161.388 25.6309 161.441 25.6582H162.44C162.474 25.5572 162.544 25.4225 162.578 25.3215C162.613 25.2195 162.681 25.1185 162.716 25.0165C162.75 24.9155 162.819 24.8144 162.854 24.7471C162.923 24.646 162.957 24.5441 162.992 24.4767C163.06 24.3757 163.13 24.24 163.199 24.1399C163.268 24.0302 163.349 23.9279 163.44 23.835C163.51 23.7371 163.591 23.6468 163.68 23.5655C163.75 23.4636 163.853 23.3972 163.922 23.3289C164.025 23.2615 164.095 23.1942 164.198 23.1268C164.301 23.0585 164.37 22.9912 164.473 22.9584C164.542 22.9238 164.646 22.8901 164.715 22.8555C164.818 22.8228 164.887 22.7891 164.956 22.7891H165.266C165.301 22.7891 165.369 22.8228 165.404 22.8565C165.438 22.8901 165.507 22.8901 165.542 22.9238C165.603 22.95 165.652 22.9981 165.679 23.0585C165.714 23.0931 165.748 23.1605 165.817 23.2269C165.852 23.2615 165.887 23.2952 165.887 23.3626C165.921 23.3962 165.921 23.4636 165.955 23.4982C165.955 23.5319 165.99 23.5992 165.99 23.6329V24.037C165.99 24.0707 165.99 24.1381 165.955 24.1717C165.955 24.2054 165.921 24.2737 165.921 24.3074C165.887 24.3747 165.852 24.4758 165.817 24.5431C165.782 24.6105 165.748 24.7115 165.679 24.7798C165.645 24.8472 165.576 24.9482 165.542 25.0155C165.472 25.0838 165.438 25.1512 165.369 25.2522L165.162 25.4552L164.956 25.6573C164.887 25.7246 164.818 25.7583 164.749 25.8257C164.681 25.8902 164.599 25.9368 164.508 25.9613C164.439 25.995 164.336 26.0624 164.232 26.096C164.129 26.1297 164.025 26.198 163.956 26.2317L163.646 26.3327C163.543 26.3664 163.44 26.4001 163.336 26.4001L163.199 26.4337H163.164C163.13 26.4337 163.06 26.4674 163.026 26.4674L162.923 26.7378L162.819 27.0418C162.75 27.2102 162.681 27.4132 162.613 27.6153C162.544 27.8183 162.474 27.9866 162.406 28.1896L162.268 28.5947L162.13 29.0344C162.13 29.0671 162.096 29.1008 162.096 29.1008C162.027 29.2018 161.888 29.2365 161.785 29.1345L161.441 28.8651C161.372 28.8305 161.338 28.7294 161.372 28.6284L161.544 28.1223C161.613 27.9193 161.648 27.7509 161.717 27.5816C161.785 27.3795 161.854 27.1765 161.924 27.0081C161.993 26.8397 162.061 26.6367 162.13 26.4674H161.924C161.82 26.4674 161.751 26.4674 161.648 26.4337C161.544 26.4337 161.475 26.4001 161.372 26.4001C161.268 26.4001 161.2 26.3664 161.097 26.3664C160.993 26.3327 160.924 26.3327 160.821 26.299C160.821 26.4337 160.786 26.5694 160.786 26.7378C160.752 26.9062 160.752 27.0418 160.718 27.2102C160.682 27.3786 160.682 27.5142 160.648 27.6835L160.545 28.1887C160.504 28.3677 160.47 28.5481 160.442 28.7294C160.407 28.9324 160.372 29.1008 160.338 29.2701C160.309 29.4647 160.263 29.6565 160.201 29.8436L160.062 30.4516C160.269 30.418 160.476 30.3843 160.682 30.316C160.855 30.2823 161.097 30.2486 161.303 30.215C161.544 30.1813 161.751 30.1476 161.958 30.1139C162.164 30.0803 162.371 30.0466 162.647 30.0129C162.854 29.9792 163.095 29.9446 163.37 29.9109L164.095 29.8099H164.129L165.369 29.6415C165.438 29.6415 165.542 29.6752 165.576 29.7425L165.955 30.3506C165.99 30.3843 165.99 30.418 165.99 30.4516C165.99 30.5527 165.887 30.6874 165.782 30.6874L164.646 30.8558L163.956 30.9587C163.75 30.9914 163.543 31.0251 163.302 31.0588C163.095 31.0925 162.888 31.1261 162.647 31.1607C162.406 31.1944 162.164 31.2281 161.993 31.2618C161.772 31.2938 161.553 31.3387 161.338 31.3965C161.131 31.4302 160.924 31.4638 160.718 31.5321C159.925 31.7005 159.236 31.8689 158.546 32.0373C157.884 32.204 157.229 32.3956 156.582 32.6117C156.479 32.6463 156.41 32.6117 156.341 32.5443L155.893 31.9035C155.893 31.8698 155.858 31.8698 155.858 31.8352C155.824 31.7342 155.928 31.5995 156.031 31.5658L156.479 31.4302H156.514L156.996 31.2955C156.789 30.4853 156.617 29.7425 156.479 28.9998C156.307 29.1008 156.134 29.2365 155.928 29.3712C144.693 35.8195 150.552 20.5589 152.137 15.9002C149.242 19.7497 141.214 31.9035 136.561 31.9035C134.011 31.9035 132.771 30.6874 132.771 28.2907C132.771 23.429 137.871 14.8197 140.215 10.1956C141.041 8.43971 141.455 6.98784 141.455 5.84C141.455 3.54432 139.973 2.39742 137.044 2.39742C134.054 2.39073 131.116 3.17125 128.533 4.65849C128.298 4.36171 128.045 4.07988 127.774 3.81468C130.772 2.09339 134.149 1.0129 137.802 1.0129C141.696 1.0129 143.626 2.56581 143.626 5.67161C143.626 7.19084 143.074 9.08145 141.971 11.3771C139.973 15.1584 134.839 24.6451 134.839 28.561C134.839 29.6743 135.252 30.2486 136.079 30.2486C143.177 30.2486 154.48 8.77742 158.443 1.65371C159.305 0.303808 162.75 -0.675644 161.993 0.641518ZM167.403 35.4135C167.403 34.84 166.989 34.4686 166.334 34.2666C165.748 34.0982 164.956 34.0299 164.129 34.0299C163.267 34.0299 162.337 34.1309 161.578 34.2329C160.786 34.3339 160.132 34.4686 159.786 34.5023C158.616 34.739 157.478 35.0093 156.375 35.3807C155.272 35.7175 154.17 36.1572 153.102 36.6296C152.022 37.1109 150.964 37.6403 149.932 38.2162C148.86 38.7902 147.813 39.4097 146.795 40.0731C145.41 40.9389 144.086 41.8975 142.833 42.9422C141.696 43.9217 140.765 44.9011 140.007 45.9133C139.295 46.8259 138.726 47.8388 138.319 48.9181C137.953 49.9019 137.766 50.9421 137.767 51.9902C137.767 52.4299 137.802 52.8677 137.871 53.2737C137.94 53.6788 138.078 54.0838 138.25 54.4216C138.423 54.7929 138.629 55.1297 138.87 55.4337C139.111 55.7378 139.387 56.0418 139.732 56.3122C140.042 56.5816 140.386 56.8173 140.765 57.0203C141.11 57.2233 141.489 57.3917 141.902 57.5274C142.317 57.6621 142.73 57.7631 143.143 57.8314C143.591 57.8987 144.039 57.9324 144.522 57.9324C145.728 57.9324 146.934 57.7294 148.106 57.358C149.277 56.9866 150.448 56.4132 151.585 55.6367C152.723 54.8603 153.86 53.9155 154.962 52.7667C156.065 51.6188 157.134 50.3026 158.202 48.7497C158.202 48.7497 158.202 48.716 158.236 48.716C158.822 47.905 159.339 47.0275 159.856 46.0826C160.404 45.0615 160.898 44.0133 161.338 42.9422C161.843 41.7485 162.292 40.532 162.681 39.2966C163.095 38.0141 163.474 36.6296 163.853 35.1777C164.06 35.144 164.266 35.144 164.439 35.144H165.025C165.231 35.144 165.438 35.144 165.611 35.1777C165.782 35.1777 165.955 35.2114 166.093 35.2451C166.231 35.2787 166.368 35.3124 166.472 35.347C166.575 35.3807 166.644 35.4144 166.713 35.4481H166.748C166.954 35.5828 167.023 35.6165 167.058 35.6501C167.127 35.7184 167.196 35.7184 167.23 35.7184C167.299 35.7521 167.403 35.6492 167.403 35.4135ZM159.786 35.5491C159.822 35.6501 159.822 35.7521 159.822 35.8531C159.822 36.4949 159.27 37.0346 158.616 37.0346C158.365 37.0311 158.121 36.9515 157.917 36.8066C157.714 36.6616 157.56 36.4584 157.478 36.2245L157.41 36.2582L157.306 36.2919C156.927 36.4266 156.548 36.5622 156.134 36.7316L154.893 37.2367C154.446 37.406 154.032 37.609 153.55 37.8448C153.102 38.0478 152.654 38.2845 152.171 38.5202C150.379 39.4314 148.76 40.3098 147.381 41.1863C146.135 41.9752 144.959 42.8678 143.867 43.8543C142.385 45.2725 141.248 46.6561 140.525 48.0406C139.8 49.4251 139.422 50.8096 139.422 52.1595C139.422 52.5309 139.456 52.9023 139.525 53.2391C139.594 53.5768 139.663 53.9145 139.8 54.2186C139.939 54.5226 140.076 54.7929 140.249 55.0624C140.421 55.3327 140.628 55.5694 140.903 55.8051C141.145 56.0418 141.421 56.2448 141.696 56.4132C141.971 56.5816 142.281 56.7172 142.591 56.8519C142.902 56.953 143.247 57.054 143.591 57.1223C143.936 57.1896 144.315 57.2233 144.693 57.2233C145.314 57.2233 145.935 57.156 146.52 57.0203C147.147 56.891 147.759 56.6988 148.347 56.4469C148.971 56.1851 149.571 55.8689 150.138 55.502C150.768 55.107 151.367 54.6668 151.93 54.1849C152.413 53.7798 152.861 53.3747 153.309 52.9023C153.756 52.4626 154.205 51.9575 154.618 51.4505C155.032 50.9444 155.445 50.4036 155.824 49.8302C156.204 49.2558 156.582 48.6814 156.961 48.0406C157.489 47.1359 157.984 46.2123 158.443 45.2716C158.89 44.2931 159.305 43.2799 159.683 42.2004C160.062 41.1199 160.407 40.0057 160.718 38.8233C161.037 37.6068 161.313 36.3797 161.544 35.144C161.407 35.1777 161.268 35.1777 161.131 35.2114C160.996 35.2502 160.858 35.2728 160.718 35.2787C160.595 35.3207 160.468 35.3438 160.338 35.347C160.201 35.3807 160.062 35.4144 159.959 35.4481H159.925L159.786 35.5491ZM118.815 15.3614L118.608 15.8665L118.505 16.1032L118.401 16.3736L118.332 16.6102L118.298 16.6439C118.229 16.8796 118.125 17.1163 118.057 17.3521L118.022 17.4204L117.919 17.8254V17.8928L117.85 18.1295V18.1631L117.747 18.5682V18.6019L117.712 18.8376L117.678 19.0743L117.644 19.2764V19.3783L117.609 19.5467L117.575 19.7834L117.505 19.9181V20.0528L117.471 20.2895V21.775C117.471 21.8424 117.471 21.9097 117.505 21.978V22.0791L117.54 22.2475V22.3157C117.54 22.3831 117.575 22.4505 117.575 22.5178L117.609 22.6188C117.609 22.6862 117.644 22.7208 117.644 22.7872L117.678 22.8892C117.678 22.9565 117.712 22.9902 117.747 23.0239L117.781 23.0922C117.815 23.1595 117.85 23.2269 117.85 23.2943L117.885 23.3616C117.919 23.429 117.919 23.4626 117.954 23.4973L117.988 23.5309C118.022 23.5983 118.057 23.632 118.091 23.6993L118.125 23.7667C118.152 23.8175 118.187 23.8635 118.229 23.9023C118.264 23.9663 118.311 24.0233 118.367 24.0707L118.401 24.1044L118.54 24.24H118.574C118.608 24.2737 118.677 24.3074 118.711 24.3747L118.746 24.4084C118.815 24.4421 118.85 24.4758 118.918 24.5095L118.953 24.5431C119.021 24.5768 119.056 24.6105 119.125 24.6451H119.16C119.213 24.6764 119.271 24.6992 119.331 24.7125L119.401 24.7461C119.47 24.7798 119.539 24.7798 119.607 24.8135C119.677 24.8472 119.746 24.8472 119.814 24.8808H119.849C119.917 24.8808 119.987 24.9145 120.09 24.9145H120.124C120.193 24.9145 120.262 24.9145 120.366 24.9482H120.986C121.089 24.9482 121.158 24.9482 121.262 24.9145H121.331C121.434 24.9145 121.538 24.8808 121.641 24.8808C122.261 24.7798 122.709 24.7125 122.985 24.7125C123.295 24.7125 123.467 24.8135 123.467 25.0155C123.467 25.4889 122.915 25.894 121.813 26.1634C121.675 26.198 121.538 26.2317 121.365 26.2654L121.262 26.299C121.123 26.3327 120.986 26.3664 120.848 26.3664C120.71 26.4001 120.573 26.4001 120.435 26.4337H120.366C120.227 26.4337 120.124 26.4674 119.987 26.4674C119.849 26.4674 119.746 26.4674 119.607 26.5011H119.194C119.091 26.5011 118.987 26.5011 118.884 26.4674H118.815C118.711 26.4674 118.608 26.4337 118.54 26.4337H118.505C118.409 26.4315 118.315 26.4085 118.229 26.3664L118.161 26.3327C118.091 26.299 117.988 26.299 117.919 26.2654H117.885C117.781 26.2317 117.712 26.198 117.609 26.1634L117.54 26.1297L117.333 26.0287L117.299 25.995C117.222 25.9622 117.152 25.9166 117.092 25.8603L117.023 25.8266C116.958 25.7922 116.899 25.7462 116.851 25.691L116.816 25.6573C116.743 25.6193 116.683 25.5606 116.644 25.4889L116.575 25.4215L116.438 25.2859L116.403 25.2522C116.347 25.2051 116.3 25.148 116.265 25.0838L116.196 25.0155C116.162 24.9482 116.127 24.9145 116.093 24.8472L116.059 24.7798C116.023 24.7125 115.989 24.6451 115.92 24.5768L115.886 24.5095C115.852 24.4421 115.817 24.4084 115.817 24.3411L115.783 24.2737C115.749 24.2054 115.713 24.1381 115.679 24.037L115.645 23.936C115.61 23.8686 115.61 23.834 115.576 23.7676L115.542 23.6656C115.507 23.5983 115.507 23.4973 115.473 23.429L115.438 23.3279C115.438 23.2606 115.403 23.1932 115.403 23.1595L115.369 23.0576C115.369 22.9902 115.334 22.8892 115.334 22.7882V20.8302C115.334 20.7282 115.369 20.6618 115.369 20.5589L115.403 20.3905L115.438 20.2221L115.473 20.0537C115.507 19.9518 115.507 19.8507 115.542 19.716L115.576 19.5804L115.61 19.3446L115.645 19.209C115.679 19.108 115.713 18.9733 115.713 18.8722L115.749 18.7366L115.817 18.4662L115.852 18.3315C115.886 18.2305 115.92 18.0948 115.955 17.9947L115.989 17.8591L116.093 17.5887L116.127 17.454C116.162 17.3184 116.23 17.1837 116.265 17.0826L116.299 17.0153C116.333 16.9133 116.369 16.7786 116.438 16.6776L116.472 16.5756C116.541 16.4409 116.575 16.3062 116.644 16.1705L116.679 16.1032C116.713 16.0022 116.782 15.8675 116.816 15.7664L116.851 15.6645C116.919 15.5297 116.955 15.4278 117.023 15.2931C118.471 12.2883 120.745 9.14881 123.674 6.5491L123.811 6.65013C124.053 6.85313 124.294 7.08981 124.501 7.32555C122.066 9.59011 120.13 12.3256 118.815 15.3614ZM160.269 25.2185V24.5095C160.269 24.4084 160.269 24.3074 160.235 24.2054C160.229 24.1014 160.205 23.999 160.166 23.9023C160.132 23.8004 160.132 23.6993 160.097 23.631C160.062 23.5646 160.062 23.5309 160.028 23.4973C159.994 23.4626 159.994 23.429 159.959 23.3953C159.925 23.3616 159.925 23.3279 159.89 23.2943L159.856 23.2606H159.683C159.683 23.2606 159.649 23.2606 159.649 23.2943H159.615L159.58 23.3279L159.546 23.3616C159.546 23.3616 159.512 23.3953 159.512 23.429C159.512 23.4626 159.476 23.4626 159.476 23.4963C159.476 23.4963 159.442 23.5309 159.442 23.5646C159.442 23.5983 159.442 23.5983 159.408 23.632L159.373 23.6993V24.1044C159.373 24.1717 159.373 24.2054 159.408 24.2728C159.408 24.3411 159.442 24.3747 159.476 24.4421C159.476 24.4758 159.512 24.5095 159.546 24.5768C159.58 24.6114 159.58 24.6451 159.615 24.6788C159.649 24.7125 159.683 24.7461 159.683 24.7798L159.786 24.8808L159.89 24.9819C159.925 25.0165 159.959 25.0502 160.028 25.0502C160.062 25.0838 160.097 25.0838 160.166 25.1175C160.166 25.1512 160.201 25.1849 160.269 25.2185ZM163.75 25.1849C163.784 25.1849 163.819 25.1512 163.853 25.1175C163.887 25.0838 163.922 25.0838 163.956 25.0502C163.991 25.0502 164.025 25.0155 164.06 24.9819C164.129 24.9482 164.198 24.8808 164.266 24.8472C164.343 24.8016 164.413 24.7449 164.473 24.6788C164.542 24.6105 164.611 24.5768 164.68 24.5104C164.749 24.4421 164.818 24.3747 164.852 24.3074C164.921 24.2391 164.956 24.1717 165.025 24.1044C165.059 24.037 165.128 23.9697 165.162 23.9023L165.266 23.6993C165.304 23.6381 165.328 23.569 165.335 23.4973C165.335 23.4626 165.369 23.429 165.369 23.3616V23.3279C165.317 23.3363 165.269 23.3597 165.231 23.3953C165.162 23.429 165.128 23.4626 165.059 23.4963C165.059 23.4963 165.025 23.4963 165.025 23.5309C164.956 23.5646 164.921 23.5983 164.852 23.632C164.779 23.67 164.719 23.7286 164.68 23.8004L164.439 24.037C164.37 24.1044 164.301 24.2054 164.198 24.3074C164.129 24.4084 164.06 24.4758 163.991 24.5768L163.784 24.8808L163.75 24.9482C163.715 25.0156 163.646 25.1166 163.612 25.1849C163.68 25.2185 163.715 25.2185 163.75 25.1849ZM172.743 15.0227L171.468 16.2725C171.365 16.3736 171.227 16.3736 171.158 16.2725L170.607 15.6645C170.538 15.5971 170.538 15.4624 170.641 15.3604L171.917 14.1116C172.02 14.0105 172.157 14.0105 172.227 14.1116L172.778 14.7196C172.847 14.787 172.847 14.9217 172.743 15.0227ZM161.407 11.7485C161.407 11.6812 161.338 11.6129 161.268 11.6129L160.821 11.4445C160.718 11.4108 160.579 11.4782 160.511 11.5792C160.494 11.5978 160.484 11.6219 160.484 11.647C160.484 11.6721 160.494 11.6963 160.511 11.7148L160.786 12.9637C160.786 13.0311 160.855 13.0984 160.924 13.0984L161.372 13.2668C161.475 13.3014 161.613 13.2341 161.682 13.1321C161.699 13.1136 161.708 13.0896 161.708 13.0647C161.708 13.0399 161.699 13.0159 161.682 12.9974L161.407 11.7485ZM163.405 32.781C163.509 32.7473 163.612 32.6454 163.577 32.5443C163.577 32.5107 163.543 32.477 163.543 32.4433L163.095 31.8015C163.065 31.7686 163.027 31.7425 162.986 31.7251C162.944 31.7076 162.899 31.6993 162.854 31.7005C162.509 31.7679 162.199 31.8352 161.888 31.8689C161.544 31.9372 161.165 32.0046 160.752 32.0719L160.201 32.1729L159.649 32.274C159.442 32.3086 159.27 32.3423 159.132 32.3759C158.96 32.4096 158.822 32.4433 158.616 32.477C157.995 32.6117 157.444 32.7473 156.892 32.9166C156.375 33.0514 155.824 33.2197 155.273 33.3545C155.22 33.3754 155.177 33.4145 155.152 33.4645C155.126 33.5144 155.121 33.5718 155.135 33.6257C155.135 33.6585 155.169 33.6585 155.169 33.6922L155.652 34.3339C155.721 34.4013 155.824 34.4349 155.893 34.4013C156.41 34.2665 156.961 34.0972 157.547 33.9288C158.15 33.7586 158.759 33.612 159.373 33.4892C159.512 33.4564 159.683 33.4227 159.89 33.3881C160.097 33.3545 160.269 33.3208 160.407 33.2871C160.614 33.2534 160.786 33.2197 160.958 33.1861L161.51 33.085L161.993 32.9831L162.578 32.882L163.405 32.781ZM168.057 10.0263C168.092 9.92526 168.057 9.8579 167.989 9.82423L167.403 9.41916C167.352 9.38759 167.292 9.37695 167.234 9.38958C167.175 9.4022 167.125 9.43707 167.093 9.48652C167.058 9.5202 167.058 9.55387 167.058 9.58755L166.265 12.6597C166.231 12.7607 166.265 12.8281 166.334 12.8627L166.92 13.2677C166.97 13.2991 167.031 13.3096 167.089 13.297C167.147 13.2843 167.198 13.2496 167.23 13.2004C167.299 13.0984 167.954 10.3977 168.057 10.0263ZM201 23.834C201 23.5983 200.448 23.8686 200.345 23.9697C200.242 24.0707 200.207 24.1044 199.208 25.3542C198.002 26.8725 196.934 28.0203 196.003 28.8305C194.591 30.0803 193.316 30.6874 192.213 30.6874C186.32 30.6874 194.487 18.6009 194.487 18.6355C194.487 17.5214 193.109 16.6102 192.179 17.6561C190.8 20.0537 186.354 28.4263 184.081 28.4263C180.635 28.4263 185.976 20.0537 185.976 19.9181C185.976 19.6141 185.665 19.4457 185.08 19.4457C182.978 19.4457 180.91 24.1044 180.876 27.2785C179.222 28.5274 177.017 29.8099 174.984 29.8099C172.123 29.8099 172.674 26.7715 173.192 24.9828C178.463 24.0034 183.874 16.1705 178.705 15.5625C172.261 14.8206 166.3 31.0588 174.294 31.0588C176.671 31.0588 179.084 29.7762 180.98 28.3926C181.186 29.5059 181.772 30.2486 182.84 30.2486C185.218 30.2486 187.802 26.0624 189.008 24.3074C188.146 26.9735 186.906 32.0382 191.454 32.0382C193.109 32.0382 194.901 31.1944 196.796 29.4722C198.278 28.156 199.553 26.6031 200.656 24.8135C200.897 24.4421 201 24.1044 201 23.834ZM197.485 10.9711C194.935 14.6513 186.665 17.15 186.01 11.0731C185.873 9.85697 186.94 9.28352 187.32 10.6334C188.629 15.6645 194.074 13.4698 196.762 10.8027C197.244 10.364 198.105 10.0936 197.485 10.9711ZM178.808 18.2978C178.808 20.3232 175.431 23.0922 173.639 23.834C174.019 22.4841 176.741 17.5887 178.085 17.5887C178.567 17.5887 178.808 17.8254 178.808 18.2978ZM121.193 26.299L120.779 26.3664C120.917 26.3664 121.055 26.3327 121.193 26.299Z" fill="white"/>
</g>
</g>
<defs>
<clipPath id="clip0_105_1600">
<rect width="201" height="58" fill="white"/>
</clipPath>
</defs>
</svg>
