<svg width="42" height="40" viewBox="0 0 42 40" fill="none" xmlns="http://www.w3.org/2000/svg">
<path fill-rule="evenodd" clip-rule="evenodd" d="M13.7256 10.0016C13.7256 6.31973 16.7982 3.33496 20.5884 3.33496C24.3786 3.33496 27.4511 6.31973 27.4511 10.0016V18.335H24.0197V10.0016C24.0197 8.16068 22.4835 6.66829 20.5884 6.66829C18.6933 6.66829 17.157 8.16068 17.157 10.0016V18.335H13.7256V10.0016Z" fill="url(#paint0_linear_128_878)"/>
<path fill-rule="evenodd" clip-rule="evenodd" d="M16.7429 15H24.4337C25.8147 15 26.9546 15 27.8831 15.0737C28.8475 15.1502 29.734 15.3145 30.5667 15.7266C31.858 16.3658 32.9078 17.3857 33.5658 18.6401C33.9901 19.449 34.1591 20.3101 34.238 21.247C34.3139 22.149 34.3137 23.2562 34.3137 24.5979V27.0688C34.3137 28.4104 34.3139 29.5177 34.238 30.4197C34.1591 31.3565 33.9901 32.2177 33.5658 33.0266C32.9078 34.281 31.858 35.3009 30.5667 35.94C29.734 36.3522 28.8475 36.5165 27.8831 36.593C26.9546 36.6667 25.8147 36.6667 24.4337 36.6667H16.7429C15.3619 36.6667 14.222 36.6667 13.2935 36.593C12.3291 36.5165 11.4426 36.3522 10.6099 35.94C9.31861 35.3009 8.26874 34.281 7.61079 33.0266C7.18651 32.2177 7.01741 31.3565 6.93861 30.4197C6.86275 29.5177 6.86277 28.4105 6.86279 27.0688V24.5978C6.86277 23.2562 6.86275 22.149 6.93861 21.247C7.01741 20.3101 7.18651 19.449 7.61079 18.6401C8.26874 17.3857 9.31861 16.3658 10.6099 15.7266C11.4426 15.3145 12.3291 15.1502 13.2935 15.0737C14.222 15 15.3619 15 16.7429 15ZM13.573 18.3959C12.8208 18.4556 12.4361 18.5638 12.1677 18.6966C11.5221 19.0162 10.9972 19.5262 10.6682 20.1534C10.5315 20.414 10.4201 20.7877 10.3586 21.5184C10.2955 22.2685 10.2942 23.239 10.2942 24.6667V27C10.2942 28.4276 10.2955 29.3981 10.3586 30.1483C10.4201 30.879 10.5315 31.2526 10.6682 31.5133C10.9972 32.1405 11.5221 32.6504 12.1677 32.97C12.4361 33.1028 12.8208 33.2111 13.573 33.2708C14.3451 33.332 15.3442 33.3333 16.8137 33.3333H24.3628C25.8324 33.3333 26.8315 33.332 27.6036 33.2708C28.3558 33.2111 28.7405 33.1028 29.0089 32.97C29.6545 32.6504 30.1794 32.1405 30.5084 31.5133C30.6451 31.2526 30.7565 30.879 30.818 30.1483C30.8811 29.3981 30.8824 28.4276 30.8824 27V24.6667C30.8824 23.239 30.8811 22.2685 30.818 21.5184C30.7565 20.7877 30.6451 20.414 30.5084 20.1534C30.1794 19.5262 29.6545 19.0162 29.0089 18.6966C28.7405 18.5638 28.3558 18.4556 27.6036 18.3959C26.8315 18.3346 25.8324 18.3333 24.3628 18.3333H16.8137C15.3442 18.3333 14.3451 18.3346 13.573 18.3959Z" fill="url(#paint1_linear_128_878)"/>
<path d="M18.8726 26.6667C18.8726 25.7462 19.6407 25 20.5883 25C21.5359 25 22.304 25.7462 22.304 26.6667V28.3333C22.304 29.2538 21.5359 30 20.5883 30C19.6407 30 18.8726 29.2538 18.8726 28.3333V26.6667Z" fill="url(#paint2_linear_128_878)"/>
<defs>
<linearGradient id="paint0_linear_128_878" x1="20.5884" y1="3.33496" x2="20.5884" y2="18.335" gradientUnits="userSpaceOnUse">
<stop stop-color="#A582F8"/>
<stop offset="1" stop-color="#8899F8"/>
</linearGradient>
<linearGradient id="paint1_linear_128_878" x1="20.5883" y1="15" x2="20.5883" y2="36.6667" gradientUnits="userSpaceOnUse">
<stop stop-color="#A582F8"/>
<stop offset="1" stop-color="#8899F8"/>
</linearGradient>
<linearGradient id="paint2_linear_128_878" x1="20.5883" y1="25" x2="20.5883" y2="30" gradientUnits="userSpaceOnUse">
<stop stop-color="#A582F8"/>
<stop offset="1" stop-color="#8899F8"/>
</linearGradient>
</defs>
</svg>
