<svg width="42" height="40" viewBox="0 0 42 40" fill="none" xmlns="http://www.w3.org/2000/svg">
<path fill-rule="evenodd" clip-rule="evenodd" d="M17.7696 5H24.0804C25.6276 4.99999 26.8756 4.99998 27.8913 5.0673C28.9357 5.13652 29.8592 5.28246 30.7337 5.63434C32.8357 6.48012 34.5057 8.10241 35.3764 10.1443C35.7385 10.9938 35.8888 11.8909 35.96 12.9055C36.0293 13.8922 36.0293 15.1045 36.0293 16.6075V16.7259C36.0293 18.2288 36.0293 19.4411 35.96 20.4278C35.8888 21.4424 35.7385 22.3395 35.3764 23.189C34.5057 25.2309 32.8357 26.8532 30.7337 27.699C29.8592 28.0509 28.9357 28.1968 27.8913 28.266C26.8756 28.3334 25.6276 28.3333 24.0804 28.3333H19.6077C18.8192 28.3333 18.662 28.341 18.5338 28.3661C18.2349 28.4246 17.9576 28.5593 17.7301 28.7565C17.6325 28.8411 17.5318 28.9586 17.0587 29.5714L17.0218 29.6193C15.9826 30.9654 15.1544 32.038 14.4767 32.8136C13.8397 33.5425 13.1197 34.2757 12.2603 34.6208C9.89576 35.5703 7.17217 34.6884 5.86698 32.5505C5.39264 31.7736 5.26944 30.7674 5.2101 29.8129C5.14696 28.7976 5.14696 27.4567 5.14697 25.7742V17.262C5.14695 15.4557 5.14694 13.9988 5.24617 12.819C5.34834 11.6042 5.56419 10.5372 6.08197 9.55008C6.90441 7.98206 8.21674 6.70722 9.83088 5.90828C10.847 5.4053 11.9454 5.19561 13.1959 5.09636C14.4104 4.99997 15.9102 4.99998 17.7696 5ZM13.4753 8.41863C12.4371 8.50103 11.8405 8.65466 11.3887 8.8783C10.4202 9.35767 9.63281 10.1226 9.13934 11.0634C8.90912 11.5023 8.75097 12.0818 8.66615 13.0904C8.57968 14.1185 8.57834 15.439 8.57834 17.3333V25.7143C8.57834 27.4702 8.57911 28.7095 8.63523 29.6119C8.66299 30.0584 8.70179 30.3722 8.7474 30.5933C8.78607 30.7808 8.81977 30.851 8.82163 30.8555C9.25687 31.5625 10.1587 31.8545 10.9435 31.5426C10.9478 31.5401 11.0181 31.5036 11.1648 31.3761C11.338 31.2258 11.5628 30.9974 11.8608 30.6564C12.463 29.9672 13.2291 28.9761 14.3137 27.5714C14.3385 27.5392 14.3631 27.5073 14.3876 27.4756C14.745 27.0119 15.0591 26.6044 15.4454 26.2694C16.1277 25.678 16.96 25.2737 17.8564 25.0984C18.3641 24.9991 18.8882 24.9995 19.4845 24.9999C19.5253 25 19.5664 25 19.6077 25H24.0195C25.6418 25 26.7726 24.9991 27.6577 24.9404C28.5274 24.8828 29.0339 24.775 29.4206 24.6194C30.6817 24.1119 31.6838 23.1386 32.2062 21.9134C32.3664 21.5378 32.4773 21.0458 32.5366 20.2009C32.5971 19.3411 32.598 18.2426 32.598 16.6667C32.598 15.0907 32.5971 13.9922 32.5366 13.1324C32.4773 12.2876 32.3664 11.7956 32.2062 11.4199C31.6838 10.1948 30.6817 9.22141 29.4206 8.71394C29.0339 8.55834 28.5274 8.45055 27.6577 8.3929C26.7726 8.33424 25.6418 8.33333 24.0195 8.33333H17.843C15.893 8.33333 14.5337 8.33463 13.4753 8.41863Z" fill="url(#paint0_linear_128_884)"/>
<path d="M13.7254 18.3333C14.673 18.3333 15.4411 17.5871 15.4411 16.6667C15.4411 15.7462 14.673 15 13.7254 15C12.7778 15 12.0098 15.7462 12.0098 16.6667C12.0098 17.5871 12.7778 18.3333 13.7254 18.3333Z" fill="url(#paint1_linear_128_884)"/>
<path d="M22.304 16.6667C22.304 17.5871 21.5359 18.3333 20.5883 18.3333C19.6407 18.3333 18.8726 17.5871 18.8726 16.6667C18.8726 15.7462 19.6407 15 20.5883 15C21.5359 15 22.304 15.7462 22.304 16.6667Z" fill="url(#paint2_linear_128_884)"/>
<path d="M29.1667 16.6667C29.1667 17.5871 28.3985 18.3333 27.4511 18.3333C26.5035 18.3333 25.7354 17.5871 25.7354 16.6667C25.7354 15.7462 26.5035 15 27.4511 15C28.3985 15 29.1667 15.7462 29.1667 16.6667Z" fill="url(#paint3_linear_128_884)"/>
<defs>
<linearGradient id="paint0_linear_128_884" x1="20.5881" y1="5" x2="20.5881" y2="35.0007" gradientUnits="userSpaceOnUse">
<stop stop-color="#A582F8"/>
<stop offset="1" stop-color="#8899F8"/>
</linearGradient>
<linearGradient id="paint1_linear_128_884" x1="13.7254" y1="15" x2="13.7254" y2="18.3333" gradientUnits="userSpaceOnUse">
<stop stop-color="#A582F8"/>
<stop offset="1" stop-color="#8899F8"/>
</linearGradient>
<linearGradient id="paint2_linear_128_884" x1="20.5883" y1="15" x2="20.5883" y2="18.3333" gradientUnits="userSpaceOnUse">
<stop stop-color="#A582F8"/>
<stop offset="1" stop-color="#8899F8"/>
</linearGradient>
<linearGradient id="paint3_linear_128_884" x1="27.451" y1="15" x2="27.451" y2="18.3333" gradientUnits="userSpaceOnUse">
<stop stop-color="#A582F8"/>
<stop offset="1" stop-color="#8899F8"/>
</linearGradient>
</defs>
</svg>
