<svg width="239" height="44" viewBox="0 0 239 44" fill="none" xmlns="http://www.w3.org/2000/svg">
<g clip-path="url(#clip0_38_827)">
<path d="M21.7276 44C33.7275 44 43.4548 34.1506 43.4548 22V6.6C43.4548 4.84957 42.7681 3.17084 41.5457 1.9331C40.3233 0.695355 38.6654 0 36.9367 0L22.8139 0V9.6514C22.8139 11.8536 22.9465 14.135 24.0872 16.0094C24.9038 17.3527 25.9962 18.5025 27.2903 19.3807C28.5844 20.2589 30.0499 20.8449 31.5874 21.0991L32.0035 21.1673C32.175 21.2267 32.3239 21.3389 32.4294 21.4882C32.5348 21.6375 32.5915 21.8164 32.5915 22C32.5915 22.1836 32.5348 22.3625 32.4294 22.5118C32.3239 22.6611 32.175 22.7733 32.0035 22.8327L31.5874 22.9009C29.341 23.2725 27.2666 24.3491 25.6571 25.9788C24.0476 27.6085 22.9843 29.709 22.6173 31.9836L22.5499 32.4049C22.4913 32.5786 22.3805 32.7294 22.233 32.8361C22.0856 32.9429 21.9088 33.0003 21.7276 33.0003C21.5463 33.0003 21.3695 32.9429 21.2221 32.8361C21.0746 32.7294 20.9638 32.5786 20.9052 32.4049L20.8378 31.9836C20.5867 30.4268 20.0079 28.9429 19.1406 27.6326C18.2733 26.3223 17.1379 25.2161 15.8112 24.3892C13.9601 23.2342 11.7069 23.1 9.53205 23.1H0.0263672C0.594535 34.7391 10.0926 44 21.7276 44Z" fill="#979797"/>
<path d="M0 20.9H9.53176C11.7067 20.9 13.9598 20.7658 15.8109 19.6108C17.258 18.708 18.4761 17.4746 19.3677 16.0094C20.5084 14.135 20.6409 11.8536 20.6409 9.6514V0H6.51818C4.78945 0 3.13153 0.695355 1.90913 1.9331C0.686735 3.17084 0 4.84957 0 6.6L0 20.9ZM50.467 2.2C50.467 2.78348 50.2381 3.34306 49.8306 3.75564C49.4232 4.16822 48.8705 4.4 48.2943 4.4C47.7181 4.4 47.1654 4.16822 46.7579 3.75564C46.3505 3.34306 46.1216 2.78348 46.1216 2.2C46.1216 1.61652 46.3505 1.05695 46.7579 0.644365C47.1654 0.231785 47.7181 0 48.2943 0C48.8705 0 49.4232 0.231785 49.8306 0.644365C50.2381 1.05695 50.467 1.61652 50.467 2.2ZM229.995 13.3144C236.069 13.3144 239 17.6099 239 22.5852V31.9297H232.644V23.694C232.644 21.439 231.831 19.5778 229.501 19.5778C227.171 19.5778 226.394 21.439 226.394 23.694V31.9286H220.038V23.694C220.038 21.439 219.261 19.5778 216.929 19.5778C214.599 19.5778 213.787 21.439 213.787 23.694V31.9286H207.431V22.5841C207.431 17.6088 210.361 13.3133 216.435 13.3133C219.755 13.3133 222.156 14.6377 223.251 16.8212C224.416 14.6377 226.959 13.3122 229.995 13.3122V13.3144ZM196.009 26.202C198.057 26.202 198.94 24.3045 198.94 22.0484V14.0294H205.296V22.836C205.296 28.0984 202.259 32.4665 196.009 32.4665C189.758 32.4665 186.722 28.0995 186.722 22.836V14.0294H193.078V22.0484C193.078 24.3034 193.96 26.202 196.009 26.202ZM177.376 32.5017C173.386 32.5017 170.808 31.1058 169.289 28.3855L173.88 25.7719C174.516 26.917 175.468 27.4901 177.058 27.4901C178.365 27.4901 178.964 27.0248 178.964 26.4517C178.964 24.2682 169.642 26.488 169.642 19.5437C169.642 16.1777 172.467 13.4574 177.27 13.4574C181.472 13.4574 183.767 15.5331 184.792 17.5384L180.201 20.1872C179.813 19.1136 178.611 18.469 177.411 18.469C176.493 18.469 175.999 18.8628 175.999 19.3996C175.999 21.6194 185.321 19.5789 185.321 26.3087C185.321 30.0674 181.683 32.5017 177.376 32.5017ZM155.169 40.1632H148.812V22.9438C148.812 17.4658 152.873 13.4926 158.523 13.4926C164.032 13.4926 168.234 17.7529 168.234 22.9438C168.234 28.6715 164.491 32.4665 158.876 32.4665C157.569 32.4665 156.264 32.0727 155.169 31.4633V40.1632ZM158.523 26.4165C160.536 26.4165 161.878 24.8413 161.878 22.979C161.878 21.0826 160.536 19.5426 158.523 19.5426C156.51 19.5426 155.169 21.0826 155.169 22.9801C155.169 24.8413 156.51 26.4165 158.523 26.4165ZM142.445 12.133C140.361 12.133 138.632 10.3785 138.632 8.2665C138.632 6.1545 140.361 4.4 142.445 4.4C144.529 4.4 146.259 6.1545 146.259 8.2665C146.259 10.3785 144.529 12.133 142.445 12.133ZM139.267 14.0294H145.624V31.9297H139.267V14.0294ZM127.072 32.4665C121.563 32.4665 117.361 28.171 117.361 22.9438C117.361 17.7529 121.563 13.4574 127.072 13.4574C132.581 13.4574 136.783 17.7529 136.783 22.9438C136.783 28.171 132.581 32.4665 127.072 32.4665ZM127.072 26.4165C129.085 26.4165 130.427 24.8413 130.427 22.979C130.427 21.0826 129.085 19.5074 127.072 19.5074C125.059 19.5074 123.717 21.0826 123.717 22.979C123.717 24.8413 125.059 26.4165 127.072 26.4165ZM105.359 40.7C100.981 40.7 97.8021 38.731 96.1779 35.222L101.439 32.3587C102.004 33.5764 103.063 34.8293 105.252 34.8293C107.549 34.8293 109.067 33.3608 109.244 30.7835C108.396 31.5359 107.054 32.1079 105.042 32.1079C100.132 32.1079 96.1769 28.2777 96.1769 22.9075C96.1769 17.7177 100.38 13.4926 105.889 13.4926C111.539 13.4926 115.6 17.4669 115.6 22.9438V30.0322C115.6 36.476 111.185 40.7 105.359 40.7ZM105.782 26.059C107.689 26.059 109.137 24.7335 109.137 22.7645C109.137 20.8318 107.69 19.5426 105.782 19.5426C103.911 19.5426 102.428 20.8318 102.428 22.7656C102.428 24.7346 103.911 26.0579 105.782 26.0579V26.059ZM85.3958 32.4665C79.8868 32.4665 75.6837 28.171 75.6837 22.9438C75.6837 17.7529 79.8868 13.4574 85.3958 13.4574C90.9037 13.4574 95.1068 17.7529 95.1068 22.9438C95.1068 28.171 90.9047 32.4665 85.3958 32.4665ZM85.3958 26.4165C87.4088 26.4165 88.7505 24.8413 88.7505 22.979C88.7505 21.0826 87.4088 19.5074 85.3958 19.5074C83.3828 19.5074 82.0411 21.0826 82.0411 22.979C82.0411 24.8413 83.3828 26.4165 85.3958 26.4165ZM64.1096 7.766V25.8434H74.6332V31.9297H63.2264C59.2014 31.9297 57.5773 29.7814 57.5773 26.3802V7.766H64.1096Z" fill="#979797"/>
</g>
<defs>
<clipPath id="clip0_38_827">
<rect width="239" height="44" fill="white"/>
</clipPath>
</defs>
</svg>
