<svg width="105" height="40" viewBox="0 0 105 40" fill="none" xmlns="http://www.w3.org/2000/svg">
<g clip-path="url(#clip0_38_906)">
<path d="M48.1357 35.2381H50.8701V24.9238H48.1357V35.2381ZM48.1357 23.3153H50.8701V20.8624H48.1357V23.3153Z" fill="#979797"/>
<path d="M52.6318 38.6159H55.3662V34.072H55.4065C55.9895 34.9566 56.9345 35.5397 58.3821 35.5397C61.0361 35.5397 62.8456 33.4286 62.8456 30.091C62.8456 26.874 61.0964 24.6423 58.362 24.6423C56.9546 24.6423 55.9895 25.3058 55.326 26.2105H55.2657V24.9238H52.6318V38.6159ZM57.7991 33.2677C56.1705 33.2677 55.3059 32.0413 55.3059 30.1714C55.3059 28.3217 55.9895 26.8539 57.6985 26.8539C59.3874 26.8539 60.071 28.2211 60.071 30.1714C60.071 32.1217 59.1864 33.2677 57.7991 33.2677Z" fill="#979797"/>
<path d="M68.3011 35.5397C70.8746 35.5397 72.6439 34.2931 72.6439 32.2222C72.6439 29.8095 70.7339 29.327 69.0048 28.9651C67.537 28.6635 66.1698 28.583 66.1698 27.6984C66.1698 26.9545 66.8735 26.5523 67.9392 26.5523C69.1053 26.5523 69.809 26.9545 69.9296 28.0603H72.4027C72.2016 25.9894 70.6937 24.6423 67.9794 24.6423C65.627 24.6423 63.7772 25.7079 63.7772 27.9396C63.7772 30.1915 65.5868 30.6942 67.4365 31.0561C68.8439 31.3375 70.1508 31.4381 70.1508 32.4233C70.1508 33.1471 69.4672 33.6095 68.2608 33.6095C67.0344 33.6095 66.1899 33.0868 66.009 31.9005H63.4756C63.6365 34.0921 65.3053 35.5397 68.3011 35.5397Z" fill="#979797"/>
<path d="M83.0255 35.2381V24.9238H80.2911V30.8751C80.2911 32.2423 79.507 33.2074 78.2202 33.2074C77.0541 33.2074 76.5112 32.5439 76.5112 31.3375V24.9238H73.7969V31.8C73.7969 34.0518 75.0837 35.5196 77.3758 35.5196C78.8234 35.5196 79.6276 34.9767 80.3314 34.0317H80.3917V35.2381H83.0255Z" fill="#979797"/>
<path d="M84.7939 35.2381H87.5284V29.2465C87.5284 27.8793 88.2723 26.9947 89.3781 26.9947C90.3834 26.9947 90.9665 27.5978 90.9665 28.764V35.2381H93.7009V29.2465C93.7009 27.8793 94.4046 26.9947 95.5506 26.9947C96.5559 26.9947 97.139 27.5978 97.139 28.764V35.2381H99.8734V28.3016C99.8734 26.0497 98.6469 24.6423 96.4755 24.6423C95.1686 24.6423 94.0829 25.3259 93.3792 26.4518H93.339C92.8363 25.3661 91.7908 24.6423 90.4839 24.6423C89.0564 24.6423 88.0511 25.3661 87.4881 26.3111H87.4278V24.9238H84.7939V35.2381Z" fill="#979797"/>
<path d="M48.1758 17.572H50.9102V3.19629H48.1758V17.572Z" fill="#979797"/>
<path d="M57.5966 17.8736C60.7935 17.8736 62.985 15.5011 62.985 12.4249C62.985 9.34869 60.7935 6.9762 57.5966 6.9762C54.3998 6.9762 52.2082 9.34869 52.2082 12.4249C52.2082 15.5011 54.3998 17.8736 57.5966 17.8736ZM57.5966 15.7826C55.9077 15.7826 54.9829 14.4355 54.9829 12.4249C54.9829 10.4143 55.9077 9.04711 57.5966 9.04711C59.2654 9.04711 60.2104 10.4143 60.2104 12.4249C60.2104 14.4355 59.2654 15.7826 57.5966 15.7826Z" fill="#979797"/>
<path d="M68.7995 21.0906C70.3276 21.0906 71.6546 20.7287 72.5191 19.9244C73.2831 19.2207 73.7456 18.2355 73.7456 16.7879V7.25768H71.1117V8.3434H71.0715C70.4482 7.47884 69.5032 6.9762 68.2164 6.9762C65.6027 6.9762 63.7529 8.94658 63.7529 12.0228C63.7529 15.1392 66.0048 16.9487 68.2969 16.9487C69.6038 16.9487 70.3879 16.426 70.9911 15.7424H71.0514V16.8683C71.0514 18.2757 70.3075 19.0196 68.7593 19.0196C67.4926 19.0196 66.9096 18.517 66.6884 17.8736H63.9741C64.2556 19.8842 65.9847 21.0906 68.7995 21.0906ZM68.7593 14.7572C67.3519 14.7572 66.427 13.7318 66.427 11.9826C66.427 10.2535 67.3519 9.16774 68.7392 9.16774C70.3879 9.16774 71.1921 10.4545 71.1921 11.9625C71.1921 13.4905 70.4884 14.7572 68.7593 14.7572Z" fill="#979797"/>
<path d="M80.3925 17.8736C83.5893 17.8736 85.7809 15.5011 85.7809 12.4249C85.7809 9.34869 83.5893 6.9762 80.3925 6.9762C77.1957 6.9762 75.0041 9.34869 75.0041 12.4249C75.0041 15.5011 77.1957 17.8736 80.3925 17.8736ZM80.3925 15.7826C78.7036 15.7826 77.7787 14.4355 77.7787 12.4249C77.7787 10.4143 78.7036 9.04711 80.3925 9.04711C82.0613 9.04711 83.0063 10.4143 83.0063 12.4249C83.0063 14.4355 82.0613 15.7826 80.3925 15.7826Z" fill="#979797"/>
<path d="M88.1779 13.6313H100V11.2789H88.1779V13.6313Z" fill="#979797"/>
<path d="M100.867 23.1717C100.867 22.709 101.242 22.3339 101.705 22.3339H103.38C103.843 22.3339 104.218 22.709 104.218 23.1717C104.218 23.6343 103.843 24.0094 103.38 24.0094H101.705C101.242 24.0094 100.867 23.6343 100.867 23.1717Z" fill="#979797"/>
<path fill-rule="evenodd" clip-rule="evenodd" d="M20.5216 0C31.5673 0 40.5216 8.9543 40.5216 20C40.5216 31.0457 31.5673 40 20.5216 40C9.47591 40 0.521606 31.0457 0.521606 20C0.521606 8.9543 9.47591 0 20.5216 0ZM19.7987 1.49659C17.5171 1.81769 15.3445 3.65108 13.658 6.7174C13.1688 7.60683 12.7274 8.58946 12.3427 9.65044C14.6359 9.07417 17.155 8.73442 19.7987 8.68187V1.49659ZM10.6524 10.1308C11.1307 8.62958 11.7159 7.2484 12.3912 6.02065C13.2272 4.50059 14.2194 3.18795 15.3373 2.17977C9.2584 3.94523 4.46683 8.73679 2.70138 14.8157C3.70955 13.6978 5.0222 12.7056 6.54226 11.8696C7.77001 11.1943 9.15118 10.6091 10.6524 10.1308ZM10.172 11.8211C9.59577 14.1143 9.25603 16.6334 9.20348 19.2771H2.01819C2.3393 16.9954 4.17269 14.8228 7.23901 13.1364C8.12844 12.6472 9.11107 12.2058 10.172 11.8211ZM10.6496 19.2771C10.7093 16.392 11.1246 13.6834 11.8118 11.2902C14.205 10.603 16.9137 10.1876 19.7987 10.1279V13.2508C18.7224 16.0062 16.5272 18.2012 13.7717 19.2771H10.6496ZM9.20348 20.7229H2.01819C2.3393 23.0046 4.17269 25.1771 7.23901 26.8636C8.12844 27.3528 9.11107 27.7942 10.172 28.1789C9.59577 25.8857 9.25603 23.3666 9.20348 20.7229ZM11.8118 28.7098C11.1246 26.3166 10.7093 23.608 10.6496 20.7229H13.7717C16.5272 21.7988 18.7225 23.9938 19.7987 26.7492V29.8721C16.9137 29.8124 14.205 29.397 11.8118 28.7098ZM10.6524 29.8692C9.15118 29.3909 7.77001 28.8057 6.54226 28.1304C5.0222 27.2944 3.70955 26.3022 2.70138 25.1843C4.46683 31.2632 9.2584 36.0548 15.3373 37.8202C14.2194 36.812 13.2272 35.4994 12.3912 33.9793C11.7159 32.7516 11.1307 31.3704 10.6524 29.8692ZM19.7987 38.5034C17.5171 38.1823 15.3445 36.3489 13.658 33.2826C13.1688 32.3932 12.7274 31.4105 12.3427 30.3496C14.6359 30.9258 17.155 31.2656 19.7987 31.3181V38.5034ZM25.7059 37.8202C26.8238 36.812 27.816 35.4994 28.6521 33.9793C29.3273 32.7516 29.9125 31.3704 30.3908 29.8692C31.892 29.3909 33.2732 28.8057 34.501 28.1304C36.021 27.2944 37.3337 26.3022 38.3418 25.1843C36.5764 31.2632 31.7848 36.0548 25.7059 37.8202ZM28.7005 30.3496C28.3158 31.4105 27.8744 32.3932 27.3852 33.2826C25.6988 36.3489 23.5262 38.1823 21.2445 38.5034V31.3181C23.8882 31.2656 26.4073 30.9258 28.7005 30.3496ZM30.8712 28.1789C31.9321 27.7942 32.9148 27.3528 33.8042 26.8636C36.8705 25.1771 38.7039 23.0046 39.025 20.7229H31.8397C31.7872 23.3666 31.4474 25.8857 30.8712 28.1789ZM30.3937 20.7229C30.334 23.608 29.9186 26.3166 29.2314 28.7098C26.8382 29.397 24.1296 29.8124 21.2445 29.8721V26.7515C22.3204 23.9951 24.5161 21.7991 27.2724 20.7229H30.3937ZM31.8397 19.2771H39.025C38.7039 16.9954 36.8705 14.8228 33.8042 13.1364C32.9148 12.6472 31.9321 12.2058 30.8712 11.8211C31.4474 14.1143 31.7872 16.6334 31.8397 19.2771ZM29.2314 11.2902C29.9186 13.6834 30.334 16.392 30.3937 19.2771H27.2724C24.5161 18.2009 22.3204 16.0049 21.2445 13.2485V10.1279C24.1296 10.1876 26.8382 10.603 29.2314 11.2902ZM30.3908 10.1308C31.892 10.6091 33.2732 11.1943 34.501 11.8696C36.021 12.7056 37.3337 13.6978 38.3418 14.8157C36.5764 8.73679 31.7848 3.94523 25.7059 2.17977C26.8238 3.18795 27.816 4.50059 28.6521 6.02065C29.3273 7.2484 29.9125 8.62958 30.3908 10.1308ZM21.2445 1.49659C23.5262 1.81769 25.6988 3.65108 27.3852 6.7174C27.8744 7.60684 28.3158 8.58946 28.7005 9.65044C26.4073 9.07417 23.8882 8.73442 21.2445 8.68187V1.49659Z" fill="#979797"/>
</g>
<defs>
<clipPath id="clip0_38_906">
<rect width="105" height="40" fill="white"/>
</clipPath>
</defs>
</svg>
