<svg width="175" height="40" viewBox="0 0 175 40" fill="none" xmlns="http://www.w3.org/2000/svg">
<g clip-path="url(#clip0_38_830)">
<path d="M50.953 20.782C50.9876 20.1158 50.9876 19.4482 50.953 18.782H13.004C12.996 18.948 12.989 19.115 12.985 19.282H5.035L5.031 19.532H0.75V20.032H5.03L5.036 20.282H12.985C12.989 20.45 12.995 20.616 13.005 20.782H23.9C23.8586 20.4503 23.8379 20.1163 23.838 19.782H39.838C39.838 20.121 39.818 20.455 39.776 20.782H50.953ZM50.874 17.782H39.587C39.4992 17.4417 39.389 17.1077 39.257 16.782H24.422C24.291 17.106 24.18 17.439 24.092 17.782H13.082C13.1 17.615 13.12 17.448 13.142 17.282H5.192L5.226 17.038H0.75V16.538H5.305L5.351 16.282H13.301C13.331 16.115 13.365 15.948 13.401 15.782H50.557C50.697 16.437 50.804 17.104 50.874 17.782ZM50.314 14.782H38.084C37.7956 14.422 37.4767 14.0874 37.131 13.782H26.547C26.202 14.088 25.882 14.422 25.594 14.782H13.644C13.689 14.615 13.737 14.448 13.787 14.282H5.837L5.925 14.001H0.75V13.5H6.092L6.17 13.281H14.12C14.18 13.113 14.244 12.947 14.31 12.781H49.647C49.905 13.431 50.128 14.1 50.314 14.782ZM49.217 11.782H14.74C14.818 11.614 14.898 11.448 14.981 11.282H7.032L7.173 11.006H0.75V10.506H7.444L7.571 10.282H15.521C15.618 10.114 15.718 9.947 15.82 9.782H48.137C48.535 10.424 48.897 11.092 49.217 11.782ZM13.082 21.782H50.875C50.804 22.46 50.697 23.128 50.557 23.782H38.769C38.954 23.462 39.118 23.128 39.258 22.782H24.42C24.56 23.128 24.723 23.462 24.908 23.782H13.4C13.3644 23.6158 13.3311 23.4491 13.3 23.282H5.351C5.33471 23.1941 5.31905 23.1061 5.304 23.018H0.75V22.518H5.225C5.21352 22.4394 5.20252 22.3607 5.192 22.282H13.142C13.1198 22.1156 13.0998 21.9489 13.082 21.782ZM13.643 24.782H50.313C50.128 25.465 49.905 26.132 49.647 26.782H35.715C36.2217 26.5007 36.6965 26.1655 37.131 25.782H26.547C26.9815 26.1655 27.4563 26.5007 27.963 26.782H14.31C14.2444 26.6162 14.181 26.4495 14.12 26.282H6.17L6.084 26.041H0.75V25.541H5.918C5.89072 25.4549 5.86406 25.3685 5.838 25.282H13.787C13.737 25.116 13.689 24.95 13.643 24.782ZM14.74 27.782H49.217C48.8973 28.4697 48.5367 29.1375 48.137 29.782H15.82C15.7174 29.6169 15.6174 29.4502 15.52 29.282H7.571C7.521 29.196 7.472 29.11 7.424 29.023H0.75V28.523H7.155L7.032 28.283H14.982C14.8989 28.1175 14.8182 27.9508 14.74 27.783V27.782ZM17.67 32.282C17.817 32.452 17.968 32.618 18.122 32.782H45.835C46.4252 32.1531 46.9721 31.4849 47.472 30.782H16.485C16.605 30.951 16.727 31.118 16.853 31.282H8.903L9.101 31.537H0.75V32.037H9.51C9.579 32.12 9.649 32.201 9.72 32.282H17.67ZM20.987 35.282C21.23 35.455 21.477 35.622 21.727 35.782H42.23C43.1504 35.1909 44.0183 34.5218 44.824 33.782H19.134C19.319 33.952 19.508 34.119 19.7 34.282H11.75C11.858 34.374 11.967 34.464 12.077 34.552H0.75V35.052H12.722C12.826 35.13 12.932 35.207 13.038 35.282H20.988H20.987ZM28.004 38.366C29.286 38.639 30.615 38.782 31.978 38.782C35.032 38.782 37.917 38.062 40.473 36.782H23.483C23.839 36.96 24.2 37.127 24.567 37.282H16.617C16.759 37.342 16.902 37.401 17.045 37.458H0.75V37.958H18.475C20.232 38.494 22.097 38.782 24.029 38.782C25.392 38.782 26.722 38.639 28.004 38.366ZM16.485 8.782H47.472C46.9721 8.07912 46.4252 7.41092 45.835 6.782H18.122C17.968 6.946 17.817 7.112 17.669 7.282H9.72L9.544 7.488H0.75V7.988H9.132C9.055 8.085 8.979 8.183 8.904 8.282H16.853C16.727 8.447 16.605 8.614 16.485 8.782ZM19.133 5.782H44.823C44.0176 5.04225 43.1501 4.37312 42.23 3.782H21.727C21.477 3.943 21.23 4.11 20.987 4.282H13.038C12.928 4.361 12.818 4.44 12.71 4.521H0.75V5.021H12.066C11.96 5.107 11.855 5.194 11.751 5.282H19.7C19.508 5.445 19.319 5.612 19.133 5.782ZM23.484 2.782H40.474C37.8369 1.46244 34.9278 0.77755 31.979 0.782C30.615 0.782 29.286 0.926 28.004 1.199C26.6973 0.921201 25.3649 0.781434 24.029 0.782C21.895 0.782 19.844 1.134 17.929 1.782H0.75V2.282H24.567C24.2008 2.43722 23.8396 2.60397 23.484 2.782ZM111.998 0.5C112.655 0.5 113.171 0.664 113.546 0.992C113.937 1.305 114.132 1.742 114.132 2.306C114.132 2.869 113.937 3.314 113.546 3.642C113.171 3.955 112.655 4.112 111.998 4.112C111.342 4.112 110.818 3.955 110.427 3.642C110.052 3.314 109.864 2.869 109.864 2.306C109.864 1.743 110.052 1.306 110.427 0.992C110.818 0.664 111.342 0.5 111.998 0.5ZM113.827 6.292V16.493C113.827 17.15 113.937 17.596 114.156 17.83C114.39 18.065 114.781 18.182 115.328 18.182V18.674C114.891 18.6526 114.453 18.637 114.015 18.627C113.414 18.5955 112.811 18.5799 112.209 18.58C111.6 18.58 110.982 18.596 110.357 18.627C109.888 18.6373 109.419 18.653 108.95 18.674V18.182C109.497 18.182 109.88 18.065 110.099 17.83C110.333 17.596 110.451 17.15 110.451 16.493V9.106C110.451 8.403 110.341 7.886 110.122 7.559C109.919 7.215 109.528 7.043 108.95 7.043V6.55C109.45 6.597 109.935 6.62 110.404 6.62C111.06 6.62 111.67 6.597 112.233 6.55C112.811 6.488 113.343 6.402 113.827 6.292Z" fill="#979797"/>
<path fill-rule="evenodd" clip-rule="evenodd" d="M120.427 8.44403V6.29203C119.943 6.40203 119.411 6.48803 118.833 6.55003C118.254 6.59703 117.644 6.62003 117.003 6.62003C116.534 6.62003 116.05 6.59703 115.549 6.55003V7.04303C116.112 7.04303 116.503 7.21503 116.722 7.55903C116.941 7.88703 117.05 8.40303 117.05 9.10603V20.832C117.05 21.457 116.941 21.879 116.722 22.098C116.519 22.317 116.159 22.426 115.643 22.426V22.919L116.886 22.849C117.457 22.8331 118.027 22.8251 118.598 22.825C119.395 22.825 120.146 22.833 120.849 22.848C121.568 22.88 122.131 22.903 122.538 22.918V22.426C121.881 22.426 121.365 22.301 120.99 22.051C120.615 21.817 120.427 21.332 120.427 20.597V18.247C120.633 18.419 120.875 18.561 121.154 18.674C121.654 18.894 122.209 19.003 122.819 19.003C123.648 19.003 124.39 18.854 125.047 18.557C125.715 18.2633 126.302 17.8129 126.759 17.244C127.243 16.65 127.611 15.923 127.861 15.063C128.127 14.203 128.26 13.203 128.26 12.061C128.26 10.764 128.072 9.68503 127.697 8.82503C127.322 7.94903 126.821 7.30103 126.196 6.87903C125.571 6.44127 124.825 6.21139 124.062 6.22203C123.155 6.22203 122.358 6.45603 121.67 6.92503C121.129 7.29003 120.715 7.79603 120.427 8.44503V8.44403ZM120.427 9.25003V17.751C120.557 17.905 120.714 18.033 120.896 18.135C121.193 18.291 121.529 18.369 121.905 18.369C122.608 18.369 123.163 18.135 123.57 17.666C123.976 17.181 124.265 16.509 124.437 15.649C124.625 14.774 124.719 13.734 124.719 12.53C124.719 11.186 124.633 10.13 124.461 9.36403C124.289 8.59803 124.054 8.05103 123.757 7.72303C123.46 7.39403 123.101 7.23003 122.678 7.23003C122.116 7.23003 121.6 7.45003 121.131 7.88703C120.778 8.22703 120.543 8.68203 120.427 9.25003Z" fill="#979797"/>
<path d="M133.644 6.22203C134.301 6.22203 134.871 6.30803 135.356 6.48003C135.856 6.63603 136.216 6.79303 136.435 6.94903C136.966 7.30903 137.295 7.07403 137.42 6.24503H137.912C137.881 6.68303 137.857 7.22303 137.842 7.86303C137.826 8.48903 137.818 9.32503 137.818 10.373H137.326C137.245 9.78669 137.096 9.21198 136.88 8.66103C136.681 8.12633 136.35 7.65037 135.919 7.27703C135.512 6.91703 134.981 6.73703 134.324 6.73703C133.871 6.73703 133.488 6.87103 133.175 7.13703C132.862 7.38703 132.706 7.75403 132.706 8.23903C132.706 8.70803 132.847 9.12203 133.128 9.48203C133.41 9.82603 133.769 10.162 134.207 10.49C134.66 10.803 135.129 11.139 135.614 11.498C136.13 11.889 136.599 12.28 137.021 12.671C137.425 13.0247 137.766 13.4451 138.029 13.914C138.28 14.367 138.405 14.906 138.405 15.532C138.405 16.235 138.201 16.852 137.795 17.384C137.388 17.9 136.849 18.299 136.177 18.58C135.52 18.862 134.785 19.003 133.973 19.003C133.546 19.0079 133.121 18.9605 132.706 18.862C132.38 18.781 132.066 18.6629 131.768 18.51C131.565 18.416 131.369 18.33 131.182 18.252C131.022 18.1643 130.857 18.0861 130.689 18.018C130.533 17.971 130.392 18.025 130.267 18.182C130.158 18.338 130.072 18.557 130.009 18.838H129.517C129.548 18.338 129.572 17.728 129.587 17.009C129.603 16.29 129.611 15.336 129.611 14.149H130.103C130.197 14.993 130.369 15.743 130.619 16.399C130.869 17.041 131.205 17.549 131.627 17.924C132.065 18.284 132.612 18.464 133.269 18.464C133.535 18.464 133.793 18.409 134.043 18.299C134.293 18.189 134.496 18.009 134.653 17.759C134.825 17.509 134.911 17.189 134.911 16.799C134.911 16.11 134.684 15.539 134.23 15.086C133.793 14.633 133.23 14.14 132.542 13.609C132.042 13.202 131.565 12.804 131.112 12.413C130.692 12.0287 130.328 11.5866 130.033 11.1C129.747 10.6005 129.601 10.0333 129.611 9.45803C129.611 8.75503 129.798 8.16103 130.173 7.67603C130.555 7.18597 131.067 6.81232 131.651 6.59703C132.285 6.3453 132.961 6.21798 133.644 6.22203ZM162.755 6.48003C162.348 6.30803 161.817 6.22203 161.16 6.22203C160.424 6.21456 159.699 6.39199 159.05 6.73803C158.409 7.06603 157.901 7.62103 157.525 8.40303V6.29303C157.041 6.40203 156.509 6.48803 155.931 6.55003C155.368 6.59703 154.758 6.62003 154.102 6.62003C153.633 6.62003 153.148 6.59703 152.648 6.55003V7.04303C153.226 7.04303 153.617 7.21503 153.82 7.55903C154.039 7.88703 154.148 8.40303 154.148 9.10603V16.493C154.148 17.15 154.031 17.596 153.797 17.83C153.578 18.065 153.195 18.182 152.648 18.182V18.674C153.116 18.653 153.585 18.6374 154.055 18.627C154.664 18.5962 155.274 18.5805 155.884 18.58C156.431 18.58 156.963 18.596 157.478 18.627C158.01 18.643 158.401 18.659 158.651 18.674V18.182C158.245 18.182 157.955 18.065 157.783 17.83C157.611 17.596 157.525 17.15 157.525 16.493V9.97403C157.525 9.45803 157.627 8.99703 157.83 8.59003C158.049 8.16803 158.33 7.84003 158.674 7.60603C159.004 7.37584 159.397 7.25294 159.8 7.25403C160.16 7.25403 160.425 7.34003 160.597 7.51203C160.785 7.66803 160.91 7.89503 160.973 8.19203C161.035 8.47303 161.066 8.80903 161.066 9.20003V16.493C161.066 17.15 160.98 17.596 160.808 17.83C160.652 18.065 160.363 18.182 159.941 18.182V18.674C160.222 18.659 160.636 18.643 161.184 18.627C162.293 18.5638 163.405 18.5638 164.514 18.627C165.092 18.643 165.522 18.659 165.803 18.674V18.182C165.303 18.182 164.951 18.065 164.748 17.83C164.545 17.596 164.443 17.15 164.443 16.493V10.078L164.442 10.005L164.438 9.76803C164.474 9.37604 164.578 8.99348 164.748 8.63803C164.967 8.21503 165.248 7.87903 165.592 7.62903C165.936 7.37903 166.312 7.25403 166.718 7.25403C167.124 7.25403 167.422 7.34003 167.609 7.51203C167.812 7.66803 167.945 7.89503 168.008 8.19203C168.086 8.47303 168.125 8.80903 168.125 9.20003V16.493C168.125 17.15 168.039 17.596 167.867 17.83C167.711 18.065 167.422 18.182 166.999 18.182V18.674C167.281 18.659 167.695 18.643 168.242 18.627C168.796 18.5956 169.351 18.5799 169.907 18.58C170.486 18.58 171.072 18.596 171.666 18.627C172.26 18.643 172.706 18.659 173.003 18.674V18.182C172.456 18.182 172.065 18.065 171.83 17.83C171.611 17.596 171.502 17.15 171.502 16.493V10.185C171.502 9.40303 171.447 8.77803 171.338 8.30903C171.228 7.82403 171.049 7.43403 170.798 7.13703C170.548 6.85503 170.22 6.63703 169.813 6.48003C169.407 6.30803 168.875 6.22203 168.219 6.22203C167.422 6.22203 166.671 6.38603 165.968 6.71403C165.294 7.03603 164.748 7.65003 164.329 8.55603C164.314 8.47325 164.298 8.39088 164.279 8.30903C164.17 7.82403 163.99 7.43403 163.74 7.13703C163.49 6.85503 163.161 6.63703 162.755 6.48003ZM150.808 16.118V6.29203C150.323 6.40203 149.792 6.48803 149.213 6.55003C148.651 6.59703 148.041 6.62003 147.384 6.62003C146.915 6.62003 146.431 6.59703 145.93 6.55003V7.04303C146.509 7.04303 146.9 7.21503 147.103 7.55903C147.322 7.88703 147.431 8.40303 147.431 9.10603V15.25C147.431 15.766 147.322 16.235 147.103 16.657C146.917 17.0434 146.634 17.3749 146.282 17.619C145.954 17.8538 145.559 17.9771 145.156 17.971C144.766 17.971 144.469 17.892 144.265 17.736C144.054 17.5516 143.906 17.3057 143.843 17.033C143.776 16.6931 143.745 16.3473 143.749 16.001V6.29203C143.265 6.40203 142.733 6.48803 142.155 6.55003C141.592 6.59703 140.982 6.62003 140.326 6.62003C139.857 6.62003 139.372 6.59703 138.872 6.55003V7.04303C139.45 7.04303 139.841 7.21503 140.044 7.55903C140.263 7.88703 140.372 8.40303 140.372 9.10603V15.039C140.372 15.805 140.427 16.431 140.537 16.915C140.646 17.4 140.834 17.791 141.099 18.088C141.334 18.354 141.654 18.573 142.061 18.745C142.467 18.916 142.999 19.003 143.656 19.003C144.469 19.003 145.203 18.838 145.86 18.51C146.532 18.166 147.056 17.603 147.431 16.822V18.932C147.954 18.8031 148.488 18.7168 149.026 18.674C149.589 18.627 150.198 18.604 150.855 18.604C151.34 18.604 151.824 18.627 152.309 18.674V18.182C151.746 18.182 151.355 18.018 151.136 17.689C150.917 17.345 150.808 16.822 150.808 16.119V16.118Z" fill="#979797"/>
<path fill-rule="evenodd" clip-rule="evenodd" d="M105.446 6.85494C104.586 6.43294 103.585 6.22194 102.444 6.22194C101.334 6.22194 100.341 6.43294 99.466 6.85494C98.606 7.27694 97.926 7.95694 97.426 8.89494C96.941 9.83294 96.698 11.0759 96.698 12.6239C96.698 14.1719 96.941 15.4139 97.425 16.3529C97.925 17.2749 98.605 17.9469 99.465 18.3689C100.341 18.7909 101.334 19.0029 102.444 19.0029C103.585 19.0029 104.586 18.7909 105.446 18.3689C106.305 17.9469 106.978 17.2749 107.462 16.3529C107.947 15.4149 108.189 14.1719 108.189 12.6239C108.189 11.0759 107.947 9.83394 107.462 8.89494C106.978 7.95694 106.305 7.27694 105.446 6.85494ZM100.873 8.09794C101.295 7.15994 101.819 6.69094 102.444 6.69094C103.085 6.69094 103.609 7.15994 104.015 8.09794C104.437 9.01994 104.648 10.5289 104.648 12.6239C104.648 14.7189 104.437 16.2279 104.015 17.1499C103.609 18.0719 103.085 18.5339 102.444 18.5339C101.819 18.5339 101.295 18.0719 100.873 17.1499C100.451 16.2279 100.24 14.7189 100.24 12.6239C100.24 10.5289 100.45 9.01994 100.873 8.09794ZM89.051 23.0829C88.081 23.0829 87.214 22.9969 86.448 22.8249C85.698 22.6689 85.104 22.4189 84.666 22.0749C84.244 21.7459 84.033 21.3399 84.033 20.8549C84.033 20.3699 84.251 19.9329 84.689 19.5419C85.127 19.1669 85.776 18.8699 86.636 18.6509L86.846 19.0259C86.5775 19.2276 86.3541 19.483 86.19 19.7759C86.065 20.0579 86.002 20.3469 86.002 20.6439C86.002 21.3009 86.299 21.8009 86.894 22.1439C87.504 22.5039 88.324 22.6839 89.356 22.6839C90.059 22.6839 90.685 22.5899 91.232 22.4029C91.795 22.2149 92.232 21.9329 92.545 21.5589C92.874 21.1829 93.038 20.7219 93.038 20.1749C93.038 19.7059 92.866 19.3069 92.522 18.9789C92.178 18.6659 91.49 18.5099 90.458 18.5099H89.004C88.364 18.5099 87.8 18.4399 87.316 18.2989C86.846 18.1589 86.479 17.9389 86.213 17.6419C85.948 17.3299 85.815 16.9389 85.815 16.4699C85.815 15.8129 86.073 15.2349 86.589 14.7339C86.993 14.3419 87.551 13.9689 88.263 13.6159C87.7949 13.5577 87.3351 13.4453 86.893 13.2809C86.19 13.0149 85.635 12.6079 85.229 12.0609C84.822 11.5139 84.619 10.8109 84.619 9.95094C84.619 9.09094 84.822 8.38694 85.229 7.83994C85.635 7.27694 86.19 6.86994 86.894 6.61994C87.597 6.35494 88.394 6.22194 89.285 6.22194C90.177 6.22194 90.974 6.35494 91.677 6.62094C92.141 6.78494 92.539 7.01794 92.874 7.31794C93.073 7.03094 93.315 6.77494 93.6 6.54994C94.132 6.14394 94.703 5.93994 95.312 5.93994C95.812 5.93994 96.188 6.08094 96.438 6.36294C96.704 6.62794 96.837 6.97994 96.837 7.41794C96.837 7.88694 96.711 8.23794 96.461 8.47294C96.211 8.69294 95.93 8.80194 95.617 8.80194C95.3418 8.7983 95.0765 8.69854 94.867 8.51994C94.647 8.33194 94.523 8.05094 94.492 7.67594C94.465 7.33994 94.559 6.92394 94.774 6.42594C94.318 6.61994 93.966 6.84094 93.718 7.08994C93.531 7.2702 93.3677 7.4735 93.232 7.69494C93.27 7.74194 93.307 7.79094 93.342 7.83994C93.749 8.38694 93.952 9.08994 93.952 9.94994C93.952 10.8099 93.749 11.5139 93.342 12.0609C92.936 12.6079 92.381 13.0149 91.677 13.2809C90.974 13.5459 90.177 13.6789 89.285 13.6789C89.1516 13.6791 89.0182 13.6761 88.885 13.6699C88.674 13.8129 88.471 13.9649 88.277 14.1249C88.1565 14.2192 88.0598 14.3404 87.9947 14.4788C87.9296 14.6173 87.8978 14.769 87.902 14.9219C87.902 15.4219 88.215 15.6719 88.84 15.6719H91.396C92.256 15.6719 93.022 15.7739 93.694 15.9769C94.382 16.1809 94.921 16.5169 95.312 16.9859C95.719 17.4389 95.922 18.0329 95.922 18.7679C95.922 19.5339 95.672 20.2449 95.172 20.9019C94.687 21.5589 93.937 22.0819 92.92 22.4729C91.904 22.8799 90.614 23.0829 89.051 23.0829ZM89.285 13.2569C89.708 13.2569 90.035 13.0229 90.27 12.5539C90.505 12.0689 90.622 11.2009 90.622 9.95094C90.622 8.69994 90.505 7.83994 90.27 7.37094C90.036 6.88594 89.708 6.64394 89.286 6.64394C88.879 6.64394 88.551 6.88594 88.301 7.37094C88.066 7.83994 87.949 8.69994 87.949 9.95094C87.949 11.2009 88.066 12.0689 88.301 12.5539C88.551 13.0229 88.879 13.2569 89.285 13.2569ZM80.997 6.85494C80.137 6.43294 79.137 6.22194 77.996 6.22194C76.886 6.22194 75.893 6.43294 75.018 6.85494C74.158 7.27694 73.478 7.95694 72.978 8.89494C72.493 9.83294 72.25 11.0759 72.25 12.6239C72.25 14.1719 72.493 15.4139 72.977 16.3529C73.477 17.2749 74.157 17.9469 75.017 18.3689C75.893 18.7909 76.886 19.0029 77.996 19.0029C79.137 19.0029 80.138 18.7909 80.997 18.3689C81.857 17.9469 82.529 17.2749 83.014 16.3529C83.499 15.4149 83.741 14.1719 83.741 12.6239C83.741 11.0759 83.499 9.83394 83.014 8.89494C82.53 7.95694 81.857 7.27694 80.997 6.85494ZM76.424 8.09794C76.847 7.15994 77.37 6.69094 77.996 6.69094C78.636 6.69094 79.16 7.15994 79.566 8.09794C79.989 9.01994 80.2 10.5289 80.2 12.6239C80.2 14.7189 79.989 16.2279 79.567 17.1499C79.16 18.0719 78.637 18.5339 77.996 18.5339C77.37 18.5339 76.846 18.0719 76.424 17.1499C76.002 16.2279 75.791 14.7189 75.791 12.6239C75.791 10.5289 76.002 9.01994 76.424 8.09794Z" fill="#979797"/>
<path d="M65.934 2.07104V2.54104C65.403 2.55604 64.996 2.61804 64.715 2.72804C64.5864 2.77159 64.4701 2.8455 64.3761 2.9435C64.2821 3.0415 64.2131 3.16072 64.175 3.29104C64.082 3.55604 64.035 3.97904 64.035 4.55704V16.47C64.035 16.954 64.066 17.314 64.129 17.549C64.207 17.783 64.348 17.939 64.551 18.018C64.77 18.096 65.091 18.135 65.512 18.135H66.662C67.192 18.135 67.693 18.01 68.162 17.76C68.632 17.51 69.053 17.158 69.428 16.704C69.8235 16.1998 70.1401 15.6384 70.367 15.039C70.617 14.399 70.804 13.687 70.929 12.905H71.469C71.422 13.437 71.399 14.125 71.399 14.969C71.399 15.329 71.406 15.852 71.422 16.54C71.438 17.228 71.484 17.94 71.562 18.674C70.6637 18.6409 69.7649 18.6253 68.866 18.627C67.866 18.612 66.974 18.604 66.192 18.604H64.692C64.082 18.604 63.425 18.612 62.722 18.627C62.018 18.627 61.307 18.635 60.588 18.651C59.868 18.651 59.188 18.659 58.548 18.674V18.205C59.048 18.174 59.423 18.111 59.673 18.018C59.923 17.924 60.087 17.736 60.166 17.455C60.259 17.173 60.306 16.751 60.306 16.188V4.55704C60.306 3.97804 60.259 3.55704 60.166 3.29104C60.1352 3.16096 60.0716 3.04092 59.9813 2.94237C59.891 2.84382 59.7769 2.77003 59.65 2.72804C59.4 2.61804 59.032 2.55604 58.548 2.54004V2.07104C59.7825 2.11678 61.0177 2.14012 62.253 2.14104C62.941 2.14104 63.613 2.13404 64.269 2.11804C64.942 2.10204 65.497 2.08704 65.934 2.07104Z" fill="#979797"/>
<path fill-rule="evenodd" clip-rule="evenodd" d="M170.621 38.053C170.588 37.885 170.61 37.666 170.689 37.396L173.992 25.429C173.464 25.6458 172.916 25.8148 172.357 25.934C171.784 26.047 171.127 26.108 170.385 26.12L170.267 26.474C170.818 26.474 171.161 26.564 171.296 26.744C171.43 26.924 171.447 27.204 171.346 27.586L170.564 30.535C170.515 30.3927 170.431 30.2653 170.318 30.165C170.127 29.985 169.863 29.895 169.526 29.895C168.852 29.895 168.228 30.047 167.655 30.35C167.079 30.6649 166.56 31.0754 166.121 31.564C165.66 32.0591 165.269 32.6149 164.958 33.216C164.652 33.8009 164.409 34.4167 164.233 35.053C164.074 35.601 163.989 36.1681 163.98 36.739C163.98 37.278 164.065 37.722 164.233 38.07C164.402 38.407 164.632 38.66 164.924 38.828C165.216 38.986 165.542 39.064 165.902 39.064C166.452 39.064 166.947 38.902 167.385 38.576C167.823 38.239 168.233 37.722 168.616 37.025C168.776 36.741 168.937 36.422 169.097 36.068L168.986 36.486C168.885 36.8152 168.817 37.154 168.784 37.497C168.762 37.789 168.784 38.037 168.852 38.239C168.986 38.789 169.402 39.065 170.099 39.065C170.357 39.065 170.621 39.014 170.891 38.913C171.161 38.812 171.413 38.638 171.649 38.39C171.897 38.143 172.093 37.79 172.239 37.328L172.644 36.098H172.324L172.054 36.856C171.852 37.43 171.661 37.817 171.481 38.019C171.312 38.211 171.138 38.306 170.958 38.306C170.767 38.306 170.655 38.222 170.621 38.053ZM169.722 33.713C169.595 34.124 169.457 34.515 169.307 34.884C169.026 35.604 168.728 36.222 168.413 36.739C168.11 37.244 167.812 37.637 167.52 37.919C167.228 38.188 166.969 38.323 166.745 38.323C166.531 38.323 166.374 38.222 166.273 38.02C166.183 37.806 166.138 37.486 166.138 37.059C166.138 36.452 166.205 35.834 166.34 35.205C166.475 34.565 166.66 33.952 166.896 33.368C167.114 32.8199 167.385 32.2947 167.705 31.8C168.009 31.328 168.329 30.957 168.666 30.687C169.014 30.417 169.357 30.283 169.694 30.283C169.919 30.283 170.099 30.362 170.234 30.519C170.328 30.621 170.4 30.769 170.45 30.965L169.722 33.713Z" fill="#979797"/>
<path d="M159.405 38.828H157.332L159.354 31.564C159.456 31.227 159.489 30.991 159.456 30.856C159.422 30.721 159.321 30.654 159.152 30.654C158.939 30.654 158.742 30.761 158.562 30.974C158.382 31.187 158.197 31.564 158.006 32.104L157.719 32.895H157.399L157.837 31.631C157.995 31.181 158.191 30.834 158.427 30.586C158.663 30.328 158.922 30.148 159.203 30.047C159.484 29.946 159.77 29.895 160.062 29.895C160.422 29.895 160.686 29.968 160.854 30.115C161.034 30.261 161.147 30.452 161.192 30.688C161.249 30.9424 161.26 31.2048 161.225 31.463C161.203 31.733 161.158 31.997 161.09 32.255L160.819 33.312L160.888 33.132C161.203 32.334 161.506 31.699 161.798 31.227C162.102 30.744 162.422 30.401 162.759 30.199C163.089 29.9983 163.469 29.8931 163.855 29.895C164.259 29.895 164.568 30.013 164.782 30.249C165.007 30.485 165.119 30.777 165.119 31.126C165.119 31.406 165.051 31.671 164.917 31.918C164.786 32.1498 164.601 32.3464 164.377 32.491C164.164 32.626 163.917 32.693 163.636 32.693C163.355 32.693 163.13 32.62 162.961 32.474C162.804 32.328 162.725 32.114 162.725 31.834C162.725 31.586 162.782 31.362 162.894 31.159C163.002 30.9614 163.152 30.7892 163.332 30.654C163.512 30.508 163.709 30.407 163.922 30.35C163.898 30.3269 163.87 30.3097 163.838 30.3C163.8 30.2881 163.76 30.2824 163.72 30.283C163.473 30.283 163.22 30.373 162.961 30.553C162.703 30.721 162.433 30.997 162.152 31.379C161.871 31.761 161.585 32.266 161.293 32.895C160.963 33.6388 160.671 34.3984 160.416 35.171C160.289 35.545 160.161 35.947 160.033 36.378L159.405 38.828Z" fill="#979797"/>
<path fill-rule="evenodd" clip-rule="evenodd" d="M153.107 36.224L153.036 36.486C152.93 36.8666 152.856 37.2557 152.817 37.649C152.783 38.009 152.839 38.312 152.985 38.559C153.21 38.896 153.592 39.065 154.131 39.065C154.39 39.065 154.648 39.014 154.907 38.913C155.176 38.812 155.429 38.638 155.665 38.39C155.901 38.132 156.098 37.772 156.255 37.312L156.677 36.082H156.356L156.103 36.84C155.901 37.424 155.705 37.812 155.514 38.003C155.323 38.193 155.137 38.289 154.957 38.289C154.811 38.289 154.716 38.244 154.671 38.154C154.636 38.0395 154.624 37.919 154.637 37.8C154.659 37.6571 154.693 37.5162 154.738 37.379L156.913 29.895C156.574 29.9759 156.231 30.0323 155.884 30.064C155.536 30.098 155.16 30.12 154.755 30.131L154.511 31.033C154.501 30.8039 154.434 30.581 154.317 30.384C154.229 30.2303 154.101 30.1036 153.947 30.0174C153.792 29.9313 153.617 29.8889 153.44 29.895C152.946 29.895 152.452 30.047 151.957 30.35C151.431 30.6805 150.959 31.09 150.558 31.564C150.104 32.0808 149.709 32.6459 149.378 33.249C149.047 33.8537 148.781 34.4924 148.586 35.154C148.402 35.7492 148.306 36.368 148.3 36.991C148.3 37.621 148.446 38.126 148.738 38.508C149.03 38.879 149.479 39.064 150.086 39.064C150.513 39.064 150.923 38.941 151.317 38.694C151.721 38.446 152.103 38.036 152.463 37.464C152.686 37.119 152.9 36.706 153.107 36.224ZM151.654 37.935C151.395 38.171 151.165 38.289 150.963 38.289C150.794 38.289 150.665 38.205 150.575 38.036C150.496 37.856 150.457 37.559 150.457 37.143C150.457 36.547 150.524 35.935 150.659 35.306C150.794 34.676 150.974 34.07 151.199 33.486C151.435 32.901 151.693 32.379 151.974 31.918C152.255 31.458 152.536 31.092 152.817 30.822C153.109 30.552 153.384 30.418 153.643 30.418C153.912 30.418 154.103 30.553 154.216 30.822C154.328 31.066 154.357 31.393 154.303 31.802L153.805 33.644L153.862 33.351C153.682 34.07 153.468 34.733 153.221 35.34C153.006 35.8826 152.747 36.4067 152.446 36.907C152.176 37.345 151.912 37.688 151.654 37.935ZM146.034 37.396C145.955 37.666 145.933 37.885 145.967 38.053C146 38.222 146.113 38.306 146.304 38.306C146.484 38.306 146.658 38.211 146.826 38.02C147.006 37.817 147.197 37.43 147.399 36.856L147.669 36.098H147.989L147.585 37.328C147.439 37.789 147.242 38.143 146.995 38.39C146.785 38.6196 146.525 38.7985 146.236 38.913C145.983 39.0111 145.715 39.0626 145.444 39.065C144.748 39.065 144.332 38.789 144.197 38.239C144.126 37.9985 144.103 37.7463 144.13 37.497C144.152 37.205 144.219 36.867 144.332 36.486L144.443 36.068C144.282 36.422 144.121 36.741 143.961 37.025C143.579 37.722 143.169 38.239 142.731 38.575C142.304 38.8975 141.782 39.0698 141.247 39.065C140.888 39.065 140.562 38.985 140.27 38.829C139.969 38.6509 139.728 38.3864 139.579 38.07C139.41 37.722 139.326 37.278 139.326 36.739C139.326 36.222 139.41 35.659 139.579 35.053C139.747 34.435 139.989 33.823 140.303 33.216C140.614 32.6151 141.005 32.0593 141.466 31.564C141.927 31.058 142.438 30.654 143 30.35C143.576 30.0458 144.219 29.8895 144.871 29.895C145.208 29.895 145.472 29.985 145.663 30.165C145.773 30.262 145.856 30.385 145.91 30.535L146.691 27.586C146.793 27.204 146.776 26.923 146.641 26.743C146.506 26.563 146.163 26.473 145.613 26.473L145.731 26.12C146.393 26.1162 147.052 26.0539 147.703 25.934C148.262 25.8148 148.809 25.6458 149.338 25.429L146.034 37.396ZM144.652 34.884C144.802 34.514 144.941 34.124 145.067 33.713L145.796 30.965C145.761 30.8009 145.686 30.6478 145.579 30.519C145.513 30.4415 145.43 30.38 145.337 30.3391C145.243 30.2983 145.142 30.2791 145.04 30.283C144.703 30.283 144.36 30.418 144.012 30.687C143.674 30.957 143.354 31.328 143.051 31.8C142.73 32.2941 142.459 32.819 142.242 33.367C142.002 33.9619 141.816 34.577 141.686 35.205C141.553 35.814 141.485 36.4355 141.483 37.059C141.483 37.486 141.528 37.806 141.618 38.019C141.719 38.222 141.877 38.323 142.09 38.323C142.315 38.323 142.573 38.188 142.865 37.918C143.158 37.638 143.455 37.244 143.759 36.738C144.109 36.1467 144.408 35.5264 144.652 34.884Z" fill="#979797"/>
<path d="M130.044 38.828H132.117L132.312 38.066L132.302 38.121C132.516 37.334 132.757 36.576 133.027 35.845C133.289 35.1474 133.582 34.4614 133.903 33.789C134.207 33.159 134.51 32.609 134.814 32.137C135.117 31.665 135.409 31.3 135.69 31.041C135.971 30.771 136.229 30.637 136.465 30.637C136.656 30.637 136.774 30.704 136.819 30.839C136.866 30.9922 136.872 31.1549 136.836 31.311C136.802 31.4937 136.757 31.674 136.701 31.851L135.168 36.486C135.01 36.958 134.92 37.362 134.898 37.699C134.875 38.036 134.937 38.312 135.083 38.525C135.196 38.694 135.353 38.823 135.555 38.913C135.769 39.013 136.022 39.065 136.314 39.065C136.583 39.065 136.853 39.014 137.123 38.913C137.404 38.823 137.662 38.654 137.898 38.407C138.145 38.16 138.348 37.8 138.505 37.328L138.926 36.098H138.606L138.336 36.856C138.123 37.441 137.921 37.828 137.73 38.019C137.55 38.211 137.376 38.306 137.207 38.306C137.027 38.306 136.915 38.233 136.87 38.086C136.825 37.93 136.853 37.699 136.954 37.396L138.606 32.44C138.752 32.002 138.825 31.592 138.825 31.21C138.836 30.817 138.73 30.502 138.505 30.266C138.291 30.019 137.909 29.896 137.359 29.896C136.943 29.896 136.544 29.986 136.162 30.165C135.78 30.345 135.409 30.659 135.05 31.109C134.69 31.547 134.319 32.143 133.937 32.895C133.684 33.4023 133.451 33.9197 133.24 34.446L133.802 32.255C133.87 31.985 133.92 31.715 133.954 31.446C133.988 31.166 133.976 30.912 133.92 30.687C133.866 30.4547 133.728 30.2505 133.533 30.114C133.342 29.968 133.061 29.895 132.69 29.895C132.24 29.895 131.83 30.019 131.459 30.266C131.089 30.513 130.785 30.968 130.549 31.631L130.111 32.895H130.431L130.718 32.103C130.92 31.553 131.105 31.176 131.274 30.974C131.454 30.761 131.65 30.654 131.864 30.654C132.021 30.654 132.117 30.699 132.151 30.789C132.195 30.879 132.207 30.991 132.184 31.126C132.159 31.2738 132.125 31.4201 132.083 31.564L130.044 38.828Z" fill="#979797"/>
<path fill-rule="evenodd" clip-rule="evenodd" d="M125.748 36.486L125.819 36.224C125.639 36.6544 125.423 37.0692 125.175 37.464C124.815 38.036 124.433 38.447 124.028 38.694C123.635 38.941 123.225 39.064 122.798 39.064C122.191 39.064 121.742 38.879 121.45 38.508C121.157 38.126 121.011 37.621 121.011 36.991C121.011 36.407 121.107 35.795 121.298 35.154C121.493 34.4925 121.758 33.8538 122.09 33.249C122.42 32.6457 122.816 32.0806 123.27 31.564C123.671 31.0901 124.143 30.6806 124.669 30.35C125.163 30.047 125.658 29.895 126.152 29.895C126.534 29.895 126.826 30.058 127.029 30.385C127.137 30.552 127.202 30.768 127.223 31.033L127.467 30.131C127.871 30.12 128.248 30.098 128.596 30.064C128.956 30.03 129.298 29.974 129.624 29.895L127.45 37.38C127.404 37.5172 127.37 37.658 127.349 37.801C127.336 37.9201 127.348 38.0405 127.383 38.155C127.428 38.245 127.523 38.29 127.669 38.29C127.849 38.29 128.034 38.195 128.225 38.004C128.416 37.813 128.613 37.424 128.815 36.841L129.068 36.082H129.388L128.967 37.312C128.81 37.773 128.613 38.132 128.377 38.392C128.167 38.6211 127.908 38.7996 127.619 38.914C127.372 39.013 127.109 39.0645 126.843 39.066C126.304 39.066 125.922 38.897 125.697 38.56C125.551 38.313 125.495 38.01 125.529 37.65C125.568 37.2568 125.641 36.8666 125.748 36.486ZM123.674 38.289C123.877 38.289 124.107 38.171 124.366 37.935C124.624 37.688 124.888 37.345 125.158 36.907C125.427 36.469 125.686 35.947 125.933 35.34C126.18 34.733 126.394 34.07 126.574 33.35L126.517 33.644L127.015 31.803C127.068 31.393 127.039 31.066 126.928 30.823C126.815 30.553 126.624 30.418 126.354 30.418C126.096 30.418 125.821 30.553 125.529 30.822C125.248 31.092 124.967 31.457 124.686 31.918C124.405 32.378 124.146 32.901 123.91 33.485C123.683 34.0769 123.503 34.6853 123.371 35.305C123.239 35.9088 123.171 36.5249 123.169 37.143C123.169 37.559 123.208 37.857 123.287 38.036C123.377 38.205 123.506 38.289 123.674 38.289Z" fill="#979797"/>
<path d="M122.18 30.4679L122.231 30.1309H120.223L121.017 27.3669C120.684 27.4488 120.346 27.5052 120.006 27.5359C119.658 27.5689 119.281 27.5919 118.877 27.6029L118.152 30.1309H116.618L116.534 30.4679H118.056L116.331 36.4859C116.185 36.9799 116.135 37.4239 116.18 37.8169C116.236 38.1989 116.393 38.5029 116.652 38.7269C116.921 38.9519 117.309 39.0649 117.815 39.0649C118.388 39.0649 118.882 38.9129 119.298 38.6089C119.714 38.3059 120.04 37.8059 120.276 37.1089L120.613 36.0979H120.292L120.04 36.7889C119.837 37.3509 119.613 37.7439 119.365 37.9689C119.129 38.1939 118.893 38.3059 118.657 38.3059C118.564 38.309 118.472 38.2908 118.387 38.2526C118.302 38.2145 118.228 38.1575 118.169 38.0859C118.056 37.9409 118.045 37.7109 118.135 37.3959L120.126 30.4679H122.18ZM116.598 26.7769C116.486 27.0689 116.334 27.4969 116.143 28.0579C115.963 28.6079 115.784 29.3279 115.604 30.2149H115.267C115.3 30.0579 115.323 29.8949 115.334 29.7269C115.355 29.5762 115.366 29.4242 115.368 29.2719C115.368 28.8329 115.278 28.4519 115.098 28.1259C114.925 27.7841 114.647 27.5062 114.306 27.3329C113.958 27.1309 113.508 27.0299 112.958 27.0299C112.362 27.0299 111.856 27.1869 111.441 27.5019C111.025 27.8049 110.817 28.2939 110.817 28.9679C110.817 29.3839 110.912 29.7779 111.103 30.1479C111.306 30.5079 111.559 30.8619 111.862 31.2099C112.177 31.5469 112.508 31.8899 112.856 32.2379C113.205 32.5749 113.531 32.9239 113.834 33.2829C114.137 33.6429 114.385 34.0249 114.576 34.4289C114.778 34.8229 114.879 35.2549 114.879 35.7269C114.879 36.3229 114.733 36.8339 114.441 37.2609C114.156 37.6804 113.781 38.0315 113.345 38.2889C112.887 38.5508 112.393 38.7438 111.879 38.8619C111.384 38.9941 110.874 39.0623 110.362 39.0649C109.856 39.0649 109.435 39.0249 109.098 38.9469C108.809 38.8927 108.531 38.796 108.272 38.6599C108.051 38.539 107.832 38.4156 107.614 38.2899C107.514 38.2067 107.4 38.1435 107.277 38.1039C107.198 38.0645 107.112 38.0413 107.025 38.0359C106.878 38.0359 106.755 38.1089 106.654 38.2559C106.521 38.4755 106.408 38.7064 106.317 38.9459H105.979C106.257 38.2605 106.488 37.5569 106.671 36.8399C106.805 36.3229 106.957 35.6769 107.126 34.9009H107.463C107.415 35.1242 107.376 35.349 107.345 35.5749C107.311 35.7999 107.3 36.0249 107.311 36.2499C107.345 37.0359 107.586 37.6429 108.036 38.0699C108.497 38.4969 109.171 38.7099 110.058 38.7099C110.811 38.7099 111.379 38.5529 111.761 38.2389C112.143 37.9129 112.334 37.4409 112.334 36.8229C112.334 36.3509 112.244 35.9229 112.064 35.5419C111.894 35.1456 111.667 34.7764 111.39 34.4459C111.104 34.104 110.806 33.7725 110.497 33.4519C110.186 33.1314 109.888 32.7995 109.603 32.4569C109.327 32.1166 109.094 31.743 108.912 31.3449C108.728 30.9193 108.636 30.4596 108.643 29.9959C108.643 29.4349 108.761 28.9459 108.997 28.5299C109.234 28.1242 109.556 27.7737 109.94 27.5019C110.333 27.2209 110.772 27.0098 111.238 26.8779C111.69 26.735 112.162 26.6612 112.637 26.6589C113.244 26.6589 113.744 26.7319 114.137 26.8789C114.531 27.0239 114.868 27.1989 115.149 27.4009L115.469 27.6029C115.57 27.6479 115.649 27.6699 115.705 27.6699C115.862 27.6699 116.048 27.3729 116.261 26.7769H116.598Z" fill="#979797"/>
<path fill-rule="evenodd" clip-rule="evenodd" d="M100.328 38.053C100.294 37.885 100.317 37.666 100.396 37.396L103.699 25.429C103.17 25.6458 102.623 25.8148 102.064 25.934C101.491 26.047 100.834 26.108 100.092 26.12L99.9735 26.474C100.524 26.474 100.868 26.564 101.002 26.744C101.137 26.924 101.154 27.204 101.053 27.586L100.271 30.535C100.221 30.3927 100.137 30.2653 100.025 30.165C99.8335 29.985 99.5695 29.895 99.2325 29.895C98.5575 29.895 97.9345 30.047 97.3615 30.35C96.7851 30.6648 96.2664 31.0754 95.8275 31.564C95.3664 32.0591 94.9751 32.6149 94.6645 33.216C94.3584 33.8009 94.1154 34.4166 93.9395 35.053C93.7795 35.601 93.6944 36.1681 93.6865 36.739C93.6865 37.278 93.7715 37.722 93.9395 38.07C94.1085 38.407 94.3385 38.66 94.6305 38.828C94.9225 38.986 95.2485 39.064 95.6085 39.064C96.1585 39.064 96.6535 38.902 97.0915 38.576C97.5295 38.239 97.9395 37.722 98.3215 37.025C98.4815 36.741 98.6425 36.422 98.8035 36.068L98.6935 36.486C98.5913 36.8151 98.5232 37.1539 98.4905 37.497C98.4637 37.7463 98.4864 37.9985 98.5575 38.239C98.6925 38.789 99.1075 39.065 99.8055 39.065C100.064 39.065 100.328 39.014 100.598 38.913C100.868 38.812 101.12 38.638 101.356 38.39C101.604 38.143 101.8 37.79 101.946 37.328L102.351 36.098H102.031L101.761 36.856C101.559 37.43 101.368 37.817 101.188 38.019C101.019 38.211 100.845 38.306 100.665 38.306C100.475 38.306 100.362 38.222 100.328 38.053ZM99.4275 33.713C99.3015 34.124 99.1635 34.515 99.0125 34.884C98.7325 35.604 98.4345 36.222 98.1195 36.739C97.8165 37.244 97.5185 37.637 97.2265 37.919C96.9345 38.188 96.6765 38.323 96.4505 38.323C96.2375 38.323 96.0805 38.222 95.9795 38.02C95.8895 37.806 95.8445 37.486 95.8445 37.059C95.8445 36.452 95.9115 35.834 96.0465 35.205C96.1815 34.565 96.3665 33.952 96.6025 33.368C96.82 32.8198 97.0913 32.2945 97.4125 31.8C97.7155 31.328 98.0355 30.957 98.3725 30.687C98.7205 30.417 99.0635 30.283 99.4005 30.283C99.6255 30.283 99.8055 30.362 99.9405 30.519C100.035 30.621 100.107 30.769 100.157 30.965L99.4275 33.713Z" fill="#979797"/>
<path d="M86.4783 38.828H84.4053L86.4453 31.564C86.4903 31.407 86.5233 31.261 86.5453 31.126C86.5703 31.013 86.5588 30.895 86.5123 30.789C86.4783 30.699 86.3823 30.654 86.2253 30.654C86.0123 30.654 85.8153 30.761 85.6353 30.974C85.4673 31.176 85.2813 31.553 85.0793 32.104L84.7933 32.895H84.4733L84.9113 31.631C85.1473 30.968 85.4513 30.513 85.8213 30.266C86.1913 30.019 86.6013 29.896 87.0513 29.896C87.4223 29.896 87.7033 29.968 87.8943 30.114C88.0901 30.2503 88.2284 30.4545 88.2823 30.687C88.3383 30.912 88.3493 31.165 88.3163 31.446C88.2819 31.7185 88.2311 31.9886 88.1643 32.255L87.6023 34.447C87.8403 33.858 88.0723 33.342 88.2993 32.895C88.6813 32.143 89.0513 31.547 89.4113 31.109C89.7713 30.659 90.1413 30.345 90.5233 30.165C90.9063 29.985 91.3043 29.895 91.7203 29.895C92.2703 29.895 92.6533 30.019 92.8663 30.266C93.0913 30.502 93.1983 30.816 93.1863 31.21C93.1863 31.592 93.1143 32.002 92.9673 32.44L91.3163 37.396C91.2143 37.699 91.1863 37.93 91.2313 38.086C91.2763 38.233 91.3893 38.306 91.5693 38.306C91.7373 38.306 91.9113 38.211 92.0913 38.02C92.2823 37.828 92.4843 37.44 92.6983 36.856L92.9683 36.098H93.2883L92.8663 37.328C92.7093 37.8 92.5063 38.16 92.2603 38.408C92.0485 38.6393 91.7815 38.813 91.4843 38.913C91.226 39.0121 90.9519 39.0636 90.6753 39.065C90.3833 39.065 90.1303 39.014 89.9173 38.913C89.7143 38.823 89.5573 38.693 89.4453 38.525C89.2993 38.312 89.2373 38.036 89.2593 37.699C89.2823 37.362 89.3723 36.958 89.5293 36.486L91.0633 31.851C91.1193 31.671 91.1643 31.491 91.1983 31.311C91.2336 31.1549 91.2278 30.9922 91.1813 30.839C91.1363 30.704 91.0183 30.637 90.8273 30.637C90.5913 30.637 90.3323 30.772 90.0523 31.041C89.7713 31.3 89.4783 31.665 89.1753 32.137C88.8389 32.6688 88.535 33.2205 88.2653 33.789C87.9623 34.419 87.6693 35.103 87.3883 35.845C87.1183 36.575 86.8783 37.334 86.6643 38.121L86.6743 38.066L86.4783 38.828Z" fill="#979797"/>
<path fill-rule="evenodd" clip-rule="evenodd" d="M80.18 36.2239L80.11 36.4859C80.0038 36.8667 79.9302 37.2557 79.89 37.6489C79.856 38.0089 79.912 38.3119 80.058 38.5589C80.283 38.8959 80.665 39.0649 81.205 39.0649C81.4932 39.0629 81.7779 39.0019 82.0417 38.8859C82.3055 38.7698 82.5428 38.601 82.739 38.3899C82.975 38.1319 83.171 37.7719 83.329 37.3119L83.749 36.0819H83.429L83.177 36.8399C82.974 37.4239 82.777 37.8119 82.587 38.0029C82.396 38.1929 82.21 38.2889 82.031 38.2889C81.884 38.2889 81.789 38.2439 81.744 38.1539C81.7088 38.0395 81.6973 37.919 81.71 37.7999C81.733 37.6539 81.766 37.5139 81.812 37.3789L83.986 29.8949C83.6478 29.9758 83.3043 30.0323 82.958 30.0639C82.609 30.0979 82.233 30.1199 81.828 30.1309L81.584 31.0329C81.5736 30.804 81.507 30.5811 81.39 30.3839C81.3023 30.2305 81.1743 30.1039 81.02 30.0177C80.8656 29.9315 80.6907 29.8891 80.514 29.8949C80.019 29.8949 79.524 30.0469 79.03 30.3499C78.536 30.6539 78.07 31.0579 77.631 31.5639C77.177 32.0806 76.7813 32.6457 76.451 33.2489C76.1195 33.8537 75.854 34.4924 75.659 35.1539C75.4751 35.7492 75.3788 36.368 75.373 36.9909C75.373 37.6209 75.519 38.1259 75.811 38.5079C76.103 38.8789 76.553 39.0639 77.159 39.0639C77.586 39.0639 77.997 38.9409 78.389 38.6939C78.794 38.4459 79.177 38.0359 79.536 37.4639C79.759 37.1189 79.973 36.7059 80.18 36.2239ZM78.727 37.9349C78.469 38.1709 78.238 38.2889 78.036 38.2889C77.867 38.2889 77.738 38.2049 77.648 38.0359C77.57 37.8559 77.53 37.5589 77.53 37.1429C77.53 36.5469 77.598 35.9349 77.733 35.3059C77.867 34.6759 78.047 34.0699 78.272 33.4859C78.508 32.9009 78.766 32.3789 79.047 31.9179C79.328 31.4579 79.609 31.0919 79.89 30.8219C80.182 30.5519 80.457 30.4179 80.716 30.4179C80.986 30.4179 81.176 30.5529 81.289 30.8219C81.401 31.0659 81.429 31.3929 81.376 31.8019L80.878 33.6439L80.935 33.3509C80.755 34.0699 80.542 34.7329 80.295 35.3399C80.047 35.9459 79.789 36.4689 79.519 36.9069C79.249 37.3449 78.985 37.6879 78.727 37.9349Z" fill="#979797"/>
<path d="M70.865 38.828H68.792L70.814 31.564C70.915 31.227 70.949 30.991 70.915 30.856C70.882 30.721 70.781 30.654 70.612 30.654C70.399 30.654 70.202 30.761 70.022 30.974C69.842 31.187 69.657 31.564 69.466 32.104L69.179 32.895H68.859L69.297 31.631C69.455 31.181 69.651 30.834 69.887 30.586C70.123 30.328 70.382 30.148 70.663 30.047C70.943 29.946 71.23 29.895 71.523 29.895C71.882 29.895 72.146 29.968 72.314 30.115C72.4928 30.2585 72.6129 30.4622 72.652 30.688C72.708 30.924 72.719 31.182 72.685 31.463C72.663 31.733 72.618 31.997 72.55 32.255L72.28 33.312L72.307 33.239L72.348 33.132C72.663 32.334 72.966 31.699 73.258 31.227C73.562 30.744 73.882 30.401 74.219 30.199C74.5492 29.9983 74.9286 29.8931 75.315 29.895C75.719 29.895 76.028 30.013 76.242 30.249C76.466 30.485 76.579 30.777 76.579 31.126C76.579 31.406 76.511 31.671 76.376 31.918C76.2452 32.1498 76.0603 32.3464 75.837 32.491C75.6142 32.6284 75.3566 32.6985 75.095 32.693C74.815 32.693 74.59 32.62 74.421 32.474C74.264 32.328 74.185 32.114 74.185 31.834C74.185 31.586 74.241 31.362 74.354 31.159C74.466 30.957 74.612 30.789 74.792 30.654C74.972 30.508 75.168 30.407 75.382 30.35C75.3583 30.327 75.3295 30.3099 75.298 30.3C75.2756 30.2925 75.2525 30.2874 75.229 30.285C75.2124 30.2835 75.1957 30.2828 75.179 30.283C74.933 30.283 74.679 30.373 74.421 30.553C74.163 30.721 73.893 30.997 73.612 31.379C73.332 31.761 73.045 32.266 72.752 32.895C72.4225 33.6388 72.1302 34.3984 71.876 35.171C71.749 35.544 71.621 35.947 71.493 36.378L70.865 38.828Z" fill="#979797"/>
<path fill-rule="evenodd" clip-rule="evenodd" d="M67.712 27.519C67.15 27.114 66.251 26.912 65.015 26.912C64.633 26.912 64.251 26.918 63.868 26.929C63.498 26.94 63.071 26.946 62.588 26.946H61.745C61.441 26.934 61.155 26.929 60.885 26.929C60.6603 26.9191 60.4356 26.9078 60.211 26.895L60.127 27.232C60.565 27.232 60.863 27.288 61.02 27.401C61.189 27.501 61.267 27.659 61.256 27.873C61.2333 28.1459 61.1882 28.4165 61.121 28.682L58.896 37.042C58.796 37.446 58.683 37.75 58.559 37.952C58.447 38.1452 58.2669 38.2897 58.054 38.357C57.84 38.424 57.542 38.469 57.16 38.491L57.093 38.828C57.283 38.818 57.514 38.812 57.783 38.812C58.053 38.8 58.34 38.795 58.643 38.795C59.4913 38.7692 60.3402 38.7749 61.188 38.812C61.649 38.822 62.071 38.829 62.453 38.829C63.183 38.829 63.874 38.755 64.526 38.609C65.127 38.4727 65.7018 38.2397 66.228 37.919C66.6988 37.6386 67.0971 37.2515 67.391 36.789C67.683 36.339 67.829 35.812 67.829 35.205C67.829 34.519 67.549 33.929 66.987 33.435C66.437 32.94 65.565 32.648 64.374 32.558C65.1171 32.4513 65.8391 32.2297 66.514 31.901C67.144 31.575 67.638 31.176 67.998 30.704C68.3604 30.2559 68.5568 29.6963 68.554 29.12C68.554 28.446 68.275 27.912 67.712 27.519ZM62.332 32.778L61.205 37.042C61.138 37.322 61.093 37.57 61.071 37.783C61.059 37.997 61.115 38.16 61.239 38.273C61.363 38.385 61.593 38.441 61.93 38.441C62.728 38.441 63.38 38.289 63.885 37.986C64.3798 37.695 64.774 37.26 65.015 36.739C65.262 36.199 65.385 35.592 65.385 34.919C65.385 34.502 65.312 34.137 65.166 33.823C65.0375 33.504 64.8063 33.237 64.509 33.064C64.206 32.873 63.801 32.778 63.295 32.778H62.332ZM62.408 32.491H63.178C63.818 32.491 64.363 32.328 64.812 32.002C65.273 31.665 65.622 31.227 65.858 30.688C66.1038 30.154 66.23 29.5728 66.228 28.985C66.228 28.423 66.116 27.991 65.891 27.687C65.678 27.384 65.301 27.232 64.761 27.232C64.369 27.232 64.088 27.311 63.919 27.468C63.751 27.614 63.605 27.934 63.481 28.428L62.408 32.491Z" fill="#979797"/>
</g>
<defs>
<clipPath id="clip0_38_830">
<rect width="174" height="39" fill="white" transform="translate(0.75 0.5)"/>
</clipPath>
</defs>
</svg>
