<svg width="203" height="40" viewBox="0 0 203 40" fill="none" xmlns="http://www.w3.org/2000/svg">
<g clip-path="url(#clip0_38_893)">
<path fill-rule="evenodd" clip-rule="evenodd" d="M25.8057 11.6853C24.1612 10.5865 22.2278 10 20.25 10V0C24.2056 0 28.0724 1.17298 31.3614 3.37061C34.6504 5.56823 37.2138 8.69181 38.7276 12.3463C40.2413 16.0008 40.6374 20.0222 39.8657 23.9018C39.094 27.7814 37.1892 31.3451 34.3921 34.1421C31.5951 36.9392 28.0314 38.844 24.1518 39.6157C20.2722 40.3874 16.2508 39.9913 12.5963 38.4776C8.9418 36.9638 5.81823 34.4004 3.62061 31.1114C1.42298 27.8224 0.25 23.9556 0.25 20H10.25C10.25 21.9778 10.8365 23.9112 11.9353 25.5557C13.0341 27.2002 14.5959 28.4819 16.4232 29.2388C18.2504 29.9957 20.2611 30.1937 22.2009 29.8078C24.1407 29.422 25.9225 28.4696 27.3211 27.0711C28.7196 25.6725 29.672 23.8907 30.0578 21.9509C30.4437 20.0111 30.2457 18.0004 29.4888 16.1732C28.7319 14.3459 27.4502 12.7841 25.8057 11.6853Z" fill="#979797"/>
<path fill-rule="evenodd" clip-rule="evenodd" d="M10.25 5.28493e-06C10.25 1.31322 9.99134 2.61358 9.48879 3.82684C8.98624 5.04009 8.24965 6.14248 7.32106 7.07107C6.39248 7.99966 5.29009 8.73625 4.07683 9.2388C2.86357 9.74134 1.56321 10 0.25 10L0.25 20C2.87643 20 5.47715 19.4827 7.90367 18.4776C10.3302 17.4725 12.535 15.9993 14.3921 14.1421C16.2493 12.285 17.7225 10.0802 18.7276 7.65367C19.7327 5.22715 20.25 2.62643 20.25 0L10.25 5.28493e-06Z" fill="#979797"/>
<path d="M125.869 14.4525H121.017V29.8648H125.869V14.4525Z" fill="#979797"/>
<path d="M121.557 11.5666C122.064 12.074 122.698 12.3277 123.459 12.3277C124.22 12.3277 124.844 12.074 125.33 11.5666C125.817 11.0381 126.06 10.4038 126.06 9.66385C126.06 8.90277 125.817 8.26849 125.33 7.76111C124.844 7.25369 124.22 7 123.459 7C122.698 7 122.064 7.25369 121.557 7.76111C121.07 8.26849 120.827 8.90277 120.827 9.66385C120.827 10.4038 121.07 11.0381 121.557 11.5666Z" fill="#979797"/>
<path d="M51.4062 29.8648V7.47571H56.3851V25.4885H66.3112V29.8648H51.4062Z" fill="#979797"/>
<path fill-rule="evenodd" clip-rule="evenodd" d="M75.2774 30.2136C73.6918 30.2136 72.2542 29.8648 70.9645 29.1671C69.696 28.4483 68.6918 27.4758 67.9518 26.2495C67.2119 25.0233 66.8419 23.6491 66.8419 22.1269C66.8419 20.6047 67.2119 19.2411 67.9518 18.036C68.6918 16.8309 69.696 15.8795 70.9645 15.1819C72.233 14.463 73.6707 14.1036 75.2774 14.1036C76.8842 14.1036 78.3218 14.4525 79.5903 15.1501C80.8588 15.8478 81.8631 16.8098 82.603 18.036C83.343 19.2411 83.713 20.6047 83.713 22.1269C83.713 23.6491 83.343 25.0233 82.603 26.2495C81.8631 27.4758 80.8588 28.4483 79.5903 29.1671C78.3218 29.8648 76.8842 30.2136 75.2774 30.2136ZM75.2774 25.8056C75.9751 25.8056 76.5882 25.6576 77.1168 25.3616C77.6453 25.0445 78.047 24.6111 78.3218 24.0614C78.6178 23.4906 78.7658 22.8457 78.7658 22.1269C78.7658 21.4081 78.6178 20.7844 78.3218 20.2559C78.0258 19.7062 77.6136 19.2834 77.085 18.9874C76.5776 18.6702 75.9751 18.5117 75.2774 18.5117C74.6009 18.5117 73.9984 18.6702 73.4698 18.9874C72.9413 19.2834 72.529 19.7062 72.233 20.2559C71.937 20.8056 71.7891 21.4398 71.7891 22.1586C71.7891 22.8563 71.937 23.4906 72.233 24.0614C72.529 24.6111 72.9413 25.0445 73.4698 25.3616C73.9984 25.6576 74.6009 25.8056 75.2774 25.8056Z" fill="#979797"/>
<path fill-rule="evenodd" clip-rule="evenodd" d="M87.5557 35.8902C88.8453 36.4821 90.3358 36.7781 92.0272 36.7781C93.6762 36.7781 95.1456 36.4504 96.4352 35.795C97.7249 35.1396 98.7396 34.2306 99.4796 33.0678C100.22 31.905 100.59 30.5308 100.59 28.9451V14.4525H95.8326V15.488C95.4788 15.1902 95.077 14.9402 94.6276 14.7379C93.803 14.3362 92.8622 14.1353 91.8052 14.1353C90.3887 14.1353 89.1307 14.4736 88.0314 15.1501C86.9319 15.8055 86.0652 16.7146 85.4309 17.8774C84.7966 19.0191 84.4796 20.3087 84.4796 21.7464C84.4796 23.1629 84.7966 24.4525 85.4309 25.6153C86.0652 26.7781 86.9319 27.6978 88.0314 28.3743C89.1307 29.0508 90.3887 29.3891 91.8052 29.3891C92.8411 29.3891 93.7819 29.1883 94.6276 28.7866C95.0372 28.592 95.4072 28.3627 95.7375 28.0986V29.072C95.7375 30.1502 95.3887 30.9853 94.691 31.5773C94.0145 32.1693 93.0737 32.4652 91.8686 32.4652C90.8961 32.4652 90.061 32.2961 89.3633 31.9578C88.6868 31.6196 88.0736 31.1227 87.5239 30.4673L84.543 33.4483C85.2829 34.5054 86.2872 35.3194 87.5557 35.8902ZM94.469 24.6322C93.9827 24.9282 93.4014 25.0762 92.7248 25.0762C92.0483 25.0762 91.4563 24.9282 90.9489 24.6322C90.4626 24.3362 90.0821 23.9345 89.8073 23.4271C89.5324 22.8986 89.395 22.3383 89.395 21.7464C89.395 21.1121 89.5324 20.5413 89.8073 20.0339C90.0821 19.5265 90.4732 19.1248 90.9806 18.8288C91.488 18.5328 92.0694 18.3848 92.7248 18.3848C93.4014 18.3848 93.9827 18.5328 94.469 18.8288C94.9764 19.1248 95.3569 19.5265 95.6107 20.0339C95.8855 20.5413 96.0229 21.1121 96.0229 21.7464C96.0229 22.3806 95.8855 22.9514 95.6107 23.4588C95.3569 23.9451 94.9764 24.3362 94.469 24.6322Z" fill="#979797"/>
<path fill-rule="evenodd" clip-rule="evenodd" d="M110.801 30.2136C109.215 30.2136 107.777 29.8648 106.488 29.1671C105.219 28.4483 104.215 27.4758 103.475 26.2495C102.735 25.0233 102.365 23.6491 102.365 22.1269C102.365 20.6047 102.735 19.2411 103.475 18.036C104.215 16.8309 105.219 15.8795 106.488 15.1819C107.756 14.463 109.194 14.1036 110.801 14.1036C112.407 14.1036 113.845 14.4525 115.113 15.1501C116.382 15.8478 117.386 16.8098 118.126 18.036C118.866 19.2411 119.236 20.6047 119.236 22.1269C119.236 23.6491 118.866 25.0233 118.126 26.2495C117.386 27.4758 116.382 28.4483 115.113 29.1671C113.845 29.8648 112.407 30.2136 110.801 30.2136ZM110.801 25.8056C111.498 25.8056 112.111 25.6576 112.64 25.3616C113.168 25.0445 113.57 24.6111 113.845 24.0614C114.141 23.4906 114.289 22.8457 114.289 22.1269C114.289 21.4081 114.141 20.7844 113.845 20.2559C113.549 19.7062 113.137 19.2834 112.608 18.9874C112.101 18.6702 111.498 18.5117 110.801 18.5117C110.124 18.5117 109.521 18.6702 108.993 18.9874C108.464 19.2834 108.052 19.7062 107.756 20.2559C107.46 20.8056 107.312 21.4398 107.312 22.1586C107.312 22.8563 107.46 23.4906 107.756 24.0614C108.052 24.6111 108.464 25.0445 108.993 25.3616C109.521 25.6576 110.124 25.8056 110.801 25.8056Z" fill="#979797"/>
<path fill-rule="evenodd" clip-rule="evenodd" d="M137.531 30.1819C136.496 30.1819 135.544 29.9811 134.677 29.5794C134.221 29.368 133.809 29.1156 133.441 28.8222V36.3659H128.652V14.4525H133.504V15.5162C133.856 15.2283 134.247 14.9794 134.677 14.7696C135.544 14.3467 136.496 14.1353 137.531 14.1353C138.99 14.1353 140.28 14.4842 141.4 15.1819C142.542 15.8795 143.43 16.8309 144.064 18.036C144.72 19.2411 145.047 20.6153 145.047 22.1586C145.047 23.702 144.72 25.0762 144.064 26.2813C143.43 27.4864 142.542 28.4377 141.4 29.1354C140.28 29.8331 138.99 30.1819 137.531 30.1819ZM136.644 25.8056C137.341 25.8056 137.944 25.647 138.451 25.3299C138.98 25.0128 139.392 24.5793 139.688 24.0297C139.984 23.48 140.132 22.8563 140.132 22.1586C140.132 21.4398 139.984 20.8056 139.688 20.2559C139.392 19.7062 138.98 19.2834 138.451 18.9874C137.944 18.6702 137.352 18.5117 136.675 18.5117C135.999 18.5117 135.396 18.6702 134.868 18.9874C134.36 19.2834 133.959 19.7062 133.663 20.2559C133.367 20.8056 133.219 21.4398 133.219 22.1586C133.219 22.8563 133.356 23.48 133.631 24.0297C133.927 24.5793 134.339 25.0128 134.868 25.3299C135.396 25.647 135.988 25.8056 136.644 25.8056Z" fill="#979797"/>
<path d="M149.796 29.8965C150.684 30.1291 151.582 30.2453 152.491 30.2453C154.415 30.2453 155.937 29.8014 157.058 28.9134C158.199 28.0255 158.77 26.831 158.77 25.3299C158.77 24.3574 158.591 23.5751 158.231 22.9832C157.872 22.3701 157.407 21.8838 156.836 21.5244C156.265 21.165 155.662 20.8795 155.028 20.6681C154.394 20.4567 153.791 20.277 153.221 20.129C152.65 19.981 152.185 19.8119 151.825 19.6216C151.466 19.4313 151.286 19.1776 151.286 18.8605C151.286 18.5645 151.424 18.3425 151.698 18.1945C151.973 18.0254 152.385 17.9409 152.935 17.9409C153.506 17.9409 154.087 18.0571 154.679 18.2897C155.292 18.5222 155.842 18.924 156.328 19.4948L159.087 16.7041C158.39 15.8161 157.481 15.1501 156.36 14.7062C155.261 14.2411 154.056 14.0085 152.745 14.0085C151.498 14.0085 150.409 14.2199 149.479 14.6427C148.548 15.0656 147.829 15.647 147.322 16.3869C146.815 17.1057 146.561 17.962 146.561 18.9557C146.561 19.8859 146.741 20.6576 147.1 21.2707C147.459 21.8626 147.925 22.3278 148.495 22.666C149.066 23.0043 149.669 23.2686 150.303 23.4588C150.937 23.6491 151.54 23.8288 152.111 23.998C152.681 24.146 153.147 24.3257 153.506 24.5371C153.887 24.7274 154.077 25.0128 154.077 25.3933C154.077 25.6893 153.918 25.9218 153.601 26.091C153.305 26.2601 152.872 26.3447 152.301 26.3447C151.476 26.3447 150.715 26.1967 150.018 25.9007C149.32 25.5836 148.717 25.1502 148.21 24.6005L145.451 27.3912C145.98 27.962 146.614 28.4695 147.354 28.9134C148.115 29.3362 148.929 29.6639 149.796 29.8965Z" fill="#979797"/>
<path d="M167.618 30.2136C166.202 30.2136 164.944 29.9282 163.845 29.3574C162.766 28.7654 161.921 27.962 161.308 26.9472C160.694 25.9113 160.388 24.7274 160.388 23.3954V14.4525H165.24V23.332C165.24 23.8605 165.324 24.3151 165.494 24.6956C165.684 25.0762 165.959 25.3722 166.318 25.5836C166.678 25.795 167.111 25.9007 167.618 25.9007C168.337 25.9007 168.908 25.6787 169.331 25.2347C169.754 24.7696 169.965 24.1354 169.965 23.332V14.4525H174.817V23.3637C174.817 24.7168 174.511 25.9113 173.897 26.9472C173.284 27.962 172.439 28.7654 171.36 29.3574C170.282 29.9282 169.035 30.2136 167.618 30.2136Z" fill="#979797"/>
<path d="M182.081 14.4525H177.229V29.8648H182.081V20.8584C182.081 20.3299 182.187 19.8859 182.398 19.5265C182.631 19.1671 182.938 18.8922 183.318 18.702C183.699 18.4905 184.132 18.3848 184.618 18.3848C185.316 18.3848 185.897 18.6068 186.362 19.0508C186.849 19.4736 187.092 20.0762 187.092 20.8584V29.8648H191.944V20.8584C191.944 20.3299 192.05 19.8859 192.261 19.5265C192.494 19.1671 192.8 18.8922 193.181 18.702C193.561 18.4905 193.995 18.3848 194.481 18.3848C195.179 18.3848 195.76 18.6068 196.225 19.0508C196.711 19.4736 196.954 20.0762 196.954 20.8584V29.8648H201.807V20.3193C201.807 19.0297 201.532 17.9303 200.982 17.0212C200.453 16.0909 199.724 15.3827 198.794 14.8965C197.885 14.389 196.838 14.1353 195.654 14.1353C194.449 14.1353 193.36 14.3996 192.388 14.9282C191.756 15.2649 191.204 15.6995 190.731 16.2319C190.29 15.675 189.754 15.2193 189.121 14.8647C188.276 14.3785 187.314 14.1353 186.236 14.1353C185.094 14.1353 184.069 14.3785 183.16 14.8647C182.764 15.067 182.405 15.3093 182.081 15.5916V14.4525Z" fill="#979797"/>
</g>
<defs>
<clipPath id="clip0_38_893">
<rect width="202" height="40" fill="white" transform="translate(0.25)"/>
</clipPath>
</defs>
</svg>
